<svg width="22" height="22" viewBox="0 0 22 22" fill="none" xmlns="http://www.w3.org/2000/svg">
<path fill-rule="evenodd" clip-rule="evenodd" d="M5.50033 3.25C4.76395 3.25 4.16699 3.84695 4.16699 4.58333V17.4167C4.16699 18.153 4.76395 18.75 5.50033 18.75H16.5003C17.2367 18.75 17.8337 18.153 17.8337 17.4167V4.58333C17.8337 3.84695 17.2367 3.25 16.5003 3.25H5.50033ZM3.16699 4.58333C3.16699 3.29467 4.21166 2.25 5.50033 2.25H16.5003C17.789 2.25 18.8337 3.29467 18.8337 4.58333V17.4167C18.8337 18.7053 17.789 19.75 16.5003 19.75H5.50033C4.21166 19.75 3.16699 18.7053 3.16699 17.4167V4.58333ZM8.25033 6.91667C8.02021 6.91667 7.83366 7.10321 7.83366 7.33333V8.25C7.83366 8.48012 8.02021 8.66667 8.25033 8.66667H13.7503C13.9804 8.66667 14.167 8.48012 14.167 8.25V7.33333C14.167 7.10321 13.9804 6.91667 13.7503 6.91667H8.25033ZM6.83366 7.33333C6.83366 6.55093 7.46792 5.91667 8.25033 5.91667H13.7503C14.5327 5.91667 15.167 6.55093 15.167 7.33333V8.25C15.167 9.0324 14.5327 9.66667 13.7503 9.66667H8.25033C7.46792 9.66667 6.83366 9.0324 6.83366 8.25V7.33333ZM7.33366 12.3333C7.6098 12.3333 7.83366 12.5572 7.83366 12.8333V12.8425C7.83366 13.1186 7.6098 13.3425 7.33366 13.3425C7.05752 13.3425 6.83366 13.1186 6.83366 12.8425V12.8333C6.83366 12.5572 7.05752 12.3333 7.33366 12.3333ZM11.0003 12.3333C11.2765 12.3333 11.5003 12.5572 11.5003 12.8333V12.8425C11.5003 13.1186 11.2765 13.3425 11.0003 13.3425C10.7242 13.3425 10.5003 13.1186 10.5003 12.8425V12.8333C10.5003 12.5572 10.7242 12.3333 11.0003 12.3333ZM14.667 12.3333C14.9431 12.3333 15.167 12.5572 15.167 12.8333V12.8425C15.167 13.1186 14.9431 13.3425 14.667 13.3425C14.3909 13.3425 14.167 13.1186 14.167 12.8425V12.8333C14.167 12.5572 14.3909 12.3333 14.667 12.3333ZM7.33366 15.0833C7.6098 15.0833 7.83366 15.3072 7.83366 15.5833V15.5925C7.83366 15.8686 7.6098 16.0925 7.33366 16.0925C7.05752 16.0925 6.83366 15.8686 6.83366 15.5925V15.5833C6.83366 15.3072 7.05752 15.0833 7.33366 15.0833ZM11.0003 15.0833C11.2765 15.0833 11.5003 15.3072 11.5003 15.5833V15.5925C11.5003 15.8686 11.2765 16.0925 11.0003 16.0925C10.7242 16.0925 10.5003 15.8686 10.5003 15.5925V15.5833C10.5003 15.3072 10.7242 15.0833 11.0003 15.0833ZM14.667 15.0833C14.9431 15.0833 15.167 15.3072 15.167 15.5833V15.5925C15.167 15.8686 14.9431 16.0925 14.667 16.0925C14.3909 16.0925 14.167 15.8686 14.167 15.5925V15.5833C14.167 15.3072 14.3909 15.0833 14.667 15.0833Z" fill="white"/>
</svg>
