<svg width="26" height="26" viewBox="0 0 26 26" fill="none" xmlns="http://www.w3.org/2000/svg">
<path fill-rule="evenodd" clip-rule="evenodd" d="M7.58317 4C7.20745 4 6.84711 4.14926 6.58144 4.41493C6.31576 4.68061 6.1665 5.04094 6.1665 5.41667V20.5833C6.1665 20.9591 6.31576 21.3194 6.58144 21.5851C6.84711 21.8507 7.20745 22 7.58317 22H18.4165C18.7922 22 19.1526 21.8507 19.4182 21.5851C19.6839 21.3194 19.8332 20.9591 19.8332 20.5833V9.41667H16.2498C15.7636 9.41667 15.2973 9.22351 14.9535 8.8797C14.6097 8.53588 14.4165 8.06956 14.4165 7.58333V4H7.58317ZM15.9165 5.06066L18.7725 7.91667H16.2498C16.1614 7.91667 16.0766 7.88155 16.0141 7.81904C15.9516 7.75652 15.9165 7.67174 15.9165 7.58333V5.06066ZM5.52078 3.35427C6.06776 2.80729 6.80962 2.5 7.58317 2.5H15.1665C15.3654 2.5 15.5562 2.57902 15.6968 2.71967L21.1135 8.13634C21.2542 8.27699 21.3332 8.46775 21.3332 8.66667V20.5833C21.3332 21.3569 21.0259 22.0987 20.4789 22.6457C19.9319 23.1927 19.1901 23.5 18.4165 23.5H7.58317C6.80962 23.5 6.06776 23.1927 5.52078 22.6457C4.97379 22.0987 4.6665 21.3569 4.6665 20.5833V5.41667C4.6665 4.64312 4.97379 3.90125 5.52078 3.35427ZM12.2498 11.9167C12.2498 11.5025 12.5856 11.1667 12.9998 11.1667H13.0107C13.4249 11.1667 13.7607 11.5025 13.7607 11.9167C13.7607 12.3309 13.4249 12.6667 13.0107 12.6667H12.9998C12.5856 12.6667 12.2498 12.3309 12.2498 11.9167ZM11.1665 15.1667C11.1665 14.7525 11.5023 14.4167 11.9165 14.4167H12.9998C13.4141 14.4167 13.7498 14.7525 13.7498 15.1667V18.75H14.0832C14.4974 18.75 14.8332 19.0858 14.8332 19.5C14.8332 19.9142 14.4974 20.25 14.0832 20.25H12.9998C12.5856 20.25 12.2498 19.9142 12.2498 19.5V15.9167H11.9165C11.5023 15.9167 11.1665 15.5809 11.1665 15.1667Z" fill="white"/>
</svg>
