<svg width="22" height="22" viewBox="0 0 22 22" fill="none" xmlns="http://www.w3.org/2000/svg">
<path fill-rule="evenodd" clip-rule="evenodd" d="M10.9998 3.50023C9.69779 3.50023 8.42499 3.88633 7.34237 4.6097C6.25976 5.33307 5.41595 6.36122 4.91767 7.56415C4.41938 8.76708 4.28899 10.0907 4.54298 11.3678C4.79696 12.6448 5.42391 13.8178 6.34453 14.7385C6.34455 14.7385 6.3445 14.7385 6.34453 14.7385L10.2347 18.6277C10.4378 18.8306 10.7132 18.9446 11.0003 18.9446C11.2874 18.9446 11.5628 18.8306 11.7659 18.6277L15.6551 14.7386C15.6551 14.7386 15.6551 14.7386 15.6551 14.7386C16.5757 13.8179 17.2027 12.6448 17.4567 11.3678C17.7107 10.0907 17.5803 8.76708 17.082 7.56415C16.5837 6.36122 15.7399 5.33307 14.6573 4.6097C13.5747 3.88633 12.3019 3.50023 10.9998 3.50023ZM6.50902 3.36249C7.83831 2.4743 9.40113 2.00023 10.9998 2.00023C12.5986 2.00023 14.1614 2.4743 15.4907 3.36249C16.8199 4.25068 17.856 5.5131 18.4678 6.99011C19.0796 8.46712 19.2397 10.0924 18.9279 11.6604C18.616 13.2284 17.8462 14.6687 16.7158 15.7992L12.8263 19.6886C12.3419 20.1725 11.685 20.4446 11.0003 20.4446C10.3156 20.4446 9.65892 20.1728 9.17453 19.6889L5.28399 15.7993C4.15356 14.6688 3.38366 13.2284 3.0718 11.6604C2.75993 10.0924 2.92003 8.46712 3.53185 6.99011C4.14368 5.5131 5.17974 4.25068 6.50902 3.36249ZM10.9998 8.08334C9.89527 8.08334 8.99984 8.97877 8.99984 10.0833C8.99984 11.1879 9.89527 12.0833 10.9998 12.0833C12.1044 12.0833 12.9998 11.1879 12.9998 10.0833C12.9998 8.97877 12.1044 8.08334 10.9998 8.08334ZM7.49984 10.0833C7.49984 8.15034 9.06684 6.58334 10.9998 6.58334C12.9328 6.58334 14.4998 8.15034 14.4998 10.0833C14.4998 12.0163 12.9328 13.5833 10.9998 13.5833C9.06684 13.5833 7.49984 12.0163 7.49984 10.0833Z" fill="#3DB36C"/>
</svg>
