<svg width="26" height="26" viewBox="0 0 26 26" fill="none" xmlns="http://www.w3.org/2000/svg">
<path fill-rule="evenodd" clip-rule="evenodd" d="M1.4165 3.25C1.4165 2.83579 1.75229 2.5 2.1665 2.5H3.24984C4.02339 2.5 4.76525 2.80729 5.31223 3.35427C5.85921 3.90125 6.1665 4.64312 6.1665 5.41667V16.25C6.1665 16.6257 6.31576 16.9861 6.58144 17.2517C6.84711 17.5174 7.20745 17.6667 7.58317 17.6667H23.8332C24.2474 17.6667 24.5832 18.0025 24.5832 18.4167C24.5832 18.8309 24.2474 19.1667 23.8332 19.1667H22.05C22.2835 19.5861 22.4165 20.0692 22.4165 20.5833C22.4165 22.1942 21.1107 23.5 19.4998 23.5C17.889 23.5 16.5832 22.1942 16.5832 20.5833C16.5832 20.0692 16.7162 19.5861 16.9497 19.1667H12.3C12.5335 19.5861 12.6665 20.0692 12.6665 20.5833C12.6665 22.1942 11.3607 23.5 9.74984 23.5C8.13901 23.5 6.83317 22.1942 6.83317 20.5833C6.83317 20.0595 6.97125 19.568 7.21299 19.1431C6.57598 19.0616 5.97977 18.7714 5.52078 18.3124C4.9738 17.7654 4.6665 17.0235 4.6665 16.25V5.41667C4.6665 5.04094 4.51725 4.68061 4.25157 4.41493C3.9859 4.14926 3.62556 4 3.24984 4H2.1665C1.75229 4 1.4165 3.66421 1.4165 3.25ZM9.74984 19.1667C8.96743 19.1667 8.33317 19.8009 8.33317 20.5833C8.33317 21.3657 8.96743 22 9.74984 22C10.5322 22 11.1665 21.3657 11.1665 20.5833C11.1665 19.8009 10.5322 19.1667 9.74984 19.1667ZM19.4998 19.1667C18.7174 19.1667 18.0832 19.8009 18.0832 20.5833C18.0832 21.3657 18.7174 22 19.4998 22C20.2822 22 20.9165 21.3657 20.9165 20.5833C20.9165 19.8009 20.2822 19.1667 19.4998 19.1667ZM12.9998 7.25C11.6191 7.25 10.4998 8.36929 10.4998 9.75V11.9167C10.4998 13.2974 11.6191 14.4167 12.9998 14.4167H17.3332C18.7139 14.4167 19.8332 13.2974 19.8332 11.9167V9.75C19.8332 8.36929 18.7139 7.25 17.3332 7.25H12.9998ZM8.99984 9.75C8.99984 7.54086 10.7907 5.75 12.9998 5.75H17.3332C19.5423 5.75 21.3332 7.54086 21.3332 9.75V11.9167C21.3332 14.1258 19.5423 15.9167 17.3332 15.9167H12.9998C10.7907 15.9167 8.99984 14.1258 8.99984 11.9167V9.75Z" fill="#3DB36C"/>
</svg>
