<svg width="22" height="22" viewBox="0 0 22 22" fill="none" xmlns="http://www.w3.org/2000/svg">
<path fill-rule="evenodd" clip-rule="evenodd" d="M4.58317 4.41666C4.49112 4.41666 4.4165 4.49128 4.4165 4.58333V8.25C4.4165 8.34204 4.49112 8.41666 4.58317 8.41666H8.24984C8.34188 8.41666 8.4165 8.34204 8.4165 8.25V4.58333C8.4165 4.49128 8.34188 4.41666 8.24984 4.41666H4.58317ZM2.9165 4.58333C2.9165 3.66286 3.6627 2.91666 4.58317 2.91666H8.24984C9.17031 2.91666 9.9165 3.66286 9.9165 4.58333V8.25C9.9165 9.17047 9.17031 9.91666 8.24984 9.91666H4.58317C3.6627 9.91666 2.9165 9.17047 2.9165 8.25V4.58333ZM13.7498 4.41666C13.6578 4.41666 13.5832 4.49128 13.5832 4.58333V8.25C13.5832 8.34204 13.6578 8.41666 13.7498 8.41666H17.4165C17.5086 8.41666 17.5832 8.34204 17.5832 8.25V4.58333C17.5832 4.49128 17.5086 4.41666 17.4165 4.41666H13.7498ZM12.0832 4.58333C12.0832 3.66286 12.8294 2.91666 13.7498 2.91666H17.4165C18.337 2.91666 19.0832 3.66286 19.0832 4.58333V8.25C19.0832 9.17047 18.337 9.91666 17.4165 9.91666H13.7498C12.8294 9.91666 12.0832 9.17047 12.0832 8.25V4.58333ZM4.58317 13.5833C4.49112 13.5833 4.4165 13.658 4.4165 13.75V17.4167C4.4165 17.5087 4.49112 17.5833 4.58317 17.5833H8.24984C8.34188 17.5833 8.4165 17.5087 8.4165 17.4167V13.75C8.4165 13.658 8.34188 13.5833 8.24984 13.5833H4.58317ZM2.9165 13.75C2.9165 12.8295 3.6627 12.0833 4.58317 12.0833H8.24984C9.17031 12.0833 9.9165 12.8295 9.9165 13.75V17.4167C9.9165 18.3371 9.17031 19.0833 8.24984 19.0833H4.58317C3.6627 19.0833 2.9165 18.3371 2.9165 17.4167V13.75ZM13.7498 13.5833C13.6578 13.5833 13.5832 13.658 13.5832 13.75V17.4167C13.5832 17.5087 13.6578 17.5833 13.7498 17.5833H17.4165C17.5086 17.5833 17.5832 17.5087 17.5832 17.4167V13.75C17.5832 13.658 17.5086 13.5833 17.4165 13.5833H13.7498ZM12.0832 13.75C12.0832 12.8295 12.8294 12.0833 13.7498 12.0833H17.4165C18.337 12.0833 19.0832 12.8295 19.0832 13.75V17.4167C19.0832 18.3371 18.337 19.0833 17.4165 19.0833H13.7498C12.8294 19.0833 12.0832 18.3371 12.0832 17.4167V13.75Z" fill="#2D322F"/>
</svg>
