<svg width="26" height="26" viewBox="0 0 26 26" fill="none" xmlns="http://www.w3.org/2000/svg">
<path fill-rule="evenodd" clip-rule="evenodd" d="M13 5.75C13.2508 5.75 13.485 5.87533 13.6241 6.08397L17.5036 11.9033L22.2815 8.08102C22.5277 7.88409 22.8707 7.86211 23.14 8.02599C23.4092 8.18988 23.5473 8.50465 23.4855 8.81375L21.3188 19.6471C21.2487 19.9977 20.9409 20.25 20.5834 20.25H5.41671C5.0592 20.25 4.75139 19.9977 4.68127 19.6471L2.5146 8.81375C2.45278 8.50465 2.59084 8.18988 2.86012 8.02599C3.1294 7.86211 3.47241 7.88409 3.71856 8.08102L8.49644 11.9033L12.376 6.08397C12.5151 5.87533 12.7493 5.75 13 5.75ZM13 7.85208L9.29075 13.416C9.17414 13.5909 8.98949 13.7089 8.78177 13.7411C8.57405 13.7734 8.36233 13.717 8.19819 13.5857L4.38926 10.5385L6.03156 18.75H19.9685L21.6108 10.5385L17.8019 13.5857C17.6377 13.717 17.426 13.7734 17.2183 13.7411C17.0106 13.7089 16.8259 13.5909 16.7093 13.416L13 7.85208Z" fill="#3DB36C"/>
</svg>
