<svg width="26" height="26" viewBox="0 0 26 26" fill="none" xmlns="http://www.w3.org/2000/svg">
<path fill-rule="evenodd" clip-rule="evenodd" d="M12.6387 2.59284C12.8638 2.46905 13.1365 2.46905 13.3616 2.59284L15.5283 3.7845C15.8912 3.98412 16.0236 4.44017 15.824 4.80311C15.6244 5.16605 15.1683 5.29845 14.8054 5.09883L13.0002 4.10595L11.1949 5.09883C10.832 5.29845 10.376 5.16605 10.1763 4.80311C9.97672 4.44017 10.1091 3.98412 10.4721 3.7845L12.6387 2.59284ZM7.15732 6.57192C7.35694 6.93486 7.22454 7.3909 6.8616 7.59052L5.88979 8.12502L6.8616 8.6595C7.22454 8.85912 7.35694 9.31516 7.15733 9.6781C6.95771 10.041 6.50167 10.1734 6.13873 9.97383L5.0835 9.39347V10.8334C5.0835 11.2476 4.74771 11.5834 4.3335 11.5834C3.91928 11.5834 3.5835 11.2476 3.5835 10.8334V8.12503C3.5835 7.85151 3.7324 7.59968 3.97206 7.46786L6.13872 6.2762C6.50166 6.07658 6.95771 6.20898 7.15732 6.57192ZM18.843 6.57192C19.0426 6.20898 19.4987 6.07658 19.8616 6.2762L22.0283 7.46786C22.2679 7.59968 22.4168 7.85151 22.4168 8.12503V10.8334C22.4168 11.2476 22.081 11.5834 21.6668 11.5834C21.2526 11.5834 20.9168 11.2476 20.9168 10.8334V9.39347L19.8616 9.97383C19.4987 10.1734 19.0426 10.041 18.843 9.6781C18.6434 9.31516 18.7758 8.85912 19.1387 8.6595L20.1105 8.12502L19.1387 7.59052C18.7758 7.3909 18.6434 6.93486 18.843 6.57192ZM10.1791 11.4202C10.3815 11.0588 10.8386 10.9299 11.2 11.1323L13.0034 12.1423L14.8054 11.1512C15.1683 10.9516 15.6244 11.084 15.824 11.4469C16.0236 11.8099 15.8912 12.2659 15.5283 12.4655L13.7502 13.4435V15.7083C13.7502 16.1225 13.4144 16.4583 13.0002 16.4583C12.5859 16.4583 12.2502 16.1225 12.2502 15.7083V13.4396L10.467 12.441C10.1056 12.2387 9.97673 11.7816 10.1791 11.4202ZM4.3335 14.4167C4.74771 14.4167 5.0835 14.7525 5.0835 15.1667V17.4315L6.8616 18.4095C7.22454 18.6091 7.35694 19.0652 7.15732 19.4281C6.95771 19.791 6.50166 19.9234 6.13872 19.7238L3.97206 18.5322C3.7324 18.4004 3.5835 18.1485 3.5835 17.875V15.1667C3.5835 14.7525 3.91928 14.4167 4.3335 14.4167ZM21.6668 14.4167C22.081 14.4167 22.4168 14.7525 22.4168 15.1667V17.875C22.4168 18.1465 22.2701 18.3967 22.0333 18.5294L19.8666 19.7427C19.5052 19.9451 19.0482 19.8162 18.8458 19.4548C18.6434 19.0934 18.7723 18.6363 19.1337 18.434L20.9168 17.4354V15.1667C20.9168 14.7525 21.2526 14.4167 21.6668 14.4167ZM13.0002 19.2917C13.4144 19.2917 13.7502 19.6275 13.7502 20.0417V21.4816L14.8054 20.9012C15.1683 20.7016 15.6244 20.834 15.824 21.1969C16.0236 21.5599 15.8912 22.0159 15.5283 22.2155L13.3616 23.4072C13.1365 23.531 12.8638 23.531 12.6387 23.4072L10.4721 22.2155C10.1091 22.0159 9.97672 21.5599 10.1763 21.1969C10.376 20.834 10.832 20.7016 11.1949 20.9012L12.2502 21.4816V20.0417C12.2502 19.6275 12.5859 19.2917 13.0002 19.2917Z" fill="#3DB36C"/>
</svg>
