<svg width="22" height="22" viewBox="0 0 22 22" fill="none" xmlns="http://www.w3.org/2000/svg">
<path fill-rule="evenodd" clip-rule="evenodd" d="M3.66667 5.33333C3.62246 5.33333 3.58007 5.35089 3.54882 5.38214C3.51756 5.4134 3.5 5.45579 3.5 5.49999V14.8333H3.94389C4.26526 13.7724 5.25077 13 6.41667 13C7.58257 13 8.56808 13.7724 8.88945 14.8333H11.1667V5.33333H3.66667ZM12.6667 4.74999V4.58333C12.6667 4.16911 12.3309 3.83333 11.9167 3.83333H3.66667C3.22464 3.83333 2.80072 4.00892 2.48816 4.32148C2.17559 4.63404 2 5.05797 2 5.49999V15.5833C2 15.9975 2.33579 16.3333 2.75 16.3333H3.94389C4.26526 17.3943 5.25077 18.1667 6.41667 18.1667C7.58257 18.1667 8.56808 17.3943 8.88945 16.3333H13.1106C13.4319 17.3943 14.4174 18.1667 15.5833 18.1667C16.7492 18.1667 17.7347 17.3943 18.0561 16.3333H19.25C19.6642 16.3333 20 15.9975 20 15.5833V10.0833C20 9.94739 19.9631 9.81402 19.8931 9.69746L17.1431 5.11412C17.0076 4.88822 16.7634 4.74999 16.5 4.74999H12.6667ZM12.6667 6.24999V9.33333H17.9254L16.0754 6.24999H12.6667ZM18.5 10.8333H12.6667V14.8333H13.1106C13.4319 13.7724 14.4174 13 15.5833 13C16.7492 13 17.7347 13.7724 18.0561 14.8333H18.5V10.8333ZM6.41667 14.5C5.81836 14.5 5.33333 14.985 5.33333 15.5833C5.33333 16.1816 5.81836 16.6667 6.41667 16.6667C7.01498 16.6667 7.5 16.1816 7.5 15.5833C7.5 14.985 7.01498 14.5 6.41667 14.5ZM15.5833 14.5C14.985 14.5 14.5 14.985 14.5 15.5833C14.5 16.1816 14.985 16.6667 15.5833 16.6667C16.1816 16.6667 16.6667 16.1816 16.6667 15.5833C16.6667 14.985 16.1816 14.5 15.5833 14.5Z" fill="#2D322F"/>
</svg>
