<svg width="22" height="22" viewBox="0 0 22 22" fill="none" xmlns="http://www.w3.org/2000/svg">
<path fill-rule="evenodd" clip-rule="evenodd" d="M11 3.5C6.85786 3.5 3.5 6.85786 3.5 11C3.5 15.1421 6.85786 18.5 11 18.5C15.1421 18.5 18.5 15.1421 18.5 11C18.5 6.85786 15.1421 3.5 11 3.5ZM2 11C2 6.02944 6.02944 2 11 2C15.9706 2 20 6.02944 20 11C20 15.9706 15.9706 20 11 20C6.02944 20 2 15.9706 2 11ZM10.25 7.33333C10.25 6.91912 10.5858 6.58333 11 6.58333H11.0092C11.4234 6.58333 11.7592 6.91912 11.7592 7.33333C11.7592 7.74755 11.4234 8.08333 11.0092 8.08333H11C10.5858 8.08333 10.25 7.74755 10.25 7.33333ZM9.33333 11C9.33333 10.5858 9.66912 10.25 10.0833 10.25H11C11.4142 10.25 11.75 10.5858 11.75 11V13.9167H11.9167C12.3309 13.9167 12.6667 14.2525 12.6667 14.6667C12.6667 15.0809 12.3309 15.4167 11.9167 15.4167H11C10.5858 15.4167 10.25 15.0809 10.25 14.6667V11.75H10.0833C9.66912 11.75 9.33333 11.4142 9.33333 11Z" fill="#2D322F"/>
</svg>
