<svg width="18" height="18" viewBox="0 0 18 18" fill="none" xmlns="http://www.w3.org/2000/svg">
<path fill-rule="evenodd" clip-rule="evenodd" d="M10.5 2.25C10.5 1.83579 10.8358 1.5 11.25 1.5C12.6424 1.5 13.9777 2.05312 14.9623 3.03769C15.9469 4.02226 16.5 5.35761 16.5 6.75C16.5 7.16421 16.1642 7.5 15.75 7.5C15.3358 7.5 15 7.16421 15 6.75C15 5.75544 14.6049 4.80161 13.9017 4.09835C13.1984 3.39509 12.2446 3 11.25 3C10.8358 3 10.5 2.66421 10.5 2.25ZM3.75 3.75C3.55109 3.75 3.36032 3.82902 3.21967 3.96967C3.08356 4.10578 3.00516 4.28883 3.00025 4.48078C3.17274 7.21373 4.33619 9.79029 6.27295 11.727C8.20971 13.6638 10.7863 14.8273 13.5192 14.9998C13.7112 14.9948 13.8942 14.9164 14.0303 14.7803C14.171 14.6397 14.25 14.4489 14.25 14.25V11.7578L11.5645 10.6836L10.7681 12.0109C10.5673 12.3456 10.1433 12.4703 9.79326 12.2976C8.01656 11.4214 6.57859 9.98344 5.70235 8.20674C5.52971 7.85667 5.65443 7.4327 5.98913 7.23188L7.31643 6.4355L6.24223 3.75H3.75ZM2.15901 2.90901C2.58097 2.48705 3.15326 2.25 3.75 2.25H6.75C7.05668 2.25 7.33246 2.43671 7.44636 2.72146L8.94636 6.47146C9.08307 6.81324 8.95153 7.20373 8.63587 7.39312L7.38037 8.14642C7.99827 9.15414 8.84586 10.0017 9.85358 10.6196L10.6069 9.36413C10.7963 9.04847 11.1868 8.91693 11.5285 9.05364L15.2785 10.5536C15.5633 10.6675 15.75 10.9433 15.75 11.25V14.25C15.75 14.8467 15.5129 15.419 15.091 15.841C14.669 16.2629 14.0967 16.5 13.5 16.5C13.4848 16.5 13.4697 16.4995 13.4545 16.4986C10.3461 16.3097 7.41432 14.9897 5.21229 12.7877C3.01027 10.5857 1.69028 7.65389 1.50138 4.54549C1.50046 4.53035 1.5 4.51518 1.5 4.5C1.5 3.90326 1.73705 3.33097 2.15901 2.90901ZM10.5 5.25C10.5 4.83579 10.8358 4.5 11.25 4.5C11.8467 4.5 12.419 4.73705 12.841 5.15901C13.2629 5.58097 13.5 6.15326 13.5 6.75C13.5 7.16421 13.1642 7.5 12.75 7.5C12.3358 7.5 12 7.16421 12 6.75C12 6.55109 11.921 6.36032 11.7803 6.21967C11.6397 6.07902 11.4489 6 11.25 6C10.8358 6 10.5 5.66421 10.5 5.25Z" fill="#2D322F"/>
</svg>
