<svg width="22" height="22" viewBox="0 0 22 22" fill="none" xmlns="http://www.w3.org/2000/svg">
<path d="M4.58333 3.66669H8.25L10.0833 8.25002L7.79167 9.62502C8.77338 11.6156 10.3844 13.2266 12.375 14.2084L13.75 11.9167L18.3333 13.75V17.4167C18.3333 17.9029 18.1402 18.3692 17.7964 18.713C17.4525 19.0569 16.9862 19.25 16.5 19.25C12.9243 19.0327 9.55181 17.5143 7.01876 14.9813C4.48571 12.4482 2.9673 9.07569 2.75 5.50002C2.75 5.01379 2.94315 4.54747 3.28697 4.20366C3.63079 3.85984 4.0971 3.66669 4.58333 3.66669Z" fill="#B1BCB5"/>
<path fill-rule="evenodd" clip-rule="evenodd" d="M4.58333 4.16669C4.22971 4.16669 3.89057 4.30716 3.64052 4.55721C3.3938 4.80393 3.25376 5.13739 3.25007 5.48591C3.46356 8.93367 4.92945 12.1848 7.37231 14.6277C9.81518 17.0706 13.0664 18.5365 16.5141 18.7499C16.8626 18.7463 17.1961 18.6062 17.4428 18.3595C17.6929 18.1094 17.8333 17.7703 17.8333 17.4167V14.0885L13.9597 12.5391L12.8037 14.4656C12.6699 14.6887 12.3872 14.7719 12.1538 14.6568C10.0646 13.6264 8.37363 11.9355 7.34324 9.84618C7.22814 9.6128 7.31129 9.33015 7.53442 9.19627L9.46095 8.04035L7.91148 4.16669H4.58333ZM2.93342 3.8501C3.371 3.41252 3.9645 3.16669 4.58333 3.16669H8.25C8.45445 3.16669 8.63831 3.29116 8.71424 3.48099L10.5476 8.06432C10.6387 8.29218 10.551 8.5525 10.3406 8.67877L8.45326 9.81116C9.32378 11.3817 10.6184 12.6762 12.1889 13.5468L13.3213 11.6594C13.4475 11.449 13.7078 11.3613 13.9357 11.4524L18.519 13.2858C18.7089 13.3617 18.8333 13.5456 18.8333 13.75V17.4167C18.8333 18.0355 18.5875 18.629 18.1499 19.0666C17.7123 19.5042 17.1188 19.75 16.5 19.75C16.4899 19.75 16.4798 19.7497 16.4697 19.7491C12.7721 19.5244 9.28461 17.9542 6.66521 15.3348C4.0458 12.7154 2.47562 9.22792 2.25092 5.53035C2.25031 5.52025 2.25 5.51014 2.25 5.50002C2.25 4.88118 2.49583 4.28769 2.93342 3.8501ZM17.9798 3.31313C18.175 3.11787 18.4916 3.11787 18.6869 3.31313C18.8821 3.5084 18.8821 3.82498 18.6869 4.02024L14.9571 7.75002H17.4167C17.6928 7.75002 17.9167 7.97388 17.9167 8.25002C17.9167 8.52616 17.6928 8.75002 17.4167 8.75002H13.75C13.4739 8.75002 13.25 8.52616 13.25 8.25002V4.58335C13.25 4.30721 13.4739 4.08335 13.75 4.08335C14.0261 4.08335 14.25 4.30721 14.25 4.58335V7.04291L17.9798 3.31313Z" fill="#B1BCB5"/>
</svg>
