<svg width="22" height="22" viewBox="0 0 22 22" fill="none" xmlns="http://www.w3.org/2000/svg">
<path fill-rule="evenodd" clip-rule="evenodd" d="M19.0833 8.23317L19.0833 5.70349C19.0833 5.44496 18.9502 5.20465 18.731 5.06758C16.4318 3.62987 13.8477 2.91666 11 2.91666C8.15214 2.91666 5.56812 3.63088 3.2692 5.06746C3.04989 5.20451 2.91665 5.44488 2.91665 5.70349L2.91665 8.23318C2.91641 8.24398 2.91641 8.25481 2.91665 8.26567L2.91665 13.7343C2.91641 13.7452 2.91641 13.756 2.91665 13.7668L2.91665 16.2965C2.91665 16.555 3.0498 16.7953 3.26901 16.9324C5.56817 18.3701 8.15231 19.0833 11 19.0833C13.8478 19.0833 16.4318 18.3691 18.7308 16.9325C18.9501 16.7955 19.0833 16.5551 19.0833 16.2965L19.0833 13.7668C19.0836 13.756 19.0836 13.7452 19.0833 13.7343L19.0833 8.26568C19.0836 8.25481 19.0836 8.24397 19.0833 8.23317ZM17.5833 13.1588L17.5833 8.84116C16.8608 8.67479 16.1386 8.53589 15.4167 8.42437L15.4167 13.5756C16.1386 13.4641 16.8608 13.3252 17.5833 13.1588ZM17.5833 14.6962C16.8613 14.8543 16.1391 14.9864 15.4167 15.0925L15.4167 16.8684C16.1684 16.6076 16.8904 16.2757 17.5833 15.873L17.5833 14.6962ZM13.9167 17.2859L13.9167 15.2753C12.9449 15.3695 11.9726 15.4167 11 15.4167C10.0273 15.4167 9.05511 15.3695 8.08332 15.2753L8.08332 17.2861C9.01329 17.4841 9.98512 17.5833 11 17.5833C12.0148 17.5833 12.9866 17.484 13.9167 17.2859ZM6.58332 16.8688L6.58332 15.0925C5.86088 14.9864 5.13866 14.8543 4.41665 14.6962L4.41665 15.8731C5.10958 16.276 5.83156 16.608 6.58332 16.8688ZM4.41665 13.1588C5.13921 13.3252 5.86141 13.4641 6.58332 13.5756L6.58332 8.42437C5.86141 8.53589 5.13921 8.67479 4.41665 8.84116L4.41665 13.1588ZM4.41665 7.3038C5.13866 7.14566 5.86088 7.01354 6.58332 6.90746L6.58332 5.13159C5.83158 5.39239 5.1096 5.72431 4.41665 6.12699L4.41665 7.3038ZM8.08332 4.7141L8.08332 6.72463C9.05511 6.63044 10.0273 6.58332 11 6.58332C11.9726 6.58332 12.9449 6.63044 13.9167 6.72463L13.9167 4.71384C12.9867 4.51587 12.0149 4.41666 11 4.41666C9.98516 4.41666 9.01333 4.51601 8.08332 4.7141ZM15.4167 5.13119L15.4167 6.90746C16.1391 7.01354 16.8613 7.14566 17.5833 7.3038L17.5833 6.12685C16.8904 5.72395 16.1684 5.39197 15.4167 5.13119ZM13.9167 8.23203C12.9441 8.13284 11.9719 8.08332 11 8.08332C10.028 8.08332 9.05587 8.13284 8.08332 8.23203L8.08332 13.768C9.05587 13.8671 10.028 13.9167 11 13.9167C11.9719 13.9167 12.9441 13.8671 13.9167 13.768L13.9167 8.23203Z" fill="#2D322F"/>
</svg>
