<svg width="22" height="22" viewBox="0 0 22 22" fill="none" xmlns="http://www.w3.org/2000/svg">
<path fill-rule="evenodd" clip-rule="evenodd" d="M11.3584 4.40434C9.51916 4.32977 7.72162 4.85251 6.30043 5.86077C4.88083 6.8679 3.94155 8.28333 3.62831 9.83089C3.31552 11.3762 3.64193 12.976 4.56299 14.3382C4.69359 14.5314 4.72693 14.7743 4.65319 14.9955L3.87604 17.327L6.90227 16.6831C7.06554 16.6483 7.23573 16.6691 7.3859 16.742C8.99054 17.521 10.867 17.7582 12.6617 17.4027C14.4563 17.0472 16.0256 16.1279 17.089 14.8378C18.1501 13.5505 18.6384 11.9802 18.4853 10.4177C18.3321 8.85396 17.5438 7.37359 16.2381 6.25996C14.9306 5.14468 13.1976 4.47891 11.3584 4.40434ZM5.4325 4.63738C7.13661 3.4284 9.26385 2.81819 11.4191 2.90557C13.5745 2.99296 15.6339 3.77306 17.2116 5.11871C18.7912 6.46601 19.7845 8.29417 19.9782 10.2714C20.172 12.2499 19.5486 14.2121 18.2465 15.7919C16.9466 17.3689 15.0616 18.4564 12.9532 18.8741C10.9321 19.2745 8.81786 19.0376 6.96833 18.2026L2.90609 19.0669C2.64299 19.1229 2.37006 19.0337 2.1908 18.8331C2.01155 18.6325 1.95344 18.3513 2.0385 18.0961L3.11678 14.8613C2.13276 13.2452 1.78735 11.3651 2.15812 9.53331C2.55296 7.58266 3.72681 5.84747 5.4325 4.63738Z" fill="#2D322F"/>
</svg>
