<svg width="26" height="26" viewBox="0 0 26 26" fill="none" xmlns="http://www.w3.org/2000/svg">
<path fill-rule="evenodd" clip-rule="evenodd" d="M12.9998 1.41663C13.414 1.41663 13.7498 1.75241 13.7498 2.16663V3.58329H15.1664C15.5143 3.58329 15.8165 3.82245 15.8964 4.16098C15.9763 4.49951 15.813 4.84856 15.5018 5.00411L13.7498 5.88015V8.77377L16.2937 10.2323L18.7907 8.79066L18.6734 6.8353C18.6525 6.48809 18.8731 6.17212 19.2063 6.07206C19.5394 5.97201 19.8976 6.11413 20.0715 6.41537L20.7799 7.64224L22.0067 6.9339C22.3655 6.72679 22.8241 6.8497 23.0313 7.20842C23.2384 7.56714 23.1155 8.02583 22.7567 8.23294L21.5299 8.94127L22.2382 10.1681C22.4121 10.4694 22.3561 10.8507 22.1029 11.0891C21.8497 11.3276 21.4657 11.3607 21.1754 11.169L19.5407 10.0897L17.0348 11.5365L17.0436 14.4688L19.5407 15.9105L21.1754 14.8311C21.4657 14.6395 21.8497 14.6726 22.1029 14.911C22.3561 15.1495 22.4121 15.5308 22.2382 15.832L21.5299 17.0589L22.7567 17.7672C23.1155 17.9743 23.2384 18.433 23.0313 18.7918C22.8241 19.1505 22.3655 19.2734 22.0067 19.0663L20.7799 18.3579L20.0715 19.5848C19.8976 19.886 19.5394 20.0282 19.2063 19.9281C18.8731 19.8281 18.6525 19.5121 18.6734 19.1649L18.7907 17.2095L16.2848 15.7627L13.7498 17.2365V20.1198L15.5018 20.9958C15.813 21.1514 15.9763 21.5004 15.8964 21.8389C15.8165 22.1775 15.5143 22.4166 15.1664 22.4166H13.7498V23.8333C13.7498 24.2475 13.414 24.5833 12.9998 24.5833C12.5856 24.5833 12.2498 24.2475 12.2498 23.8333V22.4166H10.8331C10.4853 22.4166 10.1831 22.1775 10.1032 21.8389C10.0232 21.5004 10.1866 21.1514 10.4977 20.9958L12.2498 20.1198V17.2262L9.70581 15.7676L7.20881 17.2093L7.32618 19.1646C7.34702 19.5118 7.12639 19.8278 6.79326 19.9279C6.46013 20.0279 6.10192 19.8858 5.928 19.5846L5.21967 18.3577L3.9928 19.066C3.63408 19.2731 3.17539 19.1502 2.96828 18.7915C2.76118 18.4328 2.88408 17.9741 3.2428 17.767L4.46967 17.0586L3.76134 15.8318C3.58742 15.5305 3.64344 15.1493 3.89666 14.9108C4.14988 14.6723 4.53383 14.6392 4.8241 14.8309L6.45881 15.9102L8.96476 14.4634L8.95591 11.5311L6.45881 10.0894L4.8241 11.1688C4.53383 11.3604 4.14988 11.3273 3.89666 11.0889C3.64344 10.8504 3.58742 10.4691 3.76134 10.1679L4.46967 8.94102L3.2428 8.23269C2.88408 8.02558 2.76118 7.56689 2.96828 7.20817C3.17539 6.84945 3.63408 6.72654 3.9928 6.93365L5.21967 7.64198L5.928 6.41511C6.10192 6.11388 6.46013 5.97175 6.79326 6.07181C7.12639 6.17186 7.34702 6.48784 7.32618 6.83505L7.20881 8.79041L9.71476 10.2372L12.2498 8.76341V5.88015L10.4977 5.00411C10.1866 4.84856 10.0232 4.49951 10.1032 4.16098C10.1831 3.82245 10.4853 3.58329 10.8331 3.58329H12.2498V2.16663C12.2498 1.75241 12.5856 1.41663 12.9998 1.41663ZM12.9908 10.0677L10.4559 11.5414L10.4648 14.4737L13.0087 15.9322L15.5436 14.4585L15.5347 11.5262L12.9908 10.0677Z" fill="#3DB36C"/>
</svg>
