<svg width="26" height="26" viewBox="0 0 26 26" fill="none" xmlns="http://www.w3.org/2000/svg">
<g clip-path="url(#clip0_303_1442)">
<path d="M6.00014 23.5299C5.60224 23.5309 5.20812 23.4527 4.84072 23.3C4.47332 23.1472 4.13999 22.9228 3.86014 22.6399C3.57513 22.3544 3.35066 22.0143 3.20014 21.6399C3.04612 21.2726 2.9668 20.8783 2.9668 20.4799C2.9668 20.0816 3.04612 19.6873 3.20014 19.3199C3.355 18.9479 3.57895 18.6086 3.86014 18.3199L11.3301 10.8199L9.33014 8.86995C8.99054 8.52244 8.8004 8.05584 8.8004 7.56995C8.8004 7.08405 8.99054 6.61745 9.33014 6.26995L12.2001 3.50995C12.5535 3.1817 13.0179 2.99927 13.5001 2.99927C13.9824 2.99927 14.4468 3.1817 14.8001 3.50995L23.0001 11.7299C23.1716 11.8992 23.3077 12.1009 23.4006 12.3232C23.4935 12.5455 23.5413 12.784 23.5413 13.0249C23.5413 13.2659 23.4935 13.5044 23.4006 13.7267C23.3077 13.949 23.1716 14.1507 23.0001 14.3199L20.2001 17.1199C19.8531 17.4566 19.3886 17.6448 18.9051 17.6448C18.4217 17.6448 17.9572 17.4566 17.6101 17.1199L15.6601 15.1699L8.16014 22.6399C7.87792 22.9252 7.54135 23.151 7.17033 23.3038C6.79931 23.4567 6.4014 23.5336 6.00014 23.5299ZM12.4201 11.9199L5.00014 19.4199C4.85653 19.5618 4.74413 19.7321 4.67014 19.9199C4.5912 20.1031 4.55037 20.3005 4.55014 20.4999C4.54922 20.6995 4.5901 20.8971 4.67014 21.0799C4.73938 21.2702 4.85243 21.4415 5.00014 21.5799C5.29292 21.8541 5.67902 22.0067 6.08014 22.0067C6.48126 22.0067 6.86736 21.8541 7.16014 21.5799L14.6601 14.1099L12.4201 11.9199ZM13.5001 4.46995C13.4107 4.47315 13.3254 4.50868 13.2601 4.56995L10.4601 7.36995C10.4017 7.43619 10.3697 7.52161 10.3701 7.60995C10.3692 7.65233 10.3766 7.69449 10.3921 7.73398C10.4075 7.77346 10.4306 7.80948 10.4601 7.83995L18.6801 16.0599C18.7108 16.0911 18.7474 16.1158 18.7878 16.1327C18.8281 16.1496 18.8714 16.1583 18.9151 16.1583C18.9589 16.1583 19.0022 16.1496 19.0425 16.1327C19.0828 16.1158 19.1194 16.0911 19.1501 16.0599V16.0599L21.9501 13.2599C21.9824 13.2311 22.0081 13.1956 22.0253 13.1559C22.0426 13.1162 22.0511 13.0732 22.0501 13.0299C22.0518 12.9851 22.0438 12.9404 22.0265 12.899C22.0092 12.8575 21.9832 12.8203 21.9501 12.7899L13.7401 4.56995C13.6749 4.50868 13.5896 4.47315 13.5001 4.46995V4.46995Z" fill="#3DB36C"/>
</g>
<defs>
<clipPath id="clip0_303_1442">
<rect width="20.55" height="20.53" fill="white" transform="translate(3 3)"/>
</clipPath>
</defs>
</svg>
