<svg width="24" height="24" viewBox="0 0 24 24" fill="none" xmlns="http://www.w3.org/2000/svg">
<path d="M9 17C9 18.1046 8.10457 19 7 19C5.89543 19 5 18.1046 5 17M9 17C9 15.8954 8.10457 15 7 15C5.89543 15 5 15.8954 5 17M9 17H15M5 17H3V6C3 5.73478 3.10536 5.48043 3.29289 5.29289C3.48043 5.10536 3.73478 5 4 5H13V17M19 17C19 18.1046 18.1046 19 17 19C15.8954 19 15 18.1046 15 17M19 17C19 15.8954 18.1046 15 17 15C15.8954 15 15 15.8954 15 17M19 17H21V11M21 11H13M21 11L18 6H13" stroke="#2D322F" stroke-width="1.5" stroke-linecap="round" stroke-linejoin="round"/>
</svg>
