<svg width="100" height="100" viewBox="0 0 100 100" fill="none" xmlns="http://www.w3.org/2000/svg">
<path d="M47.5581 41.6664L16.7956 72.5747C15.9804 73.3845 15.3334 74.3475 14.8919 75.4084C14.4504 76.4692 14.2231 77.6069 14.2231 78.7559C14.2231 79.905 14.4504 81.0427 14.8919 82.1035C15.3334 83.1644 15.9804 84.1274 16.7956 84.9372C18.443 86.5758 20.6721 87.4956 22.9956 87.4956C25.3192 87.4956 27.5482 86.5758 29.1956 84.9372L60.0581 54.1664M75.504 63.7205L86.279 52.9455C87.0601 52.1642 87.4989 51.1045 87.4989 49.9997C87.4989 48.8948 87.0601 47.8352 86.279 47.0539L54.6706 15.4455C53.8893 14.6644 52.8296 14.2256 51.7248 14.2256C50.6199 14.2256 49.5603 14.6644 48.779 15.4455L38.004 26.2205C37.2228 27.0019 36.784 28.0615 36.784 29.1664C36.784 30.2712 37.2228 31.3308 38.004 32.1122L69.6123 63.7205C70.3937 64.5017 71.4533 64.9405 72.5581 64.9405C73.663 64.9405 74.7226 64.5017 75.504 63.7205Z" stroke="#B1BCB5" stroke-width="2" stroke-linecap="round" stroke-linejoin="round"/>
</svg>
