<svg width="532" height="390" viewBox="0 0 532 390" fill="none" xmlns="http://www.w3.org/2000/svg">
<path fill-rule="evenodd" clip-rule="evenodd" d="M214.655 -14.4432C213.165 -13.547 211.772 -12.2642 211.561 -11.5921C211.349 -10.92 210.548 -9.79692 209.781 -9.0971L208.386 -7.82443L207.912 -9.73051L207.437 -11.6366H203.434H199.431L198.627 -12.7144L197.824 -13.7915L188.036 -14.276L178.247 -14.7613L177.284 -12.6516L176.321 -10.542L175.635 0.768961C175.259 6.98997 174.693 12.7367 174.379 13.5394C174.065 14.3421 174.072 15.9701 174.395 17.1574L174.982 19.316L173.927 22.448C173.347 24.1709 172.665 26.8936 172.41 28.499C171.928 31.5362 170.779 32.1966 169.237 30.3233C168.741 29.7213 167.897 29.2287 167.362 29.2287H166.388L166.833 27.9517C167.077 27.249 168.048 25.8318 168.99 24.8014L170.701 22.9289L171.166 13.6729L171.632 4.41765H170.885C169.318 4.41765 161.537 25.8099 160.234 33.7006L159.796 36.3488L162.345 39.4254C165.391 43.1011 165.351 41.9466 162.643 47.9516C160.17 53.4327 158.447 59.6814 158.407 63.3075C158.393 64.5918 157.941 65.9054 157.401 66.2264C156.06 67.0255 155.518 69.9255 155.122 78.4204L154.787 85.6521L158.073 91.938C159.882 95.3955 163.159 100.351 165.356 102.95C170.096 108.558 171.759 111.6 172.745 116.469C173.147 118.456 173.794 121.395 174.181 123C175.321 127.715 176.474 136.256 176.474 139.98C176.475 147.554 179.496 158.392 181.607 158.392C183.492 158.392 187.31 169.878 187.324 175.591C187.339 181.649 192.348 190.786 197.1 193.424C198.294 194.087 200.701 196.41 202.448 198.586C204.196 200.761 207.24 203.691 209.214 205.096L212.803 207.65L218.584 207.697L224.366 207.745L229.369 213.035L234.372 218.325V220.187V222.047L237.046 224.518C240.085 227.323 240.638 227.446 242.942 225.819C243.852 225.176 244.769 224.823 244.98 225.035C245.19 225.247 244.355 225.946 243.124 226.588L240.885 227.755V229.097C240.885 229.836 241.56 231.305 242.385 232.362C243.21 233.42 243.566 234.285 243.176 234.285C242.785 234.285 241.866 233.331 241.133 232.166C238.563 228.082 231.345 219.613 230.637 219.851C229.634 220.188 230.196 221.537 231.288 221.415C231.781 221.36 232.012 221.596 231.801 221.941C231.251 222.838 232.889 225.78 239.949 236.576L246.187 246.119L246.014 259.313L245.841 272.507L244.811 273.992C244.244 274.807 243.78 276.99 243.78 278.841C243.78 280.692 243.156 284.15 242.395 286.523C241.633 288.897 239.999 294.395 238.764 298.741C237.529 303.086 235.711 307.842 234.722 309.309C232.43 312.71 232.457 314.08 234.857 315.984L236.791 317.517L235.958 318.357L235.124 319.197L233.335 318.231C232.351 317.701 231.222 316.328 230.825 315.182C230.429 314.034 229.762 313.097 229.343 313.097H228.582V317.11V321.124H227.496C226.899 321.124 226.411 321.379 226.411 321.69C226.411 322.003 224.654 324.481 222.506 327.198L218.6 332.14L211.965 336.43C204.657 341.155 197.685 344.297 185.32 348.442L177.159 351.177L174.492 354.394L171.825 357.611H170.169H168.513V358.994C168.513 361.665 160.79 367.097 156.993 367.097C156.204 367.097 155.298 367.508 154.98 368.01C154.661 368.512 153.457 369.589 152.304 370.404L150.207 371.886L149.183 375.512C148.62 377.506 147.977 380.054 147.756 381.173L147.353 383.209L148.555 384.548L149.757 385.887L153.011 386.257C154.801 386.461 158.403 387.688 161.016 388.985L165.766 391.344L167.834 389.802C170.82 387.576 171.408 387.861 171.408 391.536C171.408 393.337 172.06 396.539 172.855 398.651C174.585 403.238 174.553 402.855 173.195 402.855C171.775 402.855 171.023 404.791 171.987 405.965C172.395 406.462 172.838 407.853 172.973 409.057L173.218 411.247L175.353 411.492L177.488 411.737L178.394 410.488L179.3 409.239L180.42 409.672C182.087 410.318 183.711 409.448 183.711 407.909C183.711 406.625 193.65 392.566 195.274 391.555C195.693 391.293 196.521 389.912 197.111 388.485L198.186 385.892L199.364 386.878L200.541 387.863L202.521 385.473L204.5 383.082L207.132 384.648C210.251 386.504 210.237 386.347 207.947 393.578C206.957 396.704 206.147 399.542 206.147 399.884C206.147 400.227 209.484 400.366 213.565 400.193L220.983 399.878L224.909 401.549L228.835 403.219L229.524 405.409C230.52 408.571 232.666 410.652 237.123 412.779C239.281 413.808 242.394 415.864 244.041 417.348C245.689 418.832 247.967 420.521 249.104 421.102L251.172 422.158L252.904 420.127C254.746 417.969 255.177 415.99 253.806 415.99C253.35 415.99 253.839 415.184 254.892 414.2C257.333 411.919 257.522 412.486 252.402 406.721C249.979 403.992 247.697 400.992 247.33 400.055L246.663 398.349L248.043 395.202C248.803 393.472 250.026 391.414 250.763 390.628C252.667 388.601 256.13 382.009 257.71 377.403L259.058 373.48L257.522 371.831L255.986 370.183L256.492 367.363C256.77 365.812 257.293 363.965 257.655 363.26L258.312 361.975L256.445 361.259L254.578 360.544L255.303 359.178C256.135 357.609 257.366 357.082 267.301 354.041C271.281 352.822 275.304 351.28 276.239 350.612C277.989 349.363 287.479 335.372 288.261 332.888C288.501 332.123 289.339 331.329 290.122 331.123L291.545 330.747L291.556 328.672C291.574 325.517 292.263 324.999 296.973 324.602L301.316 324.236L303.368 325.694L305.421 327.151L309.158 327.061C311.213 327.011 314.033 326.641 315.423 326.236C316.814 325.833 318.012 325.502 318.087 325.502C318.162 325.502 318.327 326.241 318.453 327.144L318.685 328.786L321.218 329.001L323.751 329.216L326.822 326.06L329.892 322.903L329.24 320.607L328.586 318.311L329.606 317.916C331.157 317.315 330.917 315.69 327.008 300.326C325.017 292.506 323.389 285.198 323.389 284.088V282.069L324.911 281.111L326.432 280.153L325.944 276.867L325.455 273.581L326.774 273.8C327.5 273.921 328.501 273.762 328.998 273.447L329.902 272.875V269.372C329.902 267.444 329.69 264.304 329.431 262.395L328.958 258.921L325.165 259.371L321.371 259.821L322.004 257.086C322.353 255.583 322.853 250.576 323.116 245.961L323.594 237.569L327.437 233.118L331.28 228.668L336.84 228.193L342.4 227.72L344.823 229.229C347.437 230.859 348.719 230.609 348.719 228.471V227.122L352.424 228.317C354.462 228.973 356.311 230.01 356.532 230.621C357.401 233.008 361.104 233.638 363.172 231.75C363.821 231.158 365.638 230.406 367.21 230.078L370.069 229.483L370.32 227.716C370.458 226.745 371.109 225.542 371.767 225.043L372.964 224.136L373.815 225.263L374.667 226.39L376.348 225.876C377.273 225.593 379.088 224.716 380.382 223.926L382.734 222.49L382.707 219.448C382.667 214.862 380.934 206.725 379.688 205.279C379.083 204.577 378.394 202.687 378.156 201.082L377.726 198.163L375.372 196.156L373.019 194.15L369.192 194.028C367.086 193.961 364.823 193.879 364.16 193.845L362.957 193.785L361.808 197.228C361.177 199.122 360.143 201.191 359.511 201.827L358.362 202.983L356.435 202.098C355.376 201.611 354.509 200.784 354.509 200.261C354.509 199.156 352.273 197.798 350.452 197.798C349.761 197.798 348.675 197.324 348.04 196.744L346.885 195.691L343.697 197.13L340.507 198.57L339.911 197.637C339.582 197.123 339.326 195.226 339.342 193.42C339.392 187.588 339.306 186.852 338.579 186.852C338.185 186.852 337.863 186.412 337.863 185.875C337.863 184.877 334.951 183.203 333.213 183.203C332.683 183.203 331.827 184.27 331.313 185.575C330.798 186.88 330.303 188.05 330.213 188.177C330.122 188.304 328.035 187.382 325.572 186.128L321.095 183.849L321.543 182.673C321.789 182.026 321.648 181.282 321.229 181.021L320.467 180.546L321.566 177.405C323.178 172.797 322.963 171.652 319.841 168.236L317.017 165.147L316.543 159.398C316.284 156.236 315.629 152.336 315.089 150.73C314.549 149.125 313.959 145.425 313.777 142.508L313.449 137.206L321.856 130.85C326.481 127.354 332.034 122.516 334.196 120.099C344.92 108.108 360.912 90.7223 368.974 82.288C374.976 76.0079 376.788 73.7428 375.806 73.7428C375.539 73.7428 375.722 73.2546 376.212 72.6576C377.371 71.25 376.686 69.5278 374.611 68.6309C373.705 68.2398 372.308 67.4356 371.508 66.8438L370.051 65.7682L364.994 69.3169L359.937 72.8663L353.837 79.8397L347.738 86.8131L344.856 84.1882L341.974 81.5626L340.1 83.862C338.101 86.3132 337.14 86.7445 337.14 85.1901C337.14 84.6633 336.226 83.3497 335.11 82.2712L333.08 80.3104H330.775H328.469L325.843 76.3209C324.398 74.1273 322.999 71.2536 322.733 69.9357L322.25 67.54L320.467 67.3349C319.487 67.2218 317.116 66.4162 315.199 65.5449L311.712 63.9606L310.494 64.7444L309.276 65.5274V67.8727V70.2174L307.568 71.6156L305.859 73.013H302.683C300.936 73.013 299.506 72.6846 299.506 72.2833C299.506 71.374 294.449 71.3397 293.038 72.2395L291.998 72.9028L291.953 81.532L291.907 90.1618L293.584 92.5328L295.262 94.9037L293.356 95.6342C290.817 96.6076 290.971 96.6558 288.979 94.2688C288.017 93.1166 285.189 90.95 282.694 89.4555C266.448 79.7237 259.999 72.8123 267.946 73.653L270.041 73.8748L269.599 71.6477L269.158 69.4212L269.997 68.8973C270.459 68.6098 273.298 68.396 276.306 68.4222L281.775 68.4704L283.109 67.2838C283.842 66.6307 284.741 65.5339 285.106 64.8458L285.77 63.595L282.921 60.8242L280.072 58.0534L285.887 51.1209C289.085 47.308 293.009 42.6282 294.607 40.7221L297.513 37.2559H307.514H317.514L317.961 37.9856C318.207 38.387 319.04 38.7153 319.813 38.7153H321.218V36.81V34.9039L327.188 35.1681C333.566 35.4497 333.521 35.4709 333.521 32.1477V29.9585H329.426H325.332L321.646 27.1256C319.62 25.5676 316.919 23.7615 315.645 23.1121L313.329 21.9314H306.712H300.094L302.84 18.1002C304.351 15.9928 306.906 12.3331 308.517 9.96731L311.448 5.66477L310.543 5.34515L309.638 5.02552V-3.3453V-11.7169L306.201 -11.4943L302.763 -11.2717L302.55 -6.79404L302.337 -2.3171L300.921 -1.02619L299.506 0.265442V3.33399V6.40181L294.271 6.53535L289.036 6.66816L286.031 8.44361C284.378 9.42073 281.182 12.0339 278.93 14.2509L274.835 18.2827L272.877 18.271L270.919 18.2593L268.469 16.0818C265.843 13.7473 265.109 13.4861 264.406 14.634C264.16 15.0353 263.333 15.3637 262.568 15.3637C261.803 15.3637 259.057 16.4182 256.465 17.7062L251.755 20.0486L248.223 16.0643C246.281 13.8729 242.421 10.5197 239.645 8.61364L234.597 5.14739H232.659H230.722L229.89 3.30553C228.954 1.2338 226.154 0.199036 224.724 1.39654L223.779 2.18684L222.143 1.03167L220.507 -0.123509L221.013 -3.87363C221.291 -5.93587 222.315 -9.21531 223.289 -11.1615C225.374 -15.3269 225.427 -15.2269 220.9 -15.7012L217.364 -16.0719L214.655 -14.4432ZM222.792 -13.7966C222.792 -13.3792 222.075 -11.6556 221.199 -9.96548C220.322 -8.27614 219.672 -6.64372 219.753 -6.33942C219.835 -6.03512 219.609 -4.47494 219.252 -2.87316L218.603 0.0399513L220.799 1.90297L222.995 3.76599L224.16 3.27926C226.581 2.26857 227.858 2.0803 227.858 2.7356C227.858 4.09583 230.854 6.60686 232.477 6.60686C234.792 6.60686 243.739 13.1037 247.519 17.5289C251.205 21.8445 251.349 21.8664 256.997 18.973C259.39 17.747 261.76 16.9035 262.264 17.0983C262.767 17.2931 263.774 17.0144 264.501 16.4788L265.822 15.5046L268.215 17.6237L270.608 19.7421H273.1H275.592L279.511 15.7899C281.667 13.6167 284.794 10.9291 286.459 9.81771L289.487 7.79706L295.04 7.74891L300.592 7.70147L300.809 3.90756L301.027 0.114386L302.437 -0.337321L303.849 -0.789029L303.934 -4.9354C303.982 -7.21656 303.982 -9.32842 303.934 -9.6298C303.887 -9.93119 304.807 -10.1771 305.977 -10.1771H308.106L308.329 -1.27139L308.553 7.63506L303.306 14.9383C296.781 24.0191 296.585 23.3908 305.944 23.3908H313.829L319.377 27.4044L324.925 31.418H328.499H332.074V32.8592V34.3004L326.141 34.1362L320.21 33.972L319.7 35.7964C319.42 36.7998 319.159 37.2106 319.119 36.7086L319.047 35.7964H307.922H296.797L288.164 46.1951C283.417 51.9148 279.257 57.0493 278.922 57.6053L278.311 58.6167L281.345 61.2766L284.377 63.9365L282.555 65.6631L280.732 67.3897L279.657 66.4899C279.066 65.9951 278.188 65.8353 277.707 66.1352C276.241 67.0489 272.401 67.0861 271.811 66.1929L271.255 65.3508L269.403 67.4648L267.549 69.5781L267.899 70.9274L268.249 72.276L266.597 71.8586L264.947 71.4404L263.409 73.6165C262.564 74.8133 261.873 75.9721 261.873 76.191C261.873 76.8529 275.515 86.843 281.023 90.2144C283.853 91.9468 287.055 94.3681 288.139 95.5948C290.394 98.1467 290.688 98.2043 294.102 96.7667C296.967 95.559 297.153 94.8147 295.265 92.0986C293.39 89.4044 292.805 85.3872 293.381 79.1822L293.874 73.8829L295.786 73.5041C296.836 73.2954 298.007 73.4282 298.385 73.7989C298.762 74.1696 300.841 74.4725 303.003 74.4725H306.935L309.397 71.8403L311.858 69.2082L310.996 68.161L310.134 67.1131L310.853 66.3885L311.571 65.6646L315.007 67.1496C316.897 67.9661 319.068 68.6346 319.83 68.6346H321.218V70.3772C321.218 74.1135 327.481 81.7699 330.537 81.7699C332.645 81.7699 335.692 84.3867 335.692 86.1972C335.692 86.8875 336.211 87.6523 336.846 87.8982L338 88.3448L340.135 86.0403L342.27 83.7358L344.624 86.0366C347.79 89.13 348.147 88.8885 358.871 76.4194C360.194 74.8811 363.225 72.2891 365.606 70.6581L369.936 67.6932L371.089 68.5302C371.722 68.9907 372.962 69.6832 373.844 70.0685L375.45 70.7698L374.568 72.8766C374.084 74.0361 369.425 79.5485 364.215 85.1274C359.006 90.7055 348.937 101.673 341.839 109.5L328.935 123.73L320.351 130.212L311.767 136.694L312.212 142.253C312.457 145.31 313.135 149.344 313.719 151.219C314.91 155.037 315.225 157.174 315.346 162.24L315.428 165.723L318.46 169.039L321.492 172.356L320.516 175.773C319.979 177.652 319.51 180.33 319.474 181.724L319.409 184.259L324.11 187.015C326.695 188.531 329.357 189.771 330.024 189.771H331.238L332.087 187.177L332.936 184.583L334.055 184.805C334.671 184.928 335.536 185.685 335.977 186.487C336.417 187.29 336.941 188.111 337.14 188.312C337.509 188.684 337.534 188.929 337.742 194.375C337.809 196.104 338.3 198.121 338.834 198.858L339.805 200.197L343.21 198.885L346.615 197.574L347.45 198.416C347.909 198.879 349.205 199.258 350.329 199.258H352.374L353.027 200.992L353.682 202.728L356.068 203.566L358.455 204.405L360.28 203.03C361.284 202.275 362.459 200.378 362.892 198.815L363.68 195.974L368.236 195.754L372.791 195.535L374.495 197.148C375.432 198.035 376.396 199.94 376.639 201.381C376.881 202.822 377.653 204.827 378.355 205.836C379.649 207.699 381.286 215.359 381.286 219.553V221.85L378.326 223.373L375.365 224.896L374.457 223.645L373.55 222.393L371.267 223.753L368.983 225.113V226.78V228.447L367.355 228.45C366.46 228.452 364.66 229.108 363.357 229.91C360.3 231.789 359.264 231.745 357.923 229.683L356.829 227.998L352.423 226.764C346.994 225.241 347.272 225.229 347.272 226.988C347.272 228.739 346.998 228.778 344.821 227.34L343.145 226.232L336.864 226.72L330.583 227.207L326.371 232.023L322.158 236.839L321.686 245.385C321.427 250.085 320.858 255.608 320.422 257.659C319.451 262.222 319.502 262.277 323.63 261.164C327.838 260.029 328.013 260.24 328.344 266.848L328.617 272.312L326.546 272.089L324.475 271.867L324.688 275.969L324.902 280.071L323.422 280.461L321.942 280.852V283.448C321.942 285.605 326.586 305.212 329.082 313.597L329.775 315.923L328.341 316.883L326.907 317.843L327.71 319.971L328.511 322.099L325.803 324.895L323.095 327.692H321.517H319.939L319.561 326.232L319.182 324.773L316.763 324.805C315.432 324.822 312.877 325.133 311.086 325.496L307.829 326.156L304.21 324.41L300.592 322.664L295.888 323.171L291.184 323.678L290.502 326.779C290.127 328.485 289.411 329.881 288.912 329.881C288.412 329.881 287.195 331.502 286.208 333.483C279.053 347.847 275.763 350.496 259.887 354.668C254.78 356.01 251.66 360.383 254.656 362C255.463 362.436 255.959 363.06 255.758 363.388C255.557 363.716 255.333 365.688 255.26 367.769L255.127 371.555L256.249 372.685L257.37 373.816L256.156 377.206C254.772 381.073 250.942 388.082 249.308 389.739C248.703 390.352 247.539 392.43 246.719 394.358L245.229 397.864L245.706 399.812C245.968 400.884 248.085 403.86 250.409 406.427C254.266 410.685 255.574 413.071 254.05 413.071C253.728 413.071 252.878 413.504 252.161 414.033L250.857 414.994L252.106 416.254L253.356 417.514L252.069 418.947L250.782 420.38L249.453 419.166C248.721 418.499 248.122 418.234 248.122 418.579C248.122 418.923 246.901 418.005 245.408 416.537C243.916 415.07 240.252 412.612 237.267 411.074L231.839 408.28L231.141 405.456L230.444 402.632L225.891 400.484L221.338 398.335L214.579 398.588L207.821 398.841L209.589 393.003C210.561 389.792 211.363 387.001 211.37 386.8C211.428 385.29 211.073 384.611 210.225 384.611C209.681 384.611 208.409 383.954 207.397 383.152C204.939 381.203 203.532 381.313 202.067 383.566L200.849 385.441L199.21 385.026L197.571 384.611L195.888 387.458C194.962 389.023 191.656 393.665 188.541 397.773C185.426 401.882 182.6 405.978 182.261 406.876L181.644 408.51L179.792 408.153L177.94 407.796L177.491 408.974C177.245 409.622 176.426 410.152 175.673 410.152H174.303V408.109C174.303 406.985 173.912 405.671 173.435 405.19C172.313 404.059 173.201 404.064 175.004 405.198C177.277 406.63 177.343 405.537 175.257 400.959L173.294 396.652L172.99 392.273C172.822 389.865 172.353 387.479 171.948 386.971L171.212 386.048L168.165 387.848L165.118 389.649L163.553 388.544C161.758 387.277 152.104 383.844 151.012 384.085C150.613 384.174 149.938 383.716 149.514 383.067L148.741 381.888L150.124 377.4L151.506 372.912L154.039 370.882C155.432 369.765 157.943 368.447 159.618 367.954C163.207 366.897 168.576 362.985 169.59 360.689C169.982 359.799 170.677 359.07 171.132 359.07C171.588 359.07 173.383 357.594 175.122 355.791L178.284 352.511L187.33 349.321C208.592 341.823 219.476 335.085 225.507 325.686C227.797 322.118 228.002 322.072 232.662 324.086L236.138 325.588L237.067 324.308C238.225 322.71 237.763 322.302 233.467 321.136L230.029 320.204V319.205C230.029 317.888 231.076 317.933 232.201 319.3C233.146 320.448 234.918 320.697 236.845 319.951C238.631 319.26 238.193 316.6 236 314.821L234.01 313.206L235.307 311.145C236.02 310.011 237.065 308.098 237.631 306.894C239.506 302.898 245.227 282.12 245.227 279.306C245.227 277.783 245.694 275.628 246.264 274.517L247.3 272.496L247.46 259.046L247.621 245.595L244.208 240.228C241.111 235.355 240.037 232.591 242.318 235.362C245.171 238.828 246.857 235.807 244.142 232.096C243.147 230.736 242.333 229.411 242.333 229.152C242.333 228.893 243.147 228.307 244.142 227.85L245.951 227.019V225.179V223.339H244.592C243.845 223.339 242.828 223.832 242.333 224.434C241.055 225.985 240.334 225.815 237.935 223.395L235.819 221.262V219.428V217.595L230.934 212.513C228.248 209.717 225.342 207.071 224.478 206.632L222.907 205.836L218.516 206.298L214.126 206.761L211.04 204.732C209.344 203.616 207.142 201.702 206.147 200.477C203.792 197.58 198.964 192.835 195.866 190.375C194.515 189.302 192.562 186.839 191.526 184.902L189.642 181.379L188.814 175.906C188.359 172.896 187.499 168.267 186.902 165.62L185.817 160.807L183.028 157.88L180.238 154.953L179.435 151.017C178.993 148.852 178.318 143.798 177.934 139.784C176.791 127.847 175.96 122.204 175.108 120.598C174.665 119.764 174.303 118.464 174.303 117.707C174.303 116.951 173.816 114.679 173.221 112.658L172.139 108.984L167.109 102.881C164.343 99.5244 160.759 94.1273 159.145 90.8872L156.21 84.9975V78.594V72.1913L157.935 68.4062C158.884 66.3242 159.988 62.4442 160.388 59.7829C160.789 57.1222 162.318 52.2607 163.787 48.9806L166.458 43.0157L165.364 41.3329C164.763 40.4076 163.708 39.0824 163.02 38.3891L161.77 37.1282L161.886 34.029C161.95 32.3243 163.744 25.7391 165.873 19.3955L169.743 7.86128L170.226 10.9072L170.709 13.9531L169.973 15.3404C169.569 16.1029 169.237 17.9623 169.237 19.4721V22.2167L167.553 24.0804C164.13 27.8692 163.254 34.2617 166.432 32.2608L167.903 31.334L168.892 32.1616C169.436 32.6169 170.605 32.8818 171.489 32.7512L173.097 32.5126L174.046 27.7693C174.568 25.1604 175.392 22.2692 175.878 21.3439L176.762 19.6619L175.91 17.3866L175.058 15.1105L175.682 14.3253C176.026 13.8926 176.534 8.94202 176.812 3.32304C177.091 -2.29594 177.668 -8.33671 178.094 -10.1005L178.87 -13.307L187.875 -12.8779L196.881 -12.4488L197.714 -11.3425L198.548 -10.2362L202.528 -10.0239L206.509 -9.81224L206.74 -8.17033C207.109 -5.54546 212.66 -7.75146 212.66 -10.523C212.66 -11.0564 213.718 -12.1766 215.012 -13.0121L217.364 -14.5307L220.078 -14.5431C221.571 -14.5497 222.792 -14.214 222.792 -13.7966ZM226.913 215.778C226.335 216.361 226.988 217.501 227.901 217.501C228.276 217.501 228.582 217.009 228.582 216.407C228.582 215.278 227.728 214.957 226.913 215.778ZM228.251 218.18C227.716 219.054 229.077 219.919 230.041 219.318C230.851 218.814 230.319 217.501 229.306 217.501C228.955 217.501 228.48 217.807 228.251 218.18ZM215.268 223.014L215.732 224.879L214.286 226.481C212.108 228.895 211.211 231.01 211.23 233.69C211.247 236.092 211.978 238.064 217.547 250.717C219.14 254.335 221.018 259.754 221.72 262.757C222.421 265.761 223.436 268.697 223.974 269.281L224.953 270.344L225.796 269.494C229.091 266.172 232.304 249.37 230.812 243.264C229.877 239.439 223.52 226.348 221.066 223.197L219.535 221.231L217.17 221.19L214.804 221.15L215.268 223.014ZM220.871 225.711C221.982 227.416 224.35 231.816 226.134 235.488L229.377 242.163L229.805 247.301L230.232 252.439L227.838 260.146C224.962 269.407 224.989 269.397 223.032 261.833C222.176 258.521 219.492 251.319 217.068 245.828L212.66 235.844V233.341V230.837L214.831 228.082C216.025 226.567 217.002 224.716 217.002 223.968C217.002 221.669 218.75 222.455 220.871 225.711ZM239.076 231.366C239.322 231.767 239.36 232.096 239.161 232.096C238.962 232.096 238.598 231.767 238.352 231.366C238.106 230.965 238.068 230.636 238.267 230.636C238.466 230.636 238.83 230.965 239.076 231.366ZM208.4 241.315L206.713 242.506L207.111 244.98L207.509 247.453L206.828 247.029C206.453 246.796 206.147 245.967 206.147 245.188V243.772H204.844C204.128 243.772 203.196 244.12 202.774 244.545L202.008 245.318L203.729 249.617L205.451 253.916L204.983 256.87L204.514 259.826H201.712H198.909V261.304V262.781L200.649 263.448C201.605 263.815 202.601 264.463 202.862 264.889L203.337 265.664H210.532C214.489 265.664 217.726 265.484 217.726 265.262C217.726 265.042 217.183 263.811 216.52 262.526L215.313 260.191L215.124 255.083L214.935 249.974L213.074 246.385C212.05 244.41 211.213 242.193 211.213 241.459C211.213 239.811 210.575 239.779 208.4 241.315ZM210.489 244.026C210.489 244.519 211.162 246.224 211.985 247.814L213.48 250.704L213.662 255.812C213.762 258.622 214.24 261.659 214.725 262.562L215.606 264.204H209.833H204.061L203.583 263.424C203.319 262.994 202.404 262.358 201.55 262.01L199.995 261.378L202.695 261.331L205.395 261.285L205.771 259.461C205.977 258.458 206.312 256.829 206.515 255.842C206.718 254.854 206.37 252.638 205.744 250.916C204.027 246.201 203.751 244.52 205.201 247.603C206.625 250.633 207.357 250.946 208.698 249.096L209.6 247.852L208.864 246.224C208.036 244.39 208.644 241.979 209.76 242.674C210.161 242.924 210.489 243.532 210.489 244.026Z" fill="#818683"/>
<circle cx="266" cy="204" r="265.5" stroke="#D2D9D5"/>
<circle cx="266" cy="204" r="3.82734" fill="#2D322F"/>
</svg>
