<svg width="245" height="316" viewBox="0 0 245 316" fill="none" xmlns="http://www.w3.org/2000/svg">
<path fill-rule="evenodd" clip-rule="evenodd" d="M114.676 2.81901C110.934 4.35849 107.872 5.79891 107.872 6.01884C107.872 6.23926 114.441 6.41956 122.47 6.41956C130.498 6.41956 137.067 6.24272 137.067 6.02676C137.067 5.52796 123.495 -0.0266515 122.341 9.62849e-05C121.867 0.0104982 118.419 1.27904 114.676 2.81901ZM128.16 3.18209L133.356 5.35509L127.913 5.51608C124.919 5.60425 120.068 5.56511 117.132 5.4289L111.795 5.18123L116.885 3.09689C123.048 0.573687 121.904 0.564769 128.16 3.18209ZM115.913 11.2054L115.295 11.4556V28.2551C115.295 37.4955 115.127 45.0572 114.924 45.0601C114.72 45.0626 111.769 45.3786 108.367 45.762C61.1369 51.0858 21.714 83.4798 6.14773 129.756L3.39897 137.929L1.71161 148.579L0.0242464 159.228L0.0118759 167.472L0 175.716L1.7121 186.295L3.4242 196.873L6.34665 205.789C14.3015 230.058 28.9711 250.479 49.5876 265.981C51.843 267.678 53.7491 269.219 53.8228 269.407C53.8961 269.595 49.7554 279.921 44.62 292.355L35.2841 314.963L35.8022 315.481L36.3203 316H122.584H208.848L209.134 315.254C209.291 314.844 205.326 304.28 200.321 291.777L191.222 269.047L196.882 264.909C233.824 237.898 252.459 187.12 242.21 141.397C236.99 118.109 226.608 99.1396 209.017 80.754L203.127 74.5976L198.087 70.844C185.607 61.5472 169.013 53.0092 157.193 49.8034C148.238 47.3743 135.586 45.1478 130.263 45.0651L129.645 45.0552V27.9664V10.8775L123.088 10.9166C119.482 10.9379 116.254 11.0682 115.913 11.2054ZM128.655 28.4617V45.0552H125.686H122.717L122.66 44.1884L122.602 43.3215L122.376 44.1884L122.15 45.0552H119.217H116.284V28.4617V11.8682H122.47H128.655V28.4617ZM122.222 48.2748V50.5038H114.058H105.893V48.8058V47.1078L108.738 46.7973C110.303 46.6264 112.029 46.4178 112.573 46.3336C113.117 46.2494 115.511 46.1504 117.893 46.1132L122.222 46.0458V48.2748ZM137.191 46.8379L139.046 47.1663V48.835V50.5038H130.882H122.717V48.2V45.8963L129.026 46.2034C132.496 46.3718 136.17 46.6576 137.191 46.8379ZM104.903 47.4689C104.903 48.1589 100.544 51.9898 99.7591 51.9898C99.3672 51.9898 98.6383 52.1191 98.14 52.2776C97.6413 52.4356 98.243 51.6 99.4771 50.4201C101.846 48.1545 100.798 48.7325 98.1598 51.1462C97.3087 51.9249 95.75 52.7521 94.696 52.9844L92.7801 53.4064L95.0236 51.336C97.6403 48.9212 96.71 49.4601 93.6445 52.1349C92.4871 53.1449 91.0502 53.9711 90.4514 53.9711H89.3628L91.3174 51.866L93.2714 49.7608L90.7993 52.0492C89.439 53.3079 87.5483 54.5967 86.5972 54.9137L84.8673 55.4903L87.3206 52.9973C89.7557 50.5226 90.1506 50.2799 92.5327 49.796C93.2131 49.6578 94.605 49.3383 95.6253 49.0857C96.6462 48.8336 97.4809 48.7226 97.4809 48.8395C97.4809 48.9569 97.8704 48.8469 98.3469 48.5958C98.8234 48.3447 100.195 48.0039 101.395 47.8389C102.595 47.674 103.69 47.4258 103.828 47.2876C104.23 46.8849 104.903 46.9979 104.903 47.4689ZM146.221 48.2966C148.399 48.7236 150.497 49.1798 150.883 49.3101L151.586 49.5473L149.894 50.9962C147.098 53.3891 145.73 53.0092 147.505 50.3324L148.542 48.7702L147.098 50.4409L145.653 52.1116L144.53 51.755L143.407 51.3984L144.813 49.8366L146.219 48.2748L144.448 49.901L142.676 51.5271L141.82 51.1982L140.964 50.8699L142.355 49.3244L143.745 47.7795L141.87 49.5062L139.995 51.2334L140.139 49.1877L140.283 47.142L141.273 47.3307C141.817 47.4347 144.044 47.8696 146.221 48.2966ZM104.82 50.7242C104.73 50.799 103.988 51.0194 103.171 51.2151L101.687 51.5702L103.171 50.0075L104.656 48.4447L104.82 49.5166C104.91 50.1066 104.91 50.6499 104.82 50.7242ZM153.252 49.9089L153.85 50.2888L152.165 51.6346C149.253 53.9607 147.719 53.2539 150.547 50.8887C152.335 49.3928 152.403 49.3685 153.252 49.9089ZM158.3 51.3052L158.997 51.5237L157.643 52.9388L156.288 54.3535L155.344 54.1063L154.398 53.8587L155.423 52.3053L156.447 50.7515L155.172 52.2375L153.897 53.7234L152.781 53.5511C151.04 53.2826 151.053 53.0047 152.876 51.5153L154.576 50.1264L156.089 50.6063C156.922 50.8703 157.916 51.1849 158.3 51.3052ZM86.3844 53.4381L83.9845 55.8766L81.455 56.9257L78.9249 57.9748L82.1042 54.7577C85.0054 51.8219 85.8995 51.2681 88.0604 51.0665C88.4588 51.0294 87.7041 52.0968 86.3844 53.4381ZM110.841 55.4006V59.3073L108.491 59.6446C87.6883 62.629 70.6628 69.9643 54.1836 83.0429L47.256 88.5406L42.5551 93.8525C28.5337 109.697 21.3651 123.683 16.0908 145.483L14.9824 150.065H59.9429H104.903V154.275V158.485H55.3786H5.85331L6.19622 154.647C6.72223 148.754 10.1712 134.281 12.916 126.444C18.9039 109.349 33.8986 88.8541 50.2249 75.4481C56.4756 70.3155 70.925 62.3144 81.8939 57.9129L87.337 55.7285L96.7387 53.6496C101.91 52.5064 107.198 51.5534 108.491 51.5326L110.841 51.4945V55.4006ZM122.327 56.5716L122.431 61.6487L122.591 56.5716L122.752 51.4945H127.93H133.108V73.0413V94.5881H127.913H122.717L122.626 91.9876L122.534 89.3871L122.352 91.9876L122.17 94.5881H117.001H111.831V73.0413V51.4945H117.027H122.222L122.327 56.5716ZM148.408 53.7076L158.592 55.9202L163.046 57.7089C189.504 68.3327 208.225 83.934 222.887 107.578L227.718 115.367L231.128 123.962C233.004 128.689 234.677 133.25 234.846 134.098L235.155 135.64L232.501 136.392C231.041 136.806 229.287 137.276 228.602 137.438L227.357 137.731L225.449 131.886C223.177 124.929 218.134 114.746 213.232 107.219C209.319 101.21 209.161 101.007 202.697 93.6697L198.178 88.5406L191.43 83.1851C183.639 77.0019 183.032 76.5992 174.427 71.9193C163.024 65.7168 152.844 62.355 137.933 59.8665L134.098 59.2265V55.3605V51.4945H136.161C137.295 51.4945 142.806 52.4901 148.408 53.7076ZM160.648 51.8739L161.22 52.238L160.147 53.5843L159.075 54.9306L157.937 54.6329L156.8 54.3352L158.16 52.9151C159.624 51.3855 159.779 51.3201 160.648 51.8739ZM81.3837 55.0004C78.5142 57.9253 75.7615 59.762 73.797 60.0622C73.2685 60.1429 72.5362 60.45 72.1695 60.7452C71.8024 61.0399 70.5005 61.7646 69.2758 62.3555L67.0491 63.4299L70.7603 59.8814L74.4715 56.3328L71.0077 59.3063C69.1026 60.9419 67.0985 62.7756 66.5542 63.3809C65.7586 64.2655 60.3907 67.4123 59.3792 67.5872C59.0908 67.6372 55.1821 70.37 52.1647 72.6321C51.0112 73.497 49.9691 74.1062 49.8489 73.9859C49.7286 73.8655 45.5805 77.8113 40.6302 82.7547C35.68 87.6975 31.7347 91.8474 31.8634 91.9757C31.9921 92.1045 30.8322 93.8327 29.2853 95.8165C24.6483 101.763 22.045 105.223 22.0109 105.485C21.9535 105.921 20.181 109.135 18.8692 111.182C18.1705 112.271 17.5822 113.274 17.5619 113.411C17.3125 115.068 14.8008 118.756 12.1643 121.336L8.87423 124.555L9.44773 122.822L10.0212 121.088L13.7938 117.127L17.5664 113.165L14.1986 116.384L10.8308 119.602L11.8739 117.126L12.917 114.649L17.4684 109.944L22.0198 105.239L17.8682 109.201L13.7166 113.163L15.3456 110.191C16.2417 108.556 17.4248 106.718 17.9751 106.104C18.5258 105.491 18.8074 104.99 18.601 104.99C18.0162 104.99 23.6453 97.0602 25.8978 94.7119C27.0077 93.5543 27.738 92.6068 27.5198 92.6068C26.1986 92.6068 41.9391 76.1703 47.2431 72.0115C49.3006 70.3982 51.1122 69.1559 51.269 69.251C51.4259 69.3456 52.1459 68.8845 52.8688 68.2267C53.5922 67.5684 54.7957 66.655 55.5443 66.1968C56.293 65.7386 57.5172 64.9912 58.2659 64.536C59.0146 64.0808 57.3999 66.0244 54.6784 68.8552L49.7301 74.0017L56.1817 67.825L62.6337 61.6487L65.336 60.2697L68.0387 58.8902L63.5853 63.1793L59.1318 67.4683L63.0905 63.9956C65.2677 62.0851 67.4806 60.0433 68.008 59.4579C68.8493 58.5237 72.5911 56.5216 73.9766 56.264C74.2488 56.2135 74.6941 56.0351 74.9663 55.8677C75.2385 55.7008 76.3518 55.202 77.4404 54.7602L79.4197 53.9572L76.2034 56.9916L72.987 60.0265L76.7274 56.791C79.7889 54.143 82.6782 52.2791 84.1053 52.0304C84.2324 52.0081 83.0077 53.3445 81.3837 55.0004ZM163.049 52.8026L163.876 53.1201L162.471 54.3297L161.066 55.5388L162.692 54.461L164.318 53.3832L165.135 53.6972L165.952 54.0112L164.681 55.2827L163.411 56.5547L161.62 55.9064C159.582 55.1688 159.548 55.0896 160.6 53.5862C161.422 52.4093 161.752 52.3043 163.049 52.8026ZM167.126 56.3031L165.887 57.5434L164.791 57.1952L163.695 56.847L165.051 55.4303L166.406 54.0137L167.386 54.5383L168.365 55.0628L167.126 56.3031ZM169.6 57.2938L168.361 58.5341L167.265 58.1859L166.169 57.8376L167.525 56.421L168.881 55.0044L169.86 55.5289L170.839 56.0535L169.6 57.2938ZM172.403 56.8713C172.547 57.1041 172.126 57.801 171.467 58.4197L170.271 59.545L169.429 59.2216L168.588 58.8986L169.738 57.6732C170.912 56.422 171.936 56.1139 172.403 56.8713ZM174.674 57.7034C174.674 58.5073 172.952 60.4104 172.226 60.4104C170.8 60.4104 170.652 59.7982 171.787 58.5896C172.738 57.5761 174.674 56.9817 174.674 57.7034ZM176.016 60.2826L174.76 61.5402L173.94 61.2247L173.119 60.9097L174.177 59.4222L175.236 57.9347L176.254 58.4801L177.272 59.0254L176.016 60.2826ZM178.835 59.8432C178.979 60.076 178.558 60.773 177.9 61.3916L176.704 62.517L175.862 62.1936L175.02 61.8706L176.171 60.6452C177.345 59.394 178.368 59.0859 178.835 59.8432ZM110.841 77.9946V95.5787H113.068H115.295V100.532V105.485H110.882C108.455 105.485 106.117 105.621 105.686 105.786L104.903 106.087V127.58V149.074H60.6163C36.2585 149.074 16.3293 148.977 16.3293 148.858C16.3293 148.739 16.7469 146.9 17.2571 144.771C22.2128 124.094 29.2928 110.39 43.05 94.8432L47.7508 89.5312L54.6784 84.0336C69.8508 71.9927 84.7035 65.1482 103.171 61.6878C105.349 61.2802 107.575 60.8517 108.12 60.7358C108.664 60.6199 109.499 60.4995 109.975 60.4678L110.841 60.4104V77.9946ZM139.103 61.1326C154.793 64.1377 162.952 66.9066 174.179 73.0353C182.551 77.6052 183.202 78.0386 190.935 84.1758L197.683 89.5312L202.202 94.6604C208.667 101.999 208.824 102.201 212.736 108.21C219.063 117.928 227.381 136.601 225.999 137.984C225.812 138.171 217.139 140.738 206.723 143.689L187.787 149.053L163.911 149.064L140.036 149.074V127.28V105.485H134.84H129.645V100.532V95.5787H131.871H134.098V77.9946V60.4104H134.717C135.057 60.4104 137.031 60.7353 139.103 61.1326ZM181.45 61.4605L183.147 62.5106L182.003 63.8133L180.859 65.116L182.195 63.9386L183.53 62.7617L184.298 63.0564C185.325 63.4507 185.265 64.0387 184.089 65.1046L183.111 65.9898L181.604 65.3647C179.595 64.5315 179.434 64.1536 180.396 62.5294L181.211 61.1534L180.13 62.5121L179.05 63.8707L178.053 63.3368L177.055 62.8023L178.177 61.6066C179.534 60.1617 179.363 60.1692 181.45 61.4605ZM186.244 66.1146L184.818 67.2558L184.183 66.7308L183.548 66.2057L184.622 65.061L185.697 63.9158L186.684 64.4448L187.671 64.9738L186.244 66.1146ZM188.668 65.6683C189.115 66.1161 187.535 68.3356 186.77 68.3356C186.409 68.3356 185.957 68.082 185.766 67.7725L185.418 67.2093L186.602 66.2974C187.894 65.3032 188.208 65.2076 188.668 65.6683ZM122.429 75.5179C122.429 80.6941 122.502 82.7443 122.591 80.0739C122.68 77.4036 122.68 73.1686 122.59 70.6627C122.501 68.1568 122.428 70.3417 122.429 75.5179ZM190.496 66.8313L191.225 67.293L190.001 68.6809L188.777 70.0693L190.112 68.8919L191.448 67.715L192.25 68.0231L193.053 68.3317L191.99 69.8261L190.927 71.3205L189.357 70.2362C188.493 69.6398 187.714 69.0989 187.624 69.0345C187.377 68.8572 189.09 66.3533 189.452 66.3618C189.625 66.3662 190.094 66.5772 190.496 66.8313ZM194.4 69.4932L194.949 70.156L193.712 71.3195L192.475 72.4835L191.94 71.9486L191.406 71.4136L192.251 70.1223C193.206 68.663 193.613 68.5437 194.4 69.4932ZM39.3388 81.0577L27.4629 92.743L37.8543 82.8131C48.2189 72.9085 51.8534 69.3055 51.4353 69.3496C51.3141 69.362 45.8705 74.6308 39.3388 81.0577ZM196.38 70.9792L196.929 71.642L195.713 72.7857L194.496 73.9299L193.723 73.2874L192.949 72.645L194.042 71.481C195.302 70.1376 195.624 70.0688 196.38 70.9792ZM198.21 72.3498C198.396 72.6505 198.019 73.4237 197.373 74.0681L196.199 75.2395L195.47 74.7858L194.74 74.3316L195.927 73.0675C197.233 71.6756 197.703 71.528 198.21 72.3498ZM199.161 75.4847L197.683 76.6671L197.046 76.1395L196.408 75.6125L197.764 74.1959L199.119 72.7797L199.879 73.5411L200.64 74.3024L199.161 75.4847ZM202.63 78.5384L201.147 79.8099L202.793 78.7177L204.44 77.625L205.002 78.1882L205.565 78.7509L204.266 80.0512L202.967 81.3514L200.573 79.0659L198.178 76.78L199.663 75.56L201.147 74.34L202.63 75.8037L204.113 77.2674L202.63 78.5384ZM200.862 77.1277L199.663 78.4899L201.023 77.2892C201.772 76.6284 202.384 76.0157 202.384 75.927C202.384 75.5382 201.983 75.8547 200.862 77.1277ZM206.671 80.0071C206.75 80.2622 206.395 81.0175 205.883 81.6852L204.952 82.8988L204.146 82.2301L203.341 81.5609L204.442 80.3875C205.523 79.2353 206.388 79.0877 206.671 80.0071ZM209.093 82.2351L210.544 83.7508L209.309 84.7003C207.113 86.3899 206.08 85.3517 207.899 83.2827L209.064 81.9572L207.697 83.1643L206.33 84.3714L205.796 83.8365L205.261 83.3015L206.106 82.0102C207.173 80.3805 207.33 80.3924 209.093 82.2351ZM211.561 84.7181C211.742 85.0109 211.365 85.8465 210.725 86.5756L209.559 87.9011L210.828 86.7871L212.096 85.6731L213.515 87.1552L214.934 88.6377L213.762 89.8864L212.59 91.1346L210.91 89.5179C209.986 88.6288 209 87.4761 208.718 86.957L208.205 86.0129L209.377 85.1104C210.743 84.0589 211.113 83.992 211.561 84.7181ZM212.039 88.4574C211.571 89.1721 211.433 89.6056 211.732 89.4203C212.303 89.0671 213.456 87.1581 213.097 87.1581C212.983 87.1581 212.507 87.7426 212.039 88.4574ZM215.994 89.6382C216.163 89.9127 215.824 90.8597 215.24 91.7434L214.178 93.3497L215.373 91.9604L216.567 90.5705L217.218 91.3555L217.869 92.1406L216.687 93.3998L215.506 94.6589L214.102 93.0867L212.699 91.5141L213.813 90.3268C215.03 89.031 215.523 88.8749 215.994 89.6382ZM24.9818 98.6745L18.556 105.238L25.1125 98.8053C28.7183 95.2677 31.6689 92.3145 31.6689 92.2422C31.6689 91.887 30.9504 92.578 24.9818 98.6745ZM219.208 94.0962C219.208 94.3042 218.628 94.855 217.918 95.3202L216.628 96.1662L216.094 95.6312L215.56 95.0963L216.722 93.8579L217.885 92.6191L218.547 93.169C218.911 93.4711 219.208 93.8886 219.208 94.0962ZM220.721 95.7026C221.902 97.1197 221.898 97.3287 220.652 99.2174L219.622 100.78L220.794 99.4175C222.157 97.8349 222.452 97.7582 222.88 98.8751L223.195 99.6954L222.105 100.856C220.686 102.369 220.525 102.335 219.431 100.302L218.508 98.5863L219.724 97.2064L220.94 95.8264L219.616 96.9929C218.297 98.1549 217.229 98.09 217.229 96.8482C217.229 96.3197 218.945 94.7188 219.624 94.6138C219.717 94.6 220.21 95.0893 220.721 95.7026ZM122.222 100.532V105.485H119.253H116.284V100.532V95.5787H119.253H122.222V100.532ZM128.655 100.532V105.485H125.686H122.717V100.532V95.5787H125.686H128.655V100.532ZM223.39 103.126L221.93 104.742L223.461 103.361L224.993 101.979L225.556 102.658L226.118 103.336L224.642 104.752L223.166 106.168L222.437 105.207C222.037 104.679 221.571 103.838 221.401 103.338L221.094 102.429L222.226 101.223L223.359 100.016L224.104 100.763L224.85 101.509L223.39 103.126ZM226.958 104.772L227.254 105.544L225.829 107.125L224.404 108.705L225.997 107.264L227.591 105.823L227.916 106.67L228.24 107.517L227.102 108.73C225.63 110.298 225.478 110.27 224.379 108.227L223.456 106.512L224.635 105.255C225.996 103.804 226.544 103.691 226.958 104.772ZM122.261 107.095L122.3 107.714L122.55 107.095L122.8 106.476H130.923H139.046V134.644V162.813L134.352 164.116L129.659 165.42H126.188H122.717L122.62 162.077L122.523 158.733L122.35 162.077L122.177 165.42H114.035H105.893V135.948V106.476H114.058H122.222L122.261 107.095ZM229.105 109.143C229.105 109.488 228.554 110.289 227.881 110.922L226.657 112.073L226.334 111.231L226.011 110.388L227.135 109.19C228.262 107.989 229.105 107.969 229.105 109.143ZM229.5 112.293C228.497 113.948 227.841 114.204 227.42 113.107L227.097 112.266L228.193 111.098L229.29 109.93L229.801 110.442L230.312 110.953L229.5 112.293ZM231.606 113.958L232.642 115.992L231.53 117.178C229.459 119.384 228.69 117.732 230.713 115.424L231.826 114.154L230.514 115.31L229.2 116.465L228.711 115.59L228.221 114.713L229.251 113.319C230.533 111.584 230.374 111.541 231.606 113.958ZM122.428 121.831C122.428 126.871 122.501 128.933 122.591 126.413C122.681 123.893 122.681 119.769 122.591 117.249C122.501 114.729 122.428 116.791 122.428 121.831ZM233.739 118.682L234.599 120.485L233.212 122.023L231.826 123.561L233.095 122.448C234.613 121.117 234.841 121.087 235.253 122.16L235.568 122.983L234.192 124.51L232.816 126.038L234.175 124.841C235.703 123.494 235.625 123.466 236.517 125.707L237.173 127.354L235.881 128.648L234.588 129.942L234.274 129.123L233.961 128.306L235.037 126.678L236.114 125.051L234.906 126.457L233.698 127.863L232.434 124.723L231.169 121.583L232.487 120.099L233.806 118.615L232.537 119.728C230.475 121.536 229.401 120.081 231.256 117.992C232.565 116.52 232.732 116.566 233.739 118.682ZM13.5983 121.955L12.3974 124.555L9.92475 126.693L7.4516 128.83L7.99492 127.188C8.40711 125.943 14.0328 119.355 14.684 119.355C14.7473 119.355 14.2589 120.525 13.5983 121.955ZM11.6868 127.125L11.0549 128.952L8.5328 131.121L6.01017 133.29L6.56636 131.476L7.12254 129.663L9.61449 127.48C10.9847 126.28 12.1539 125.298 12.2123 125.298C12.2712 125.298 12.0347 126.121 11.6868 127.125ZM238.166 129.956L238.908 132.137L237.535 133.454L236.162 134.771L235.835 133.917L235.507 133.062L236.883 131.535L238.259 130.008L236.99 131.121C234.767 133.07 233.899 131.395 235.963 129.137C237.501 127.454 237.287 127.374 238.166 129.956ZM10.3018 131.366C9.83172 132.785 5.00666 138.4 4.60387 137.997C4.51876 137.912 4.69294 137.082 4.99083 136.152L5.53266 134.462L8.08547 132.115C9.48979 130.824 10.6828 129.765 10.7368 129.762C10.7907 129.759 10.5947 130.481 10.3018 131.366ZM122.222 133.224C122.222 133.587 122.371 133.735 122.552 133.554C122.733 133.372 122.733 133.075 122.552 132.893C122.371 132.712 122.222 132.861 122.222 133.224ZM238.612 134.303C237.098 134.905 236.851 134.729 237.775 133.707L238.681 132.705L239.071 133.336L239.46 133.967L238.612 134.303ZM9.16469 135.824L8.84899 137.434L6.52726 139.557L4.20603 141.68L4.03927 140.607L3.87301 139.533L6.49658 136.874C9.58332 133.745 9.57144 133.75 9.16469 135.824ZM239.606 141.28L238.307 142.65L237.887 141.899L237.467 141.148L238.784 139.291L240.1 137.434L238.904 138.809C237.615 140.289 237.022 140.155 237.022 138.384V137.269L238.372 136.285L239.721 135.301L240.313 137.606L240.904 139.911L239.606 141.28ZM122.428 144.616C122.428 149.656 122.501 151.718 122.591 149.198C122.681 146.678 122.681 142.554 122.591 140.034C122.501 137.514 122.428 139.576 122.428 144.616ZM237.248 136.161C237.405 136.415 237.307 136.762 237.03 136.934C236.753 137.105 236.527 136.897 236.527 136.473C236.527 135.602 236.824 135.474 237.248 136.161ZM236.22 139.539C237.177 143.6 238.329 150.614 238.782 155.142L239.117 158.485L197.865 158.443L156.613 158.401L169.841 154.637C177.116 152.567 182.979 150.783 182.868 150.672C182.757 150.561 176.29 152.274 168.496 154.478L154.325 158.485H147.18H140.036V154.282V150.079L184.894 150.078C209.566 150.078 229.874 149.955 230.024 149.805C230.174 149.655 229.689 147.057 228.946 144.032C228.203 141.008 227.685 138.442 227.795 138.332C228.027 138.1 234.025 136.335 234.866 136.252C235.177 136.221 235.786 137.7 236.22 139.539ZM7.91773 140.405C7.63073 141.161 7.26802 142.585 7.11215 143.569C6.744 145.893 6.39218 146.494 4.1798 148.579L2.34053 150.313L2.64881 148.579L2.95709 146.845L5.06604 144.907C7.12007 143.018 6.31053 143.343 4.07639 145.304L2.95709 146.286L3.25745 144.585L3.55781 142.883L5.8543 140.812C8.42987 138.489 8.66294 138.443 7.91773 140.405ZM227.077 140.53C228.291 145.193 229.105 148.499 229.105 148.774C229.105 148.939 220.254 149.062 209.436 149.047L189.766 149.02L207.58 143.901C228.567 137.871 226.478 138.232 227.077 140.53ZM241.476 142.076C241.476 142.553 240.804 143.441 239.984 144.048L238.491 145.153L238.187 144.36L237.883 143.567L239.26 142.128C240.7 140.624 241.476 140.606 241.476 142.076ZM241.97 144.524C241.97 145.555 239.35 148.267 238.844 147.76C238.126 147.042 238.564 145.634 239.811 144.652C241.414 143.39 241.97 143.357 241.97 144.524ZM242.465 147C242.465 147.847 240.088 150.56 239.345 150.56C238.532 150.56 239.107 148.771 240.331 147.492C241.874 145.879 242.465 145.743 242.465 147ZM5.91566 149.174L5.42528 150.952L3.7023 152.267L1.97931 153.583V152.556C1.97931 151.643 5.83846 146.828 6.24422 147.235C6.33329 147.323 6.18534 148.196 5.91566 149.174ZM242.96 149.758V150.938L241.228 152.26L239.496 153.583V152.47C239.496 151.405 241.72 148.579 242.558 148.579C242.779 148.579 242.96 149.11 242.96 149.758ZM3.51278 155.202L1.48448 157.233V156.06V154.887L3.34008 153.135L5.19568 151.383L5.36838 152.278L5.54157 153.172L3.51278 155.202ZM241.799 158.393L239.991 160.203V158.748V157.294L241.599 155.538L243.208 153.782L241.665 155.173L240.122 156.564L239.807 155.419L239.491 154.275L241.102 152.891L242.713 151.506L243.16 154.044L243.607 156.583L241.799 158.393ZM5.0888 155.831L4.85178 157.388L2.92047 159.276L0.989654 161.163V159.719V158.275L3.06199 156.162C5.42974 153.747 5.40549 153.751 5.0888 155.831ZM242.442 160.988L240.733 162.391L240.568 161.375L240.403 160.36L241.799 158.902L243.195 157.443L243.672 158.515L244.15 159.586L242.442 160.988ZM4.69195 159.542C4.5242 160.186 3.62609 161.606 2.69582 162.696L1.0045 164.677L0.997077 163.212L0.989654 161.747L2.81309 159.878C4.80922 157.831 5.15214 157.77 4.69195 159.542ZM104.903 162.943V166.411L110.223 166.51L115.542 166.61L109.604 166.906L103.666 167.202L109.515 167.302L115.363 167.401L115.206 168.488L115.047 169.575L96.2439 174.907L77.4404 180.239L73.3581 180.26L69.2758 180.28V176.317V172.355H68.7983C68.536 172.355 68.0585 172.846 67.7379 173.445L67.1545 174.536L67.7205 174.725L68.2861 174.914V177.597V180.28H65.8021H63.3176L64.3468 178.261C64.9124 177.15 65.3068 175.646 65.2227 174.918L65.0698 173.593L63.7421 173.439L62.415 173.286L61.8692 174.306L61.3239 175.327H61.8069C62.0726 175.327 62.4274 175.104 62.5956 174.831C64.1029 172.39 64.7585 175.511 63.328 178.318L62.3279 180.28H60.6064H58.8844V179.324C58.8844 178.799 58.5504 178.035 58.1422 177.626C57.7339 177.218 57.3999 176.645 57.3999 176.352C57.3999 176.061 57.1773 175.822 56.9051 175.822C56.633 175.822 56.4103 176.05 56.4103 176.33C56.4103 176.609 55.86 177.046 55.1871 177.303L53.9639 177.768L53.6492 179.024L53.3339 180.28H29.937H6.54013L6.27589 179.165C6.13041 178.552 5.8538 173.872 5.66132 168.764L5.31147 159.476H55.1074H104.903V162.943ZM146.221 160.724C144.044 161.374 141.762 162.032 141.149 162.186L140.036 162.467V160.972V159.476L145.108 159.51L150.18 159.543L146.221 160.724ZM239.394 163.315L239.54 166.906L184.469 166.801C154.179 166.743 131.791 166.624 134.717 166.537L140.036 166.377V164.695V163.014L142.881 162.201C144.446 161.755 147.063 160.978 148.696 160.477L151.664 159.566L195.457 159.645L239.249 159.724L239.394 163.315ZM242.262 164.369L240.486 166.147V164.581V163.015L242.094 161.749L243.702 160.483L243.87 161.537L244.037 162.592L242.262 164.369ZM2.87692 165.963L1.23707 168.014L1.08169 166.728L0.925822 165.441L2.56617 163.391L4.20603 161.34L4.36141 162.626L4.51728 163.913L2.87692 165.963ZM139.046 164.429V165.42L135.459 165.38L131.871 165.341L134.84 164.448C138.764 163.269 139.046 163.268 139.046 164.429ZM242.262 167.341L240.486 169.119V167.912V166.705L242.094 165.038L243.702 163.371L243.87 164.467L244.037 165.564L242.262 167.341ZM2.76163 169.326L0.989654 171.1V169.965C0.989654 169.34 1.71309 167.924 2.59784 166.818L4.20603 164.807L4.36982 166.18L4.53361 167.552L2.76163 169.326ZM122.105 167.011C121.995 167.341 120.64 167.986 119.095 168.446L116.284 169.281V167.846V166.411H119.294H122.305L122.105 167.011ZM128.655 175.69V184.738H125.686H122.717L122.638 183.128L122.559 181.518L122.359 183.128L122.159 184.738H119.209H116.259L116.395 177.213L116.532 169.688L119.377 168.843L122.222 167.998L122.325 172.53L122.428 177.06L122.59 172.514L122.753 167.967L124.096 167.434L125.439 166.9L124.078 167.16C123.33 167.303 122.717 167.215 122.717 166.963C122.717 166.712 124.053 166.537 125.686 166.574L128.655 166.643V175.69ZM242.258 170.812L240.486 172.586V171.132V169.677L242.094 168.01L243.702 166.342L243.866 167.69L244.03 169.038L242.258 170.812ZM30.3458 167.278C43.906 167.351 65.9506 167.351 79.3336 167.278C92.7167 167.204 81.6217 167.144 54.6784 167.144C27.7351 167.144 16.7855 167.204 30.3458 167.278ZM180.241 167.729L179.622 167.979V174.129V180.28H154.633H129.645V173.841V167.401L155.252 167.441C169.336 167.462 180.581 167.592 180.241 167.729ZM239.496 172.293C239.496 174.983 239.357 177.881 239.187 178.732L238.878 180.28H228.548H218.219V173.841V167.401H228.858H239.496V172.293ZM3.02636 172.035L0.989654 174.074V172.866V171.659L2.57557 170.021L4.1615 168.383L4.61228 169.19L5.06357 169.996L3.02636 172.035ZM184.076 186.719V205.046H182.344H180.612V186.719V168.392H182.344H184.076V186.719ZM212.281 170.126V171.859H198.673H185.065V170.126V168.392H198.673H212.281V170.126ZM217.229 186.719V205.046H215.25H213.27V186.719V168.392H215.25H217.229V186.719ZM76.5022 170.316L75.6586 171.25L75.807 174.403L75.956 177.556L77.3464 177.715C78.1114 177.803 79.058 177.609 79.4494 177.283L80.162 176.691V173.82C80.162 169.347 78.6701 167.919 76.5022 170.316ZM115.141 180.103C115.037 180.207 107.019 180.234 97.3221 180.163L79.6924 180.032L97.3696 175.054L115.047 170.075L115.189 174.994C115.267 177.7 115.246 179.999 115.141 180.103ZM242.262 173.78L240.486 175.558V174.351V173.145L242.094 171.477L243.702 169.81L243.87 170.906L244.037 172.003L242.262 173.78ZM79.0724 173.469L78.9249 176.565L77.8116 176.723L76.6982 176.881V174.222C76.6982 171.577 77.2781 170.373 78.5528 170.373H79.2193L79.0724 173.469ZM3.13671 175.266L1.23707 176.952L3.09267 175.619L4.94827 174.285V175.402C4.94827 176.016 4.22483 177.308 3.34008 178.274L1.73189 180.03L3.27477 178.639L4.81714 177.248L5.11453 178.385L5.41143 179.523L3.81908 181.262L2.22672 183.002L3.83491 181.548L5.4431 180.095V181.333V182.571L4.03433 183.922L2.62555 185.273L1.76059 179.998L0.895637 174.721L2.79825 172.764L4.70086 170.808L4.8686 172.194L5.03635 173.58L3.13671 175.266ZM71.3788 171.379L70.2654 171.828V173.577V175.327H71.9973H73.7292V176.575V177.825L72.4922 178.389C71.8118 178.699 71.2551 179.14 71.2551 179.369C71.2551 180.029 72.4214 179.853 73.6189 179.013L74.7189 178.243V176.289V174.336H72.987H71.2551V173.368V172.4L72.987 172.074C73.9395 171.895 74.7189 171.551 74.7189 171.309C74.7189 170.752 72.8385 170.792 71.3788 171.379ZM212.165 186.846L212.297 200.594L198.678 193.784L185.06 186.973L198.547 180.186C205.964 176.453 211.865 173.387 211.659 173.372C211.452 173.357 205.498 176.243 198.426 179.785C191.354 183.326 185.454 186.224 185.316 186.224C185.178 186.224 185.065 183.211 185.065 179.529V172.834L198.549 172.966L212.033 173.098L212.165 186.846ZM243.736 175.946L243.414 179.042L241.426 181.023L239.438 183.004L239.777 181.518C239.963 180.701 240.922 179.141 241.909 178.051L243.702 176.071L241.838 177.786L239.974 179.501L240.294 177.785C240.558 176.375 243.101 172.85 243.854 172.85C243.968 172.85 243.915 174.243 243.736 175.946ZM56.0367 179.042C55.7868 180.349 54.431 180.789 54.431 179.562C54.431 179.018 55.4439 178.03 56.2178 177.818C56.2485 177.81 56.1668 178.361 56.0367 179.042ZM57.8948 179.289C57.8948 179.834 57.6721 180.28 57.3999 180.28C57.1278 180.28 56.9051 179.834 56.9051 179.289C56.9051 178.744 57.1278 178.299 57.3999 178.299C57.6721 178.299 57.8948 178.744 57.8948 179.289ZM243.265 181.371C243.095 181.997 242.049 183.512 240.94 184.738L238.924 186.967L239.22 185.244L239.517 183.52L241.33 181.661C243.286 179.657 243.749 179.587 243.265 181.371ZM54.4488 181.784C55.0035 182.339 55.3241 183.008 55.1618 183.27C55 183.532 55.1104 183.747 55.4068 183.747C55.7037 183.747 56.0748 183.413 56.2312 183.004C56.388 182.596 56.914 182.261 57.3999 182.261C57.8859 182.261 58.4119 181.927 58.5687 181.518L58.8532 180.775H60.3536H61.8534V181.58V182.385L63.4616 182.064C64.3458 181.888 65.144 181.526 65.2345 181.259L65.3998 180.775L70.1828 180.803L74.9663 180.831L51.4783 187.49L27.9904 194.149L24.2629 194.227L20.5353 194.305L23.0095 194.598L25.4836 194.892L17.8618 197.021L10.2404 199.149L9.80302 198.712C9.56253 198.471 9.23446 197.464 9.07414 196.476L8.78269 194.677L14.6588 194.52L20.5353 194.362L14.5232 194.256L8.51152 194.149L7.75592 190.558C7.34076 188.583 6.86177 185.574 6.69204 183.871L6.38376 180.775H29.9123H53.4413L54.4488 181.784ZM57.7607 181.074C57.5964 181.239 57.1693 181.257 56.8126 181.114L56.1629 180.854L57.1115 180.814C57.633 180.793 57.9249 180.91 57.7607 181.074ZM115.295 182.749V184.723L100.574 184.854L85.8525 184.986L85.71 189.567L85.568 194.149L57.9997 194.099L30.4319 194.048L31.9163 193.579C32.7328 193.32 43.0871 190.354 54.9258 186.987L76.4508 180.864L95.8727 180.82L115.295 180.775V182.749ZM179.622 187.462V194.149L169.849 194.262L160.077 194.375L169.849 194.52L179.622 194.665V200.351V206.037H198.92H218.219V200.341V194.644H227.126H236.033L236.006 195.511C235.991 195.988 235.268 198.83 234.398 201.827L232.816 207.275L222.177 207.538L211.539 207.8L222.02 207.909L232.502 208.018L230.516 212.848C229.424 215.504 228.413 217.956 228.27 218.296L228.009 218.916H202.867C189.038 218.916 177.372 219.051 176.941 219.216L176.158 219.517V221.693V223.869H180.364H184.57V226.098V228.327H185.247H185.924L186.732 231.208C187.176 232.792 187.539 234.241 187.539 234.427C187.539 234.614 180.469 234.73 171.829 234.687C163.188 234.643 156.841 234.517 157.726 234.408L159.334 234.208V228.089V221.97L159.953 221.72C160.293 221.583 159.625 221.453 158.468 221.431L156.365 221.392V214.705V208.018L183.952 207.899L211.539 207.779L183.952 207.647L156.365 207.515V202.318V197.121H157.817H159.269L159.425 195.759C159.511 195.01 159.47 192.279 159.334 189.691L159.087 184.986L144.366 184.854L129.645 184.723V182.749V180.775H154.633H179.622V187.462ZM238.69 182.385C238.533 183.271 237.982 186.148 237.466 188.778C236.949 191.409 236.527 193.694 236.527 193.855C236.527 194.017 232.408 194.149 227.373 194.149H218.219V187.462V180.775H228.598H238.977L238.69 182.385ZM5.93792 184.15C5.93792 184.644 5.2991 185.661 4.51827 186.41L3.09811 187.771L2.77103 186.917L2.44346 186.062L3.7884 184.657C5.34661 183.029 5.93792 182.89 5.93792 184.15ZM240.649 188.394L238.259 190.926L240.426 188.947L242.593 186.967L242.234 188.453C242.036 189.27 241.782 190.496 241.67 191.177C241.557 191.858 241.352 192.916 241.214 193.528C241.076 194.14 240.953 194.748 240.94 194.881C240.927 195.013 240.696 195.85 240.427 196.741C240.157 197.631 239.842 198.805 239.725 199.35C239.608 199.895 239.389 200.915 239.237 201.616C239.085 202.318 237.721 204.101 236.207 205.579L233.452 208.266L233.803 207.028C234.219 205.561 234.605 204.974 237.443 201.494L239.597 198.855L237.33 201.331C235.046 203.827 234.59 203.804 235.583 201.24C235.881 200.473 236.223 199.288 236.345 198.607C236.805 196.03 237.189 195.321 239.425 192.912L241.723 190.438L239.558 192.417L237.393 194.397L237.716 192.911C237.894 192.094 238.168 190.659 238.326 189.721L238.613 188.018L240.663 185.628L242.713 183.237L242.875 184.55L243.039 185.862L240.649 188.394ZM6.60545 190.07C6.72717 190.27 6.20315 191.18 5.44112 192.091L4.05511 193.748L3.7112 192.664L3.36779 191.579L4.77657 190.018L6.18534 188.456L4.87157 189.611L3.55731 190.767L3.21489 189.687L2.87297 188.607L4.28174 187.135L5.69051 185.662L6.03689 187.684C6.22789 188.797 6.48322 189.87 6.60545 190.07ZM122.222 190.93V196.13H104.409H86.5947V190.93V185.729H104.409H122.222V190.93ZM158.345 190.93V196.13H140.531H122.717V190.93V185.729H140.531H158.345V190.93ZM198.426 194.149L211.044 200.535L198.055 200.562L185.065 200.588V194.149C185.065 190.608 185.232 187.722 185.436 187.737C185.641 187.751 191.486 190.637 198.426 194.149ZM6.10716 194.726C3.67112 197.271 3.03428 195.792 5.29069 192.83L6.62326 191.082L7.03694 192.202L7.45111 193.322L6.10716 194.726ZM7.91723 195.522C7.91723 195.972 7.30464 196.868 6.55646 197.512L5.19568 198.682L6.41939 197.902C8.03055 196.873 8.25668 196.912 8.51301 198.253L8.72924 199.385L7.95187 199.42C7.52484 199.439 6.83604 199.603 6.42137 199.783L5.66775 200.113L5.06505 198.515L4.46284 196.918L5.77067 195.551C7.13145 194.129 7.91723 194.119 7.91723 195.522ZM85.6051 195.891V197.121H87.0896H88.574V202.322V207.523H69.7404H50.9063L51.2398 205.3L51.5729 203.076L50.7915 202.776C50.3615 202.611 49.3907 202.683 48.6331 202.934L47.256 203.392L46.8146 205.458C46.348 207.642 45.3078 208.192 44.7818 206.532C44.6092 205.987 44.0376 205.542 43.5116 205.542C42.4567 205.542 42.421 205.477 42.8555 204.344L43.1558 203.56H44.6863H46.2168L45.6834 203.026C45.39 202.733 44.5315 202.565 43.7754 202.655L42.4007 202.817L41.7619 204.675L41.1226 206.532H42.5809C45.3207 206.532 44.047 207.435 41.0697 207.603C39.4362 207.695 38.1002 207.588 38.1007 207.366C38.1012 207.143 37.642 207.107 37.0799 207.286L36.0576 207.61L37.114 205.537C38.9746 201.887 37.9681 202.053 35.9586 205.728C34.3657 208.641 34.3346 209.009 35.6805 209.009H36.7231L36.4381 209.752C36.2817 210.161 36.3762 210.495 36.6484 210.495C36.9205 210.495 37.2714 210.161 37.4277 209.752C37.5846 209.343 38.023 209.009 38.402 209.009C38.7811 209.009 39.0913 208.786 39.0913 208.514C39.0913 208.241 40.2047 208.018 41.5655 208.018H44.0396V208.761V209.504H42.3077C41.3552 209.504 40.5758 209.727 40.5758 210C40.5758 210.272 41.4621 210.495 42.5457 210.495H44.5156L44.8259 209.257C45.2123 207.716 46.1377 207.612 45.9264 209.133L45.7715 210.247L47.8582 210.399L49.9449 210.55L50.2621 209.284L50.5797 208.018H69.5766H88.574V214.891V221.764L87.0896 222.061L85.6051 222.358V228.283V234.208L87.2133 234.408C88.0975 234.517 86.2053 234.643 83.0072 234.687L77.193 234.766V228.793V222.82L77.6562 223.106L78.1188 223.393L77.6562 221.777C77.4013 220.887 77.193 220.119 77.193 220.068C77.193 220.017 77.6938 219.878 78.3064 219.761C78.919 219.642 77.0258 219.515 74.1003 219.478L68.781 219.411L68.7137 215.077C68.6766 212.693 68.5524 211.225 68.4376 211.814L68.2287 212.886L66.6522 212.433C64.667 211.864 64.3839 211.872 65.3172 212.476L66.0594 212.956H42.8025H19.5457L20.2879 212.476C21.2241 211.871 20.9386 211.864 18.9237 212.442L17.3189 212.902L17.2333 211.822C17.1863 211.229 17.0196 212.191 16.8622 213.962L16.5767 217.182L14.829 212.724L13.0808 208.266L23.7359 208.028L34.3905 207.79L23.5043 207.532L12.6181 207.275L11.2979 203.499L9.97819 199.723L19.2151 197.155C24.296 195.743 28.6193 194.545 28.8227 194.492C29.0266 194.44 41.8856 194.456 57.3989 194.529L85.6051 194.66V195.891ZM238.236 197.245L236.28 199.35L238.383 197.392C239.539 196.315 240.486 195.368 240.486 195.287C240.486 194.912 240.055 195.287 238.236 197.245ZM91.543 209.504V221.888H90.5534H89.5637V209.504V197.121H90.5534H91.543V209.504ZM122.301 198.731L122.381 200.341L122.58 198.731L122.78 197.121H137.593H152.407V209.504V221.888H137.562H122.717L122.606 213.343L122.494 204.799L122.347 213.343L122.199 221.888H107.366H92.5327V209.504V197.121H107.377H122.222L122.301 198.731ZM155.376 209.504V221.888H154.386H153.396V209.504V197.121H154.386H155.376V209.504ZM8.12852 202.202L6.68017 203.805L7.9489 202.692C9.49623 201.335 9.71296 201.319 10.0296 202.531L10.2785 203.483L8.86532 204.839L7.4516 206.195L7.23338 205.497C7.11314 205.113 6.78903 204.088 6.51291 203.219L6.01066 201.64L6.59258 201.167C7.22794 200.652 9.02713 200.178 9.36559 200.437C9.48188 200.526 8.9252 201.32 8.12852 202.202ZM212.281 203.313V205.046H198.673H185.065V203.313V201.579H198.673H212.281V203.313ZM50.4724 204.018C50.4724 204.27 50.2116 205.607 49.8924 206.99L49.313 209.504H48.1605H47.0086V208.761V208.018L48.1219 207.961L49.2353 207.903L48.3169 207.667L47.3985 207.43L47.7058 205.891C47.875 205.045 48.2882 204.178 48.6242 203.964C49.4604 203.433 50.4724 203.462 50.4724 204.018ZM10.8862 205.428C10.8862 205.879 10.2736 206.776 9.52542 207.421L8.16465 208.595L9.77481 207.529L11.385 206.462L11.7002 207.284L12.0159 208.107L10.525 209.599L9.03455 211.091L8.27945 208.873L7.52434 206.655L8.79803 205.381C10.137 204.04 10.8862 204.057 10.8862 205.428ZM237.925 206.147L237.375 207.94L234.195 211.075L231.016 214.21L231.863 211.981L232.709 209.752L235.456 206.917C238.567 203.706 238.684 203.669 237.925 206.147ZM11.5854 211.531C10.8268 212.323 10.0252 212.972 9.80401 212.972C8.93757 212.972 9.46951 211.222 10.7387 209.895L12.0753 208.498L12.5201 209.294L12.965 210.089L11.5854 211.531ZM235.825 211.533C235.432 212.46 233.625 214.668 231.81 216.439L228.509 219.659L229.599 217.43C230.567 215.453 235.974 209.281 236.382 209.689C236.469 209.776 236.219 210.606 235.825 211.533ZM13.5701 211.814L13.8858 212.638L12.5409 214.043C10.9862 215.668 10.616 215.759 10.1816 214.625L9.86586 213.801L11.2108 212.396C12.7655 210.771 13.1357 210.68 13.5701 211.814ZM14.4831 214.419L14.732 215.371L13.3539 216.693L11.9753 218.015L11.4622 217.103L10.9485 216.191L12.247 214.829C13.7854 213.215 14.1516 213.148 14.4831 214.419ZM68.2861 216.21V218.916H42.8025H17.3189V216.21V213.504H42.8025H68.2861V216.21ZM233.597 216.762C233.036 217.811 230.776 220.563 228.575 222.878L224.573 227.089L226.172 224.117C227.595 221.472 233.957 214.197 234.432 214.671C234.534 214.774 234.158 215.714 233.597 216.762ZM15.497 216.63C15.6415 217.007 15.0982 217.951 14.2891 218.726L12.8185 220.137L12.3682 219.407L11.9179 218.678L13.2267 217.311C14.7023 215.769 15.1189 215.644 15.497 216.63ZM16.4866 218.611C16.6311 218.988 16.0878 219.932 15.2788 220.708L13.8081 222.118L13.3579 221.389L12.9076 220.659L14.2164 219.292C15.692 217.751 16.1086 217.625 16.4866 218.611ZM231.129 222.259L229.675 225.107L224.937 229.803C219.889 234.805 219.397 235.074 221.569 231.647C222.75 229.782 231.943 219.411 232.415 219.411C232.507 219.411 231.929 220.692 231.129 222.259ZM17.1908 221.116C17.1017 221.782 16.601 222.799 16.0779 223.378L15.1269 224.43L14.49 223.558L13.8537 222.686L15.1838 221.297C16.8197 219.587 17.4026 219.535 17.1908 221.116ZM20.612 220.812C20.1617 221.31 19.7931 221.897 19.7931 222.117C19.7931 222.337 20.2548 221.929 20.8189 221.211L21.8441 219.906H23.3078H24.771L23.6735 221.392L22.576 222.878H21.2127H19.849L19.0993 221.807C18.1686 220.476 18.4828 219.906 20.1464 219.906H21.431L20.612 220.812ZM26.6425 221.392L25.545 222.878H24.3717H23.1985L23.5503 222.259C24.4163 220.735 25.4786 219.906 26.5648 219.906H27.74L26.6425 221.392ZM30.1063 221.392L29.0087 222.878H27.5881H26.1674L26.5193 222.259C27.4258 220.664 28.4763 219.906 29.7812 219.906H31.2038L30.1063 221.392ZM33.0752 221.392L31.9777 222.878H30.8045H29.6312L29.9831 222.259C30.849 220.735 31.9114 219.906 32.9975 219.906H34.1728L33.0752 221.392ZM36.539 221.392L35.4415 222.878H34.0208H32.6002L32.952 222.259C33.8585 220.664 34.9091 219.906 36.2139 219.906H37.6365L36.539 221.392ZM39.508 221.392L38.4105 222.878H37.2372H36.064L36.4158 222.259C37.2818 220.735 38.3441 219.906 39.4303 219.906H40.6055L39.508 221.392ZM42.9718 221.392L41.8742 222.878H40.4536H39.033L39.3848 222.259C40.2913 220.664 41.3418 219.906 42.6467 219.906H44.0693L42.9718 221.392ZM45.9407 221.392L44.8432 222.878H43.67H42.4967L42.8486 222.259C43.7145 220.735 44.7769 219.906 45.863 219.906H47.0383L45.9407 221.392ZM49.4045 221.392L48.307 222.878H46.8863H45.4657L45.8175 222.259C46.724 220.664 47.7746 219.906 49.0794 219.906H50.502L49.4045 221.392ZM52.3735 221.392L51.276 222.878H50.1027H48.9295L49.2813 222.259C50.1473 220.735 51.2097 219.906 52.2958 219.906H53.471L52.3735 221.392ZM55.6052 221.436L54.0772 222.965L52.9678 222.798L51.8579 222.631L52.9331 221.268L54.0079 219.906H55.5706H57.1337L55.6052 221.436ZM58.8062 221.392L57.7087 222.878H56.2247H54.7407L56.1629 221.392L57.585 219.906H58.7444H59.9038L58.8062 221.392ZM62.038 221.436L60.5099 222.965L59.4005 222.798L58.2906 222.631L59.3659 221.268L60.4407 219.906H62.0033H63.5665L62.038 221.436ZM65.239 221.392L64.1415 222.878H62.6575H61.1735L62.5956 221.392L64.0178 219.906H65.1771H66.3365L65.239 221.392ZM67.7913 221.16C67.7913 222.465 66.9476 223.08 65.5463 222.796L64.7278 222.631L65.8006 221.268C67.1371 219.571 67.7913 219.536 67.7913 221.16ZM76.6601 234.271L76.7516 248.635H64.9H53.0484L54.9768 242.085C56.0372 238.482 56.9051 235.473 56.9051 235.398C56.9051 235.323 61.3026 235.211 66.6779 235.149L76.4508 235.037L66.9254 234.89C61.6861 234.81 57.3999 234.597 57.3999 234.416C57.3999 234.236 57.7631 232.792 58.2075 231.208L59.0151 228.327H59.692H60.3689V226.098V223.869H64.5749H68.781V221.888V219.906H72.6748H76.5686L76.6601 234.271ZM178.345 221.268L177.539 222.631L178.622 221.268L179.705 219.906H181.163H182.621L181.506 221.415L180.392 222.925L178.893 222.778L177.396 222.631L177.239 221.268L177.082 219.906H178.116H179.15L178.345 221.268ZM184.492 221.392L183.395 222.878H182.222H181.048L181.4 222.259C182.266 220.735 183.328 219.906 184.415 219.906H185.59L184.492 221.392ZM187.956 221.392L186.859 222.878H185.438H184.017L184.369 222.259C185.276 220.664 186.326 219.906 187.631 219.906H189.054L187.956 221.392ZM190.925 221.392L189.828 222.878H188.654H187.481L187.833 222.259C188.699 220.735 189.761 219.906 190.847 219.906H192.023L190.925 221.392ZM194.389 221.392L193.291 222.878H191.871H190.45L190.802 222.259C191.708 220.664 192.759 219.906 194.064 219.906H195.486L194.389 221.392ZM197.358 221.392L196.26 222.878H195.087H193.914L194.266 222.259C195.132 220.735 196.194 219.906 197.28 219.906H198.455L197.358 221.392ZM200.59 221.436L199.062 222.965L197.952 222.798L196.842 222.631L197.917 221.268L198.992 219.906H200.555H202.118L200.59 221.436ZM203.791 221.392L202.693 222.878H201.209H199.725L201.147 221.392L202.569 219.906H203.729H204.888L203.791 221.392ZM207.022 221.436L205.494 222.965L204.385 222.798L203.275 222.631L204.35 221.268L205.425 219.906H206.988H208.551L207.022 221.436ZM210.223 221.392L209.126 222.878H207.642H206.158L207.58 221.392L209.002 219.906H210.161H211.321L210.223 221.392ZM213.455 221.436L211.927 222.965L210.818 222.798L209.708 222.631L210.783 221.268L211.858 219.906H213.42H214.984L213.455 221.436ZM216.656 221.392L215.559 222.878H214.075H212.591L214.013 221.392L215.435 219.906H216.594H217.754L216.656 221.392ZM219.888 221.436L218.36 222.965L217.25 222.798L216.14 222.631L217.216 221.268L218.29 219.906H219.853H221.416L219.888 221.436ZM223.089 221.392L221.991 222.878H220.507H219.023L220.445 221.392L221.868 219.906H223.027H224.186L223.089 221.392ZM227.126 220.341C227.126 220.58 226.794 221.051 226.389 221.388C225.984 221.725 225.747 222.153 225.862 222.34C225.978 222.527 225.289 222.733 224.332 222.797L222.591 222.915L222.954 222.277C224.104 220.26 227.126 218.857 227.126 220.341ZM18.8648 223.638L19.9851 225.883L18.6367 227.229L17.2883 228.574L16.8498 227.869L16.4109 227.163L17.6619 225.392L18.9128 223.621L17.6144 225.107L16.3154 226.593L15.8355 225.85C15.157 224.802 15.1952 224.673 16.5614 223.388C17.2333 222.756 17.6658 222.049 17.5218 221.816C17.3783 221.583 17.3694 221.392 17.5025 221.392C17.6356 221.392 18.2487 222.403 18.8648 223.638ZM164.406 221.76C166.515 221.853 169.967 221.853 172.076 221.76C174.185 221.668 172.46 221.591 168.241 221.591C164.023 221.591 162.297 221.668 164.406 221.76ZM158.345 228.079V233.28H140.531H122.717L122.626 230.68L122.534 228.079L122.352 230.68L122.17 233.28H104.383H86.5947V228.079V222.878H122.47H158.345V228.079ZM59.3792 225.603V227.336H40.8569H22.3345L21.3112 225.898C20.7486 225.106 20.2879 224.326 20.2879 224.164C20.2879 224.002 29.0835 223.869 39.8336 223.869H59.3792V225.603ZM224.298 225.479L223.359 227.089L204.46 227.218L185.56 227.348V225.608V223.869H205.399H225.237L224.298 225.479ZM20.9401 227.032C21.0846 227.409 20.5581 228.336 19.7703 229.092L18.3378 230.466L18.0132 229.619L17.6886 228.772L18.8272 227.559C20.1291 226.172 20.568 226.062 20.9401 227.032ZM227.859 228.84C227.164 230.212 225.798 232.218 224.824 233.298C223.849 234.378 223.203 235.261 223.389 235.261C224.125 235.261 219.221 241.638 215.317 245.755C213.041 248.157 211.364 250.121 211.592 250.121C211.819 250.121 210.581 251.559 208.841 253.317C207.1 255.075 205.529 256.422 205.349 256.31C205.17 256.199 204.039 257.124 202.838 258.366C200.709 260.564 194.986 265.126 191.498 267.403C190.546 268.025 197.239 261.103 206.372 252.021C215.505 242.94 219.401 238.966 215.031 243.192C203.03 254.795 200.063 257.435 206.126 251.112C209.131 247.979 212.783 243.855 214.242 241.948C216.401 239.127 228.476 226.346 228.982 226.346C229.059 226.346 228.553 227.468 227.859 228.84ZM22.098 229.095L22.3924 229.863L21.2538 231.076C19.9133 232.505 19.5145 232.577 19.0899 231.47L18.7752 230.649L19.8653 229.488C21.1385 228.131 21.6912 228.034 22.098 229.095ZM53.4413 228.582C53.4413 228.722 53.0707 230.171 52.6179 231.802L51.7945 234.766H39.313H26.831L24.8146 231.546L22.7977 228.327H38.1195C46.5464 228.327 53.4413 228.442 53.4413 228.582ZM57.8948 228.582C57.8948 228.722 57.5241 230.171 57.0714 231.802L56.248 234.766H54.5972C52.6763 234.766 52.7129 234.921 53.7541 231.208L54.5616 228.327H56.2282C57.1446 228.327 57.8948 228.442 57.8948 228.582ZM191.68 231.208C192.728 234.945 192.783 234.766 190.59 234.766H188.691L187.868 231.802C187.415 230.171 187.045 228.722 187.045 228.582C187.045 228.442 187.906 228.327 188.959 228.327H190.873L191.68 231.208ZM222.177 228.737C222.177 228.963 221.334 230.357 220.304 231.833L218.43 234.518L206.037 234.651L193.644 234.783L192.819 231.81C192.365 230.175 191.993 228.722 191.993 228.582C191.993 228.442 198.784 228.327 207.085 228.327C215.386 228.327 222.177 228.512 222.177 228.737ZM24.0243 232.024L24.9472 233.74L23.7586 235.006L22.5705 236.272L21.8248 235.526L21.0791 234.78L22.5394 233.163L23.9991 231.546L22.4058 232.987L20.8119 234.428L20.4873 233.581L20.1627 232.734L21.3013 231.521C22.7729 229.953 22.9248 229.981 24.0243 232.024ZM26.5069 236.003L27.4387 237.735L26.3431 238.832L25.2471 239.928L24.6859 239.367L24.1248 238.805L25.2164 237.157L26.3075 235.509L25.113 236.898L23.9185 238.288L23.2678 237.503L22.6166 236.718L23.7656 235.495C25.2495 233.913 25.3975 233.941 26.5069 236.003ZM91.543 245.663V257.056H90.5534H89.5637V245.663V234.271H90.5534H91.543V245.663ZM122.329 240.339L122.436 246.406L122.592 240.339L122.748 234.271H137.577H152.407V245.663V257.056H137.562H122.717V255.067V253.078L124.202 250.445C125.018 248.997 125.686 247.552 125.686 247.233V246.654L124.078 246.661C123.194 246.666 122.155 246.868 121.771 247.112L121.072 247.554L121.991 248.466L122.909 249.378L122.581 248.511L122.253 247.645H123.52H124.787L123.773 249.254C123.215 250.14 122.405 251.641 121.972 252.59L121.186 254.316L121.704 254.489C121.989 254.584 122.222 255.2 122.222 255.859V257.056H107.377H92.5327V245.663V234.271H107.377H122.222L122.329 240.339ZM155.376 245.663V257.056H154.386H153.396V245.663V234.271H154.386H155.376V245.663ZM220.198 234.458C220.198 234.561 219.808 234.951 219.332 235.325L218.466 236.004L219.145 235.138C219.792 234.312 220.198 234.05 220.198 234.458ZM51.2003 236.376C51.0459 236.989 50.1784 239.942 49.2724 242.939L47.6251 248.388L44.4716 248.697L41.3181 249.007L44.6181 248.945L47.9181 248.883L47.5232 249.378C47.306 249.651 46.7503 251.192 46.2886 252.803L45.4494 255.732L40.7703 251.069C35.7082 246.024 29.5001 239.024 28.0329 236.706L27.1185 235.261H39.2997H51.4808L51.2003 236.376ZM55.7992 235.881C55.677 236.221 54.8189 239.154 53.8926 242.398L52.2077 248.296L51.2428 248.549L50.2779 248.802L51.0543 249.09L51.8312 249.378L50.6554 253.341C50.0087 255.52 49.36 257.624 49.2135 258.015L48.9478 258.727L47.6637 257.441L46.3792 256.156L47.2812 252.82L48.1833 249.485L49.1774 249.224L50.172 248.964L49.3956 248.676L48.6187 248.388L49.8083 244.425C50.4625 242.246 51.3408 239.292 51.7599 237.862L52.5219 235.261H54.2716H56.0214L55.7992 235.881ZM88.574 241.948V248.635H82.8835H77.193V241.948V235.261H82.8835H88.574V241.948ZM188.034 235.398C188.034 235.473 188.902 238.482 189.963 242.085L191.891 248.635H174.128H156.365V241.948V235.261H172.2C180.909 235.261 188.034 235.323 188.034 235.398ZM193.674 237.862C194.093 239.292 194.971 242.246 195.624 244.425L196.812 248.388L195.08 248.545C192.835 248.749 192.879 248.816 191.044 242.444C190.181 239.447 189.358 236.605 189.216 236.128L188.957 235.261H190.935H192.912L193.674 237.862ZM217.235 236.241C216.517 237.585 209.205 246.694 207.967 247.788L206.964 248.674L202.388 248.531L197.812 248.388L196.163 242.939C195.256 239.942 194.388 236.989 194.234 236.376L193.953 235.261H205.856H217.759L217.235 236.241ZM66.4617 237.553C66.292 237.996 66.5072 238.943 66.9407 239.657L67.728 240.956L70.4119 241.656C71.888 242.04 73.461 242.215 73.9074 242.043L74.7189 241.732V240.291C74.7189 238.278 71.8548 236.747 68.0897 236.747H66.7705L66.4617 237.553ZM71.2551 238.417L73.4818 239.08L73.6402 240.143L73.798 241.205L73.1453 241.198C71.7178 241.182 68.1887 239.868 67.7631 239.195C66.7185 237.543 67.6369 237.338 71.2551 238.417ZM28.364 238.924C28.5095 239.303 28.1309 240.082 27.5228 240.654L26.4168 241.694L25.83 241.106L25.2431 240.519L26.3154 239.376C27.5535 238.057 27.9943 237.96 28.364 238.924ZM29.1671 242.557L27.9577 243.93L29.2443 242.799L30.5308 241.667L31.1993 242.474L31.8674 243.28L30.655 244.22L29.4422 245.16L28.0428 243.627L26.644 242.094L27.7677 240.897L28.8915 239.699L29.6337 240.442L30.3759 241.185L29.1671 242.557ZM66.3068 243.942V245.688L67.5761 246.171C68.2743 246.437 69.2763 246.654 69.8028 246.654H70.7603V245.383V244.111L72.121 244.268L73.4818 244.425L73.6367 246.035C73.8421 248.163 74.7189 248.112 74.7189 245.971C74.7189 243.895 73.7851 243.072 71.6584 243.277L70.018 243.434L69.8547 244.586L69.6919 245.739L68.9487 245.453C68.5395 245.296 68.0006 245.168 67.7507 245.168C67.5008 245.168 67.2965 244.499 67.2965 243.682C67.2965 242.865 67.0738 242.196 66.8017 242.196C66.5295 242.196 66.3068 242.982 66.3068 243.942ZM32.9288 244.214C33.1094 244.507 32.7328 245.342 32.092 246.071L30.9267 247.397L32.2132 246.266L33.4998 245.135L34.1683 245.941L34.8363 246.748L33.624 247.671L32.4112 248.595L30.9267 247.109L29.4422 245.623L30.6793 244.664C32.1098 243.554 32.476 243.481 32.9288 244.214ZM116.167 247.273C115.448 247.829 115.088 249.27 115.24 250.988C115.27 251.329 115.74 251.607 116.284 251.607C117.592 251.607 117.539 252.299 116.161 253.226C114.832 254.121 115.279 254.888 116.689 254.132C117.809 253.532 119.748 249.826 119.748 248.284C119.748 246.719 117.651 246.126 116.167 247.273ZM127.934 247.097L126.965 247.482L126.138 250.761C125.203 254.472 125.24 254.579 127.481 254.579H129.112L129.691 252.474C130.01 251.317 130.297 249.596 130.329 248.652L130.387 246.935L129.645 246.823C129.236 246.762 128.467 246.885 127.934 247.097ZM35.8977 247.681C36.0783 247.974 35.7018 248.81 35.061 249.539L33.8957 250.864L35.2629 249.657L36.6301 248.45L37.211 249.032L37.7919 249.613L36.586 250.982L35.3801 252.35L36.7498 251.141L38.119 249.932L40.3373 252.111C42.9347 254.663 42.945 254.705 41.2651 255.807L39.9751 256.653L39.4407 256.118L38.9063 255.583L40.1122 254.214L41.3181 252.846L39.9509 254.053L38.5836 255.26L38.0027 254.678L37.4218 254.097L38.6277 252.728L39.8336 251.36L38.4367 252.594L37.0393 253.83L34.7661 251.421L32.4928 249.013L33.6888 248.092C35.0798 247.022 35.4479 246.953 35.8977 247.681ZM118.758 248.347C118.758 249.788 118.124 250.617 117.02 250.617H115.882L116.164 249.502C116.6 247.772 118.758 246.812 118.758 248.347ZM129.645 248.102C129.645 248.354 129.384 249.691 129.065 251.074L128.485 253.589H127.58C127.083 253.589 126.677 253.31 126.679 252.969C126.684 251.689 127.798 248.374 128.339 248.024C129.113 247.524 129.645 247.555 129.645 248.102ZM39.9885 248.974C40.3452 249.117 40.7723 249.099 40.9365 248.934C41.1008 248.77 40.8089 248.653 40.2873 248.674L39.3388 248.714L39.9885 248.974ZM72.2448 249.626C72.2448 249.898 71.9107 250.121 71.5025 250.121C71.0943 250.121 70.7603 250.344 70.7603 250.617C70.7603 250.889 71.0943 251.112 71.5025 251.112C71.9107 251.112 72.2448 251.335 72.2448 251.607C72.2448 252.294 71.9835 252.242 69.7706 251.112C67.7077 250.058 66.8017 249.876 66.8017 250.514C66.8017 250.933 71.9399 253.589 72.7505 253.589C73.0167 253.589 73.2344 253.031 73.2344 252.35V251.112H73.9766C74.3849 251.112 74.7189 250.889 74.7189 250.617C74.7189 250.344 74.3849 250.121 73.9766 250.121C73.5684 250.121 73.2344 249.898 73.2344 249.626C73.2344 249.354 74.0138 249.131 74.9663 249.131H76.6982V253.093V257.056L73.3581 257.048L70.018 257.041L70.7603 256.561C71.6935 255.957 71.4105 255.948 69.4252 256.517L67.8487 256.97L67.6399 255.898C67.3954 254.642 67.201 260.491 67.2935 266.343C67.3286 268.591 67.2213 270.43 67.055 270.43C66.4716 270.43 63.6249 268.806 58.9275 265.792L54.188 262.752L60.3709 262.481L66.5542 262.21L59.8553 262.11L53.1563 262.009L51.5051 260.629L49.8533 259.249L51.177 254.809C51.9054 252.367 52.5947 250.091 52.7085 249.75L52.9153 249.131H62.5803H72.2448V249.626ZM88.574 253.093V257.056H82.8835H77.193V253.093V249.131H82.8835H88.574V253.093ZM193.536 254.084C195.294 259.94 195.301 259.737 193.295 260.978L191.629 262.009H184.883H178.138L178.07 258.418C178.033 256.443 177.909 255.309 177.794 255.898L177.586 256.97L176.009 256.517C174.024 255.948 173.741 255.957 174.674 256.561L175.416 257.041L165.891 257.048L156.365 257.056V253.087V249.118L174.244 249.249L192.124 249.378L193.536 254.084ZM198.12 252.755L199.082 256.132L197.566 257.649L196.051 259.166L194.739 254.767C194.018 252.348 193.33 250.078 193.21 249.722L192.992 249.074L195.075 249.226L197.158 249.378L198.12 252.755ZM203.387 252.337C201.642 254.1 200.132 255.461 200.032 255.362C199.933 255.262 199.44 253.82 198.937 252.156L198.021 249.131H202.292H206.562L203.387 252.337ZM208.059 253.217L205.106 256.313L208.198 253.356C211.071 250.61 211.518 250.121 211.152 250.121C211.075 250.121 209.683 251.515 208.059 253.217ZM43.7838 255.556C43.9471 255.821 43.7204 256.657 43.28 257.414L42.4799 258.79L43.3201 257.675C43.7823 257.062 44.4538 256.561 44.813 256.561C46.0536 256.561 46.1184 257.629 44.9575 258.95L43.7922 260.276L45.1594 259.068L46.5266 257.861L47.1026 258.438L47.6781 259.014L46.7715 260.016C45.4929 261.431 45.0144 261.298 42.6318 258.868L40.5229 256.717L41.6625 255.922C43.0158 254.977 43.3869 254.914 43.7838 255.556ZM193.725 263.879C189.642 267.893 185.3 271.72 184.076 272.382L181.849 273.586L186.035 268.981C188.337 266.448 191.789 263.31 193.705 262.008C195.621 260.705 197.843 258.947 198.642 258.1C199.441 257.254 200.332 256.565 200.621 256.569C200.911 256.574 197.807 259.863 193.725 263.879ZM76.6982 259.778V262.009H72.2448H67.7913V259.873V257.737L72.2448 257.642L76.6982 257.547V259.778ZM88.574 258.232C88.574 258.607 87.8892 259.051 87.052 259.218L85.5294 259.523L85.6199 260.89C85.6694 261.642 85.6862 263.984 85.6575 266.096L85.6051 269.934H81.5886H77.5726L77.8061 268.711C77.9348 268.038 77.8492 267.605 77.6166 267.75C77.3835 267.894 77.193 266.772 77.193 265.258V262.504L80.5331 262.407L83.8732 262.31L80.5331 262.137L77.193 261.964V259.757V257.551H82.8835H88.574V258.232ZM91.543 258.294V259.037H90.5534H89.5637V258.294V257.551H90.5534H91.543V258.294ZM122.222 258.294V259.037H107.377H92.5327V258.294V257.551H107.377H122.222V258.294ZM152.407 258.294V259.037H137.562H122.717V258.294V257.551H137.562H152.407V258.294ZM155.376 258.294V259.037H154.386H153.396V258.294V257.551H154.386H155.376V258.294ZM177.643 259.843V262.009L168.86 262.121L160.077 262.233L168.86 262.38L177.643 262.527V266.231V269.934H168.457H159.271L159.338 266.096C159.374 263.984 159.388 261.533 159.369 260.647L159.334 259.037H157.85H156.365V258.271V257.506L167.004 257.591L177.643 257.678V259.843ZM48.9359 260.213L49.5 260.893L48.2016 261.745L46.9027 262.597L46.3737 262.067L45.8442 261.537L46.7508 260.535C47.8196 259.353 48.1788 259.3 48.9359 260.213ZM122.325 264.61L122.428 269.191L122.591 264.61L122.754 260.028H140.55H158.345V264.981V269.934H122.47H86.5947V264.981V260.028H104.409H122.222L122.325 264.61ZM50.9152 261.699L51.4793 262.379L50.2007 263.218L48.9216 264.057L48.1739 263.436L47.4262 262.815L48.5782 261.927C49.9756 260.852 50.1948 260.83 50.9152 261.699ZM84.5229 262.347C84.8797 262.491 85.3067 262.473 85.471 262.308C85.6353 262.144 85.3433 262.027 84.8218 262.048L83.8732 262.087L84.5229 262.347ZM52.5907 262.809C52.9203 263.139 51.5496 265.481 51.034 265.469C50.8613 265.465 50.3858 265.24 49.9775 264.97L49.2353 264.478L50.4724 263.503C51.8124 262.446 52.1251 262.343 52.5907 262.809ZM76.5968 266.219L76.4542 269.934H72.1225H67.7913V266.219V262.504H72.265H76.7393L76.5968 266.219ZM190.508 262.704C190.508 262.96 181.762 268.579 179.705 269.644L178.138 270.455V266.48V262.504H184.323C187.725 262.504 190.508 262.594 190.508 262.704ZM54.3285 264.086L54.9189 264.677L53.809 265.944L52.6991 267.21L53.9832 266.082L55.2667 264.953L56.0862 265.268C57.2253 265.705 57.111 266.218 55.6631 267.168L54.4211 267.982L53.5601 267.489C53.0865 267.218 52.3972 266.794 52.0286 266.546L51.3576 266.097L52.2092 264.796C53.1622 263.339 53.477 263.234 54.3285 264.086ZM185.586 268.915C181.733 273.265 179.641 275.101 177.011 276.442L174.921 277.506L178.174 273.844C180.686 271.017 187.258 265.685 188.456 265.503C188.552 265.488 187.261 267.023 185.586 268.915ZM58.5925 266.891C58.7365 267.123 58.3104 267.825 57.6464 268.449L56.4395 269.585L55.6443 268.924L54.8486 268.263L56.0006 267.376C57.2604 266.406 58.1862 266.233 58.5925 266.891ZM60.0809 267.758C60.5114 267.924 60.8637 268.232 60.8637 268.444C60.8637 269.159 58.3164 270.508 57.533 270.207L56.7567 269.909L57.9071 268.683C59.212 267.293 59.0487 267.362 60.0809 267.758ZM62.5511 269.367C62.6951 269.6 62.2972 270.275 61.6678 270.867L60.5228 271.944L59.7034 271.629C58.5935 271.202 58.6736 270.698 59.9978 269.773C61.2606 268.891 62.1686 268.747 62.5511 269.367ZM199.433 291.977C204.121 303.691 208.064 313.666 208.197 314.143L208.437 315.009H122.528H36.6172V314.584C36.6172 314.018 54.4354 270.775 54.8501 270.334C55.0277 270.145 57.0659 271.209 59.3792 272.697C66.0416 276.983 73.1948 280.226 83.6085 283.681L93.2749 286.889L103.666 288.555C109.382 289.471 115.895 290.226 118.14 290.232L122.222 290.243L122.29 291.357L122.357 292.472L122.572 291.357L122.786 290.243L127.081 290.232L131.377 290.221L141.768 288.537L152.159 286.853L160.587 284.108C171.87 280.433 180.81 276.162 188.529 270.759L190.261 269.546L190.586 270.112C190.764 270.423 194.745 280.262 199.433 291.977ZM64.0395 270.235C64.47 270.401 64.8223 270.709 64.8223 270.921C64.8223 271.636 62.275 272.984 61.4917 272.684L60.7153 272.385L61.8657 271.16C63.1706 269.769 63.0073 269.839 64.0395 270.235ZM177.613 273.931L174.512 277.432L171.501 278.932L168.489 280.432L171.952 276.875C174.698 274.055 179.488 270.462 180.539 270.434C180.635 270.432 179.318 272.005 177.613 273.931ZM66.8017 271.738C66.8017 273.362 64.6155 274.724 63.3379 273.896L62.5956 273.416L64.0662 272.228C65.3023 271.23 66.8017 270.962 66.8017 271.738ZM72.6193 271.925C71.8929 273.089 71.0968 273.172 70.112 272.187C69.7172 271.791 69.2783 271.583 69.1367 271.725C68.9957 271.866 68.7513 271.773 68.5939 271.518L68.3074 271.054L70.7697 270.998L73.2314 270.943L72.6193 271.925ZM75.1355 272.411C73.4981 274.628 71.4743 274.228 73.0355 271.996L73.7851 270.925H75.0094H76.2331L75.1355 272.411ZM78.5993 272.411L77.5018 273.897H76.0811H74.6605L75.0123 273.278C75.9188 271.682 76.9694 270.925 78.2742 270.925H79.6968L78.5993 272.411ZM81.5683 272.411L80.4707 273.897H79.2975H78.1243L78.4761 273.278C79.3421 271.754 80.4044 270.925 81.4906 270.925H82.6658L81.5683 272.411ZM85.0321 272.411L83.9345 273.897H82.5139H81.0933L81.4451 273.278C82.3516 271.682 83.4021 270.925 84.707 270.925H86.1296L85.0321 272.411ZM88.001 272.411L86.9035 273.897H85.7303H84.557L84.9089 273.278C85.7748 271.754 86.8372 270.925 87.9233 270.925H89.0986L88.001 272.411ZM91.4648 272.411L90.3673 273.897H88.9467H87.526L87.8778 273.278C88.7843 271.682 89.8349 270.925 91.1397 270.925H92.5623L91.4648 272.411ZM94.4338 272.411L93.3363 273.897H92.163H90.9898L91.3416 273.278C92.2076 271.754 93.27 270.925 94.3561 270.925H95.5313L94.4338 272.411ZM97.8976 272.411L96.8 273.897H95.3794H93.9588L94.3106 273.278C95.2171 271.682 96.2676 270.925 97.5725 270.925H98.9951L97.8976 272.411ZM100.867 272.411L99.769 273.897H98.5958H97.4225L97.7744 273.278C98.6403 271.754 99.7027 270.925 100.789 270.925H101.964L100.867 272.411ZM104.33 272.411L103.233 273.897H101.812H100.392L100.743 273.278C101.65 271.682 102.7 270.925 104.005 270.925H105.428L104.33 272.411ZM107.299 272.411L106.202 273.897H105.029H103.855L104.207 273.278C105.073 271.754 106.135 270.925 107.222 270.925H108.397L107.299 272.411ZM110.763 272.411L109.666 273.897H108.245H106.824L107.176 273.278C108.083 271.682 109.133 270.925 110.438 270.925H111.861L110.763 272.411ZM113.732 272.411L112.635 273.897H111.461H110.288L110.64 273.278C111.506 271.754 112.568 270.925 113.654 270.925H114.83L113.732 272.411ZM117.196 272.411L116.098 273.897H114.678H113.257L113.609 273.278C114.515 271.682 115.566 270.925 116.871 270.925H118.293L117.196 272.411ZM120.165 272.411L119.067 273.897H117.894H116.721L117.073 273.278C117.939 271.754 119.001 270.925 120.087 270.925H121.262L120.165 272.411ZM123.629 272.411L122.531 273.897H121.11H119.69L120.042 273.278C120.948 271.682 121.999 270.925 123.303 270.925H124.726L123.629 272.411ZM126.598 272.411L125.5 273.897H124.327H123.154L123.505 273.278C124.371 271.754 125.434 270.925 126.52 270.925H127.695L126.598 272.411ZM130.061 272.411L128.964 273.897H127.543H126.123L126.474 273.278C127.381 271.682 128.431 270.925 129.736 270.925H131.159L130.061 272.411ZM133.03 272.411L131.933 273.897H130.76H129.586L129.938 273.278C130.804 271.754 131.866 270.925 132.953 270.925H134.128L133.03 272.411ZM136.494 272.411L135.397 273.897H133.976H132.555L132.907 273.278C133.814 271.682 134.864 270.925 136.169 270.925H137.592L136.494 272.411ZM139.463 272.411L138.366 273.897H137.192H136.019L136.371 273.278C137.237 271.754 138.299 270.925 139.385 270.925H140.561L139.463 272.411ZM142.927 272.411L141.829 273.897H140.409H138.988L139.34 273.278C140.246 271.682 141.297 270.925 142.602 270.925H144.024L142.927 272.411ZM145.896 272.411L144.798 273.897H143.625H142.452L142.804 273.278C143.67 271.754 144.732 270.925 145.818 270.925H146.993L145.896 272.411ZM149.128 272.455L147.599 273.984L146.49 273.817L145.38 273.649L146.455 272.287L147.53 270.925H149.093H150.656L149.128 272.455ZM152.329 272.411L151.231 273.897H149.747H148.263L149.685 272.411L151.107 270.925H152.267H153.426L152.329 272.411ZM155.56 272.455L154.032 273.984L152.923 273.817L151.813 273.649L152.888 272.287L153.963 270.925H155.526H157.089L155.56 272.455ZM158.761 272.411L157.664 273.897H156.18H154.696L156.118 272.411L157.54 270.925H158.699H159.859L158.761 272.411ZM161.993 272.455L160.465 273.984L159.356 273.817L158.246 273.649L159.321 272.287L160.396 270.925H161.958H163.522L161.993 272.455ZM165.194 272.411L164.097 273.897H162.613H161.129L162.551 272.411L163.973 270.925H165.132H166.292L165.194 272.411ZM168.426 272.455L166.898 273.984L165.788 273.817L164.678 273.649L165.754 272.287L166.828 270.925H168.391H169.954L168.426 272.455ZM171.627 272.411L170.529 273.897H169.045H167.561L168.983 272.411L170.406 270.925H171.565H172.724L171.627 272.411ZM175.907 271.427C175.52 272.054 171.684 274.041 171.403 273.759C171.289 273.646 171.661 272.962 172.229 272.239L173.261 270.925H174.739H176.217L175.907 271.427ZM72.1309 276.247C70.1309 278.378 68.4826 277.592 70.3872 275.415L71.499 274.145L70.0111 275.486L68.5237 276.827L67.7992 276.379L67.0748 275.93L68.2975 274.542L69.5197 273.154L68.011 274.515L66.5023 275.876L65.9313 275.304L65.3602 274.733L66.3202 273.383L67.2802 272.033L70.2298 273.582L73.1795 275.13L72.1309 276.247ZM171.196 277.16C168.098 280.316 167.429 280.775 164.777 281.562L163.54 281.928L166.262 279.104C168.408 276.877 172.447 274.237 174.165 273.938C174.293 273.915 172.957 275.365 171.196 277.16ZM119.253 279.593V284.299L114.676 284.29C106.292 284.273 96.1162 282.109 83.0448 277.561C80.2347 276.583 77.6013 275.588 77.193 275.35L76.4508 274.918L97.8521 274.903L119.253 274.888V279.593ZM122.222 275.802C122.222 276.304 121.777 277.119 121.233 277.612L120.243 278.509V276.987C120.243 275.63 120.697 275.048 121.851 274.927C122.055 274.906 122.222 275.299 122.222 275.802ZM123.707 275.106C123.707 275.227 123.484 275.462 123.212 275.631C122.94 275.799 122.717 275.701 122.717 275.412C122.717 275.124 122.94 274.888 123.212 274.888C123.484 274.888 123.707 274.986 123.707 275.106ZM123.746 278.535L122.717 279.566V278.133C122.717 277.345 123.107 276.265 123.583 275.735L124.449 274.77L124.612 276.138L124.776 277.505L123.746 278.535ZM164.714 276.637C152.945 281.277 139.41 284.299 130.395 284.299H125.686V279.593V274.888L147.335 274.92L168.983 274.953L164.714 276.637ZM74.9564 275.696L75.7699 276.008L74.4299 277.408L73.0899 278.808L72.126 278.292L71.1621 277.775L72.2843 276.579C73.4932 275.291 73.7139 275.218 74.9564 275.696ZM77.3623 276.709C77.8689 277.215 75.6635 279.346 74.6328 279.346C73.4526 279.346 73.4927 278.919 74.805 277.52C75.8901 276.364 76.7467 276.092 77.3623 276.709ZM165.75 279.153C163.42 281.548 160.769 283.308 159.493 283.308C157.867 283.308 166.212 276.714 168.224 276.409C168.351 276.39 167.238 277.624 165.75 279.153ZM79.1327 279.14C78.0367 280.308 76.7076 280.676 76.0317 279.999C75.8461 279.814 76.287 279.043 77.0109 278.287L78.3272 276.912L79.2911 277.428L80.255 277.944L79.1327 279.14ZM121.276 280.513L120.243 281.547V280.362C120.243 279.71 120.632 278.742 121.109 278.212L121.975 277.248L122.142 278.364L122.308 279.479L121.276 280.513ZM82.6361 278.752C82.6361 278.907 82.1358 279.606 81.5247 280.305L80.4129 281.575L81.9745 280.163L83.5362 278.751L84.2794 279.172L85.0232 279.593L83.9311 280.96L82.839 282.327L80.4747 281.52L78.1104 280.714L79.4222 279.343L80.734 277.973L81.6851 278.222C82.2081 278.358 82.6361 278.597 82.6361 278.752ZM124.177 281.604C123.852 281.997 123.39 282.318 123.152 282.318C122.392 282.318 122.684 280.203 123.583 279.202L124.449 278.238L124.608 279.565C124.696 280.294 124.502 281.213 124.177 281.604ZM160.807 281.08C159.31 282.579 157.355 284.015 156.464 284.271L154.844 284.736L156.328 282.86C158.361 280.29 160.751 278.756 163.287 278.39C163.421 278.371 162.304 279.581 160.807 281.08ZM87.2672 280.184C87.4552 280.372 86.9916 281.066 86.236 281.725L84.8628 282.922L86.5947 281.706L88.3266 280.49L89.8111 280.948C90.6276 281.2 91.6197 281.51 92.0161 281.638L92.737 281.87L91.2738 283.139L89.8111 284.408L91.543 283.206L93.2749 282.004L95.0068 282.493C97.2909 283.137 97.2449 283.039 96.0499 284.719L95.0058 286.187L94.0166 285.928C92.7647 285.601 92.7771 285.392 94.1389 283.835L95.2507 282.565L93.7539 283.915L92.2575 285.264L90.2921 284.689C87.6967 283.929 87.7343 284 89.1065 282.439L90.3025 281.079L88.7863 282.447L87.2707 283.816L85.5719 283.24C83.3358 282.484 83.3675 282.539 84.3126 281.095C85.0964 279.897 86.5368 279.453 87.2672 280.184ZM122.152 282.219L122.04 284.102L121.142 284.17L120.243 284.238V283.193C120.243 282.296 121.498 280.336 122.071 280.336C122.177 280.336 122.212 281.183 122.152 282.219ZM156.05 282.616C154.257 284.807 153.652 285.208 150.922 286.021L149.685 286.389L151.911 283.982L154.138 281.575L151.659 283.916L149.179 286.258L147.453 286.556L145.727 286.853L147.953 284.814C150.191 282.763 151.497 282.017 153.533 281.625C154.138 281.509 155.19 281.185 155.871 280.906C157.96 280.05 157.982 280.256 156.05 282.616ZM124.511 283.572C124.184 284.426 122.717 284.558 122.717 283.734C122.717 283.424 123.107 282.882 123.583 282.531L124.449 281.892L124.619 282.369C124.713 282.631 124.664 283.173 124.511 283.572ZM149.166 283.262C146.939 285.389 144.212 287.271 143.356 287.271H142.316L144.009 285.522C145.461 284.023 147.389 283.026 149.166 282.858L149.636 282.813L149.166 283.262ZM99.199 283.619L100.009 283.93L98.8704 285.229L97.7318 286.528L99.3088 285.101L100.886 283.675L101.75 284.007L102.614 284.339L101.356 285.598L100.098 286.858L97.8055 286.514L95.513 286.169L96.5309 284.739C97.6002 283.235 97.8867 283.115 99.199 283.619ZM143.252 285.785L141.32 287.766H140.09H138.861L140.315 286.229C141.78 284.679 143.143 283.893 144.466 283.835L145.185 283.804L143.252 285.785ZM105.398 284.639C105.398 285.47 103.138 287.271 102.096 287.271C100.666 287.271 100.651 286.905 102.02 285.445C103.002 284.4 105.398 283.827 105.398 284.639ZM139.781 286.233L137.809 288.168L135.583 288.422C134.358 288.561 132.688 288.831 131.871 289.021L130.387 289.368L132.366 287.375L134.346 285.382L137.04 285.074C138.523 284.904 139.84 284.66 139.968 284.532C140.096 284.404 140.55 284.299 140.977 284.299H141.754L139.781 286.233ZM108.367 285.197C108.367 285.803 105.547 287.766 104.676 287.766C103.637 287.766 103.718 287.296 104.989 285.94C106.009 284.854 108.367 284.335 108.367 285.197ZM110.099 286.776C108.732 288.204 107.428 288.643 106.705 287.919C106.16 287.372 108.988 285.327 110.315 285.307L111.521 285.29L110.099 286.776ZM114.8 285.455C114.8 285.545 113.924 286.324 112.853 287.185L110.907 288.751L110.101 288.441L109.295 288.132L110.656 286.711L112.016 285.29H113.408C114.173 285.29 114.8 285.364 114.8 285.455ZM116.03 287.259L114.058 289.229L112.884 288.919L111.711 288.61L113.627 286.968C114.68 286.065 116.095 285.318 116.772 285.308L118.002 285.29L116.03 287.259ZM119.006 287.271L117.073 289.252H115.836H114.599L116.532 287.271L118.465 285.29H119.702H120.939L119.006 287.271ZM122.222 286.365C122.222 286.956 121.854 287.848 121.403 288.346L120.584 289.252H119.076H117.568L119.501 287.271C121.702 285.014 122.222 284.841 122.222 286.365ZM124.202 285.477C124.202 285.579 123.868 285.941 123.459 286.28L122.717 286.897V286.093C122.717 285.651 123.051 285.29 123.459 285.29C123.868 285.29 124.202 285.374 124.202 285.477ZM125.627 287.271C123.962 289.345 122.717 289.835 122.717 288.417C122.717 287.163 124.71 285.29 126.043 285.29H127.217L125.627 287.271ZM128.844 287.315L126.821 289.34L125.744 289.172L124.667 289.005L126.202 287.147L127.738 285.29H129.302H130.867L128.844 287.315ZM131.871 287.271L129.939 289.252H128.702H127.464L129.397 287.271L131.33 285.29H132.567H133.804L131.871 287.271ZM135.799 286.899L134.346 288.509L135.954 287.054C136.838 286.255 137.562 285.53 137.562 285.445C137.562 285.062 137.154 285.399 135.799 286.899ZM122.222 288.757C122.222 289.029 121.986 289.252 121.698 289.252C121.41 289.252 121.312 289.029 121.48 288.757C121.648 288.484 121.884 288.262 122.004 288.262C122.124 288.262 122.222 288.484 122.222 288.757Z" fill="#818683"/>
</svg>
