<svg width="20" height="21" viewBox="0 0 20 21" fill="none" xmlns="http://www.w3.org/2000/svg">
<path d="M9.51172 8.83337L3.35922 15.015C3.19618 15.177 3.06678 15.3696 2.97848 15.5818C2.89019 15.7939 2.84473 16.0215 2.84473 16.2513C2.84473 16.4811 2.89019 16.7086 2.97848 16.9208C3.06678 17.133 3.19618 17.3256 3.35922 17.4875C3.6887 17.8153 4.13451 17.9992 4.59922 17.9992C5.06393 17.9992 5.50975 17.8153 5.83922 17.4875L12.0117 11.3334M15.1009 13.2442L17.2559 11.0892C17.4121 10.9329 17.4999 10.721 17.4999 10.5C17.4999 10.2791 17.4121 10.0671 17.2559 9.91087L10.9342 3.5892C10.7779 3.43298 10.566 3.34521 10.3451 3.34521C10.1241 3.34521 9.91216 3.43298 9.75589 3.5892L7.60089 5.7442C7.44466 5.90048 7.3569 6.1124 7.3569 6.33337C7.3569 6.55434 7.44466 6.76626 7.60089 6.92254L13.9226 13.2442C14.0788 13.4004 14.2908 13.4882 14.5117 13.4882C14.7327 13.4882 14.9446 13.4004 15.1009 13.2442Z" stroke="#2D322F" stroke-width="1.5" stroke-linecap="round" stroke-linejoin="round"/>
</svg>
