<svg width="83" height="166" viewBox="0 0 83 166" fill="none" xmlns="http://www.w3.org/2000/svg">
<path d="M60.4082 18.0436C60.2779 17.5694 59.6915 17.4733 59.5425 16.8317C59.4277 16.342 59.7194 16.1716 59.6573 15.7346C59.5084 14.6653 57.4979 13.7944 56.8866 14.2934C56.5733 14.5506 56.7594 15.062 56.4244 15.217C56.1265 15.3534 55.6332 15.1085 55.385 14.7552C55.084 14.3244 55.2857 13.9153 55.0375 13.7758C54.7644 13.6208 54.4542 14.0888 53.8833 14.064C53.3403 14.0392 53.2597 13.6053 52.8439 13.5465C51.9193 13.4101 51.4663 15.4401 50.3618 15.5083C49.5551 15.5579 48.6367 14.5475 48.6305 13.72C48.6274 13.1466 49.0648 13.0568 49.2076 12.2199C49.3627 11.3088 48.9283 10.9306 49.2076 10.5463C49.6264 9.96676 50.8923 10.4596 51.0568 10.0845C51.2522 9.63204 49.4403 8.81692 49.555 7.77865C49.6171 7.20838 50.1911 7.22077 50.247 6.68149C50.3587 5.65252 48.3357 4.99857 47.3584 3.5078C47.2436 3.33114 47.0978 3.0739 46.7813 2.87245C46.3562 2.60281 46.0491 2.70199 45.6271 2.41065C45.3293 2.2061 45.323 2.05114 45.1089 1.83419C44.5846 1.3073 43.9393 1.54593 42.5679 1.37237C41.2679 1.20811 40.5884 0.833096 40.4301 1.08414C40.2843 1.31659 40.8552 1.64823 40.7776 2.18131C40.6815 2.83216 39.6731 3.41792 38.8136 3.33424C38.3017 3.28465 38.1869 3.02741 37.7743 3.04601C37.4236 3.0615 37.1196 3.26606 36.8621 3.5326C36.8993 3.63488 36.9986 3.66897 37.0824 3.76505C37.2685 3.9882 37.0855 4.25784 37.1103 4.65765C37.1475 5.24962 37.585 5.3054 37.5136 5.72381C37.4578 6.06164 37.1568 6.10193 37.0793 6.56063C37.0358 6.82407 37.1258 6.86126 37.0513 7.02242C36.8993 7.34785 36.4804 7.30135 36.3874 7.59889C36.3284 7.78485 36.468 7.89022 36.3874 8.00179C36.2602 8.18155 35.7451 8.14747 35.6086 7.91502C35.4969 7.72597 35.7203 7.5462 35.6086 7.31065C35.5062 7.0906 35.2673 7.15879 35.0594 6.90775C34.8298 6.62881 34.8981 6.27548 34.8298 6.27238C34.7709 6.26928 34.684 6.53583 34.6561 6.84886C34.5878 7.65778 34.9849 8.13816 34.8577 8.23424C34.7181 8.33962 34.0076 7.946 33.6725 7.28275C33.5174 6.97282 33.4988 6.71869 33.2692 6.61952C33.0737 6.53583 32.7852 6.59471 32.6642 6.76517C32.4656 7.04411 32.8162 7.46872 32.6642 7.60199C32.5277 7.72286 32.0778 7.5276 31.7985 7.22697C31.5503 6.96043 31.51 6.69079 31.4231 6.70939C31.3331 6.72488 31.2742 7.02241 31.3362 7.28585C31.389 7.5152 31.4883 7.5369 31.5658 7.74765C31.7054 8.11647 31.4789 8.25285 31.5658 8.61237C31.6775 9.06487 32.1212 9.18572 32.0561 9.39028C32.0095 9.53904 31.7365 9.60724 31.5348 9.59174C31.2276 9.56695 31.178 9.3469 30.8708 9.30351C30.6474 9.27251 30.3434 9.3376 30.2068 9.53285C30.0083 9.81799 30.3372 10.1279 30.1789 10.4255C29.9928 10.7726 29.2481 10.9059 28.7921 10.6269C28.3142 10.3356 28.3111 9.69401 28.1002 9.70331C27.8582 9.71261 27.9109 10.5246 27.4362 10.7416C27.1725 10.8625 27.0452 10.661 26.3689 10.568C25.5746 10.4627 25.3357 10.6858 25.0409 10.4534C24.7214 10.2023 24.8641 9.83349 24.5507 9.67543C24.2404 9.51736 24.0046 9.82729 23.6571 9.67543C23.2817 9.51116 23.3159 9.04936 23.0521 9.01217C22.7108 8.96258 22.4161 9.69092 22.2144 9.61654C22.022 9.54836 22.1647 8.83241 21.9848 8.77972C21.8514 8.73943 21.7397 9.12374 21.4077 9.18263C21.1285 9.23222 20.9609 9.00598 20.8306 9.09586C20.7003 9.18574 20.8523 9.42438 20.7717 9.84589C20.75 9.96366 20.6538 10.3914 20.3094 10.6548C20.1108 10.8036 20.0425 10.7416 19.9339 10.8563C19.8253 10.974 19.7571 11.1941 20.1077 12.3563C20.4242 13.4008 20.5762 13.5527 20.7437 13.6239C20.9733 13.7231 21.1812 13.6518 21.2619 13.7975C21.3612 13.9742 21.0912 14.1601 21.1471 14.4608C21.206 14.7769 21.5504 14.8513 21.5225 15.0093C21.4729 15.2728 20.4738 15.1736 20.3962 15.4711C20.359 15.6137 20.5793 15.6881 20.7996 16.0197C20.9858 16.2955 20.9454 16.4164 21.175 17.433C21.3301 18.121 21.3705 18.1675 21.3488 18.3845C21.3115 18.7502 21.1781 18.7998 21.1471 19.2213C21.1192 19.6304 21.2371 19.7172 21.1471 19.9992C21.0757 20.2317 20.9826 20.2131 20.7437 20.5757C20.3962 21.0964 20.4769 21.2947 20.2256 21.4404C19.934 21.6108 19.6392 21.459 19.5616 21.6139C19.5058 21.7255 19.6454 21.8216 19.7354 22.1315C19.7602 22.2245 19.8936 22.7235 19.6764 22.9095C19.5554 23.0148 19.4468 22.9126 19.2731 23.0241C19.0435 23.1698 19.1024 23.424 18.9256 23.4859C18.7208 23.5603 18.5191 23.2597 18.3764 23.3403C18.2833 23.396 18.2647 23.5944 18.3175 23.7432C18.4323 24.0686 18.8201 24.0035 18.9535 24.2917C19.0528 24.5087 18.8635 24.6172 18.7798 25.1843C18.7053 25.6864 18.8108 25.8755 18.665 25.9933C18.4385 26.173 18.0103 25.8631 17.9141 25.9933C17.8272 26.1079 18.153 26.359 18.3485 26.8301C18.6308 27.5181 18.2802 27.825 18.5781 28.2713C18.8821 28.7269 19.5306 28.8353 19.6175 28.8477C20.1015 28.9252 20.3094 28.7393 20.4831 28.9066C20.6879 29.1019 20.4366 29.3932 20.6289 30.0317C20.7065 30.2858 20.7748 30.3385 20.8027 30.5803C20.8368 30.8871 20.7469 30.9987 20.8027 31.2156C20.871 31.4821 21.0633 31.51 21.2371 31.7332C21.6994 32.3376 21.0633 33.1217 21.5256 33.6362C21.69 33.819 21.8917 33.8531 21.96 34.098C22.022 34.3149 21.9103 34.4575 22.0189 34.6155C22.1182 34.7643 22.2516 34.6992 22.3944 34.8449C22.5774 35.0339 22.444 35.223 22.596 35.4803C22.7605 35.7561 22.9901 35.6538 23.1731 35.9141C23.381 36.2086 23.139 36.4286 23.319 36.7789C23.5051 37.1477 23.8464 37.0578 24.0419 37.4142C24.2621 37.8171 24.0915 38.4153 23.896 38.4525C23.6664 38.499 23.443 37.7427 23.1452 37.7892C22.9776 37.8171 23.0025 38.0589 22.7698 38.2789C22.413 38.6167 22.0406 38.3409 21.5566 38.626C21.1409 38.8709 20.8554 39.4071 20.9795 39.7511C21.0509 39.9494 21.1967 39.9154 21.327 40.1261C21.4791 40.3772 21.3798 40.6096 21.0974 41.6541C20.9051 42.3669 20.8647 42.5777 20.6351 42.7512C20.4149 42.9186 20.3187 42.8225 20.117 42.9806C19.6671 43.3339 19.9464 43.9599 19.5678 44.2203C19.3041 44.4 19.1024 44.1397 18.5564 44.2792C18.1282 44.3876 18.1189 44.5829 17.6907 44.7689C17.1974 44.9827 16.7351 44.9269 16.1332 44.8557C15.1496 44.7379 15.0907 44.4837 14.7184 44.5953C14.0513 44.7968 13.6262 45.8009 13.651 46.613C13.6697 47.2328 13.9365 47.2886 13.9396 47.9983C13.9396 48.6027 13.7472 49.4209 13.3346 49.5263C13.0429 49.6007 12.8723 49.266 12.441 49.3527C12.1618 49.4085 12.0997 49.5759 11.8639 49.5542C11.5692 49.5263 11.5102 49.2474 11.3147 49.266C11.0293 49.2939 11.0727 49.892 10.6787 50.0749C10.325 50.2391 10.052 49.861 9.63932 50.047C9.34767 50.1772 9.36317 50.4189 9.11806 50.4499C8.8171 50.4902 8.70539 50.14 8.3672 50.1617C8.12519 50.1772 8.1283 50.3631 7.79011 50.4778C7.38987 50.6173 7.17268 50.4313 7.01134 50.5925C6.82828 50.7753 7.03307 51.0946 6.86552 51.2278C6.68557 51.3735 6.3877 51.045 5.99987 51.141C5.71132 51.2123 5.71755 51.4293 5.36385 51.7175C4.79606 52.1824 4.36477 51.9562 4.18171 52.294C3.94901 52.7155 4.4951 53.2982 4.24068 53.5616C4.08245 53.7259 3.81252 53.5709 3.66359 53.7631C3.53949 53.9242 3.5767 54.2218 3.72252 54.3984C3.89317 54.6061 4.10417 54.5038 4.24068 54.6867C4.41133 54.9129 4.31203 55.3623 4.06692 55.6102C3.84042 55.8396 3.65427 55.7187 3.48982 55.9264C3.32538 56.134 3.48053 56.2921 3.43089 56.9925C3.40297 57.3985 3.34091 57.4977 3.43089 57.6558C3.57361 57.9006 3.83112 57.8417 3.9211 58.0587C4.01418 58.2818 3.77218 58.4058 3.77528 58.8087C3.77839 59.162 3.96765 59.2612 3.89008 59.4131C3.74736 59.7013 3.04616 59.4379 2.8507 59.7292C2.70177 59.9555 2.94688 60.3708 3.19819 60.7954C3.64808 61.5578 4.09176 61.877 3.97696 62.1219C3.89629 62.2954 3.63256 62.218 3.54258 62.3822C3.3316 62.7789 4.60059 63.7304 4.46717 63.9381C4.31824 64.1705 2.71106 62.9835 1.55066 63.5352C1.42345 63.5941 1.02941 63.7831 1.00148 64.1117C0.979764 64.3782 1.20006 64.6788 1.43586 64.716C1.63754 64.747 1.75234 64.5672 1.87024 64.6292C2.03779 64.7191 1.8299 65.1251 2.01606 65.3204C2.26117 65.5807 2.90962 65.1623 3.17024 65.435C3.29435 65.5652 3.18576 65.6954 3.25712 65.8968C3.50844 66.5973 5.36693 66.4485 5.42278 66.8483C5.4476 67.0312 5.07531 67.1552 5.10634 67.4527C5.12806 67.6479 5.29868 67.7161 5.28007 67.8556C5.25214 68.0478 4.87673 67.9703 4.70298 68.2027C4.50441 68.4693 4.83949 68.7544 4.70298 69.241C4.58818 69.6532 4.29033 69.6439 4.24068 70.0189C4.20035 70.3196 4.3803 70.3846 4.47028 70.8557C4.50751 71.0541 4.62541 71.6678 4.35548 71.894C4.01108 72.1791 3.2199 71.6863 3.11441 71.8661C3.03685 71.9994 3.4464 72.3093 3.34401 72.5015C3.26954 72.644 3.00581 72.5511 2.90963 72.7029C2.80724 72.8703 2.96858 73.2298 3.22611 73.3662C3.46191 73.4871 3.68529 73.3755 3.91799 73.3383C4.49199 73.2453 4.77434 73.6575 6.02471 74.4354C7.08272 75.0894 7.59156 75.2382 7.58226 75.5884C7.57295 75.9014 7.16027 76.0657 7.20681 76.481C7.21301 76.5491 7.22854 76.5678 7.40849 76.9428C7.73427 77.6215 7.70324 77.5843 7.75599 77.6649C8.07866 78.1515 8.42306 78.1515 8.41996 78.387C8.41376 78.6443 7.9918 78.9356 7.72807 78.8488C7.42711 78.7497 7.46744 78.2135 7.1789 78.1577C7.02687 78.1267 6.83448 78.2414 6.77553 78.387C6.66694 78.6505 7.02998 78.9232 6.92139 79.1092C6.86244 79.2115 6.7011 79.2177 6.45909 79.2239C5.92854 79.2394 5.78271 79.0875 5.68032 79.165C5.41349 79.3664 6.38152 80.3892 6.14262 81.5576C6.06505 81.9357 5.90682 82.1 5.79512 82.7695C5.71755 83.2282 5.68029 83.4575 5.76717 83.721C5.88817 84.0929 6.1457 84.2602 6.08365 84.5578C6.04641 84.7437 5.92853 84.7561 5.90992 84.9049C5.86648 85.2365 6.40014 85.4969 6.68869 85.7696C6.89967 85.968 7.09822 86.2996 7.17579 86.8636C7.35574 86.8853 7.56054 86.8761 7.81496 86.8079C9.30423 86.4174 10.1605 84.7096 10.7314 84.9917C10.9207 85.0847 10.9579 85.3357 11.1658 85.3388C11.4047 85.3388 11.4389 84.9948 11.8019 84.7902C12.1959 84.5671 12.4224 84.8274 12.7544 84.6166C13.0895 84.4028 12.9436 84.0867 13.3035 83.752C13.6076 83.4668 14.1382 83.3057 14.4298 83.4916C14.7153 83.6745 14.5787 84.0681 14.8921 84.2416C15.1558 84.3873 15.4103 84.1982 15.5561 84.3563C15.7112 84.5268 15.4723 84.7933 15.584 84.9917C15.8322 85.4194 17.3215 84.7406 17.6349 85.1931C17.7621 85.376 17.6628 85.7045 17.5201 85.8843C17.2253 86.25 16.7041 86.0454 16.5086 86.374C16.369 86.6064 16.6017 86.7645 16.5086 87.1519C16.4031 87.5951 16.0556 87.592 15.8726 88.0166C15.643 88.5528 16.0897 88.7976 15.9005 89.3152C15.674 89.9382 14.92 89.8638 14.7742 90.4681C14.678 90.8679 14.979 91.0136 14.8332 91.4196C14.6998 91.7854 14.4174 91.7606 14.2281 92.1976C14.0606 92.5788 14.2344 92.6903 14.0544 92.9476C13.831 93.2699 13.4959 93.1801 13.3035 93.5241C13.1856 93.7348 13.3004 93.7875 13.1888 94.0138C12.9809 94.4353 12.531 94.3702 12.41 94.7359C12.3355 94.959 12.4814 95.0427 12.3821 95.2535C12.2549 95.5231 11.9725 95.4797 11.8919 95.6874C11.7957 95.9322 12.1525 96.0903 12.2673 96.5521C12.3914 97.0511 12.0532 97.1813 12.0935 97.8507C12.1276 98.4024 12.379 98.7061 12.2394 98.8301C12.0842 98.9665 11.7429 98.6379 11.4885 98.8022C11.2961 98.923 11.3892 99.1741 11.141 99.4654C10.9983 99.6328 10.9083 99.6204 10.7376 99.7537C10.3002 100.088 10.1171 100.745 10.1885 101.254C10.2412 101.629 10.3871 101.592 10.4491 101.945C10.5856 102.726 9.94959 103.333 10.1016 103.473C10.2692 103.625 10.9828 102.853 11.5164 103.098C11.6622 103.163 11.7243 103.274 11.9508 103.327C12.1959 103.386 12.2952 103.296 12.5279 103.299C13.0522 103.302 13.2787 103.749 13.4804 103.646C13.6976 103.535 13.4711 103.002 13.71 102.837C13.9458 102.679 14.2778 103.113 14.7773 103.011C15.1807 102.927 15.2024 102.599 15.4692 102.608C15.9315 102.621 15.8415 103.606 16.6824 104.164C16.9957 104.372 17.3619 104.471 17.4332 104.799C17.4735 104.985 17.3774 105.057 17.4332 105.233C17.5418 105.577 17.9824 105.531 18.184 105.81C18.5439 106.309 17.7838 107.366 17.9234 107.452C18.0165 107.511 18.3112 107.046 18.9628 106.643C19.3134 106.426 19.875 106.163 20.0301 106.327C20.1511 106.451 19.906 106.702 20.0301 106.991C20.1511 107.273 20.57 107.471 20.8399 107.366C21.1502 107.242 21.0105 106.814 21.358 106.299C21.5101 106.076 21.8824 105.862 22.6271 105.435C23.5858 104.886 23.8619 104.843 24.0139 104.83C24.4452 104.79 24.5321 104.92 24.7369 104.802C25.1929 104.536 24.951 103.755 25.4288 103.476C25.6925 103.321 25.9066 103.473 26.0338 103.302C26.1951 103.085 25.8662 102.816 25.919 102.292C25.9221 102.264 25.9872 101.694 26.4092 101.399C26.6667 101.22 26.8312 101.294 26.9584 101.111C27.129 100.86 26.8901 100.621 27.0453 100.361C27.1973 100.107 27.6347 99.9892 27.883 100.132C28.1374 100.277 28.0567 100.615 28.2584 100.68C28.5035 100.758 28.6959 100.284 29.2109 100.219C29.4715 100.184 29.4746 100.299 29.7011 100.277C30.2503 100.219 30.2534 99.5398 31.057 99.0098C31.3548 98.8146 31.4883 98.8177 31.6341 98.6069C31.8854 98.2412 31.6806 97.9468 31.8947 97.7422C32.1802 97.4664 32.9124 97.643 33.3375 98.0026C33.4926 98.1327 33.4585 98.1606 33.5981 98.2629C34.1193 98.6441 34.8081 98.4055 34.8391 98.5233C34.8702 98.6441 34.0821 98.8456 34.0883 99.1276C34.0914 99.264 34.2713 99.295 34.6654 99.6173C35.0067 99.8993 35.2021 100.06 35.2146 100.281C35.227 100.556 34.9446 100.69 35.0129 100.857C35.0873 101.037 35.4379 100.935 35.562 101.117C35.6986 101.319 35.3945 101.629 35.1866 102.156C34.9695 102.704 34.7926 103.643 35.1866 104.003C35.4442 104.235 35.8289 104.117 35.9375 104.378C36.0151 104.564 35.8475 104.7 35.9375 104.895C36.0461 105.131 36.3346 105.041 36.4866 105.243C36.7411 105.58 36.1205 106.126 36.3408 106.656C36.4929 107.018 36.8807 106.994 36.9179 107.319C36.9489 107.586 36.7162 107.88 36.4556 107.982C36.2043 108.081 36.0709 107.945 35.7637 107.923C34.9384 107.868 34.6313 108.766 33.9456 108.646C33.6136 108.587 33.5608 108.354 33.1668 108.357C32.8876 108.357 32.8503 108.475 32.5028 108.503C32.1584 108.531 32.0654 108.426 31.693 108.416C31.3735 108.407 31.2028 108.478 30.9422 108.531C29.8935 108.745 29.3071 108.277 29.093 108.559C28.9317 108.776 29.0961 109.287 29.3816 109.538C29.6081 109.74 29.8563 109.724 29.9028 109.913C29.9493 110.099 29.7322 110.211 29.757 110.462C29.7756 110.638 29.9028 110.759 29.9866 110.837C30.4334 111.249 30.936 111.004 31.1718 111.271C31.4417 111.574 31.2245 112.402 30.7374 112.913C30.1169 113.57 29.5708 113.171 28.7455 113.837C28.5656 113.983 27.672 114.702 27.6782 115.625C27.6813 116 27.8333 116.487 27.5913 116.663C27.4672 116.756 27.3245 116.701 27.2438 116.809C27.1166 116.98 27.3245 117.302 27.3896 117.472C27.7247 118.353 26.223 120.392 24.4018 120.745C23.7626 120.869 22.9435 120.813 22.928 120.962C22.9187 121.055 23.2507 121.095 23.4058 121.396C23.5113 121.604 23.4369 121.746 23.4493 121.957C23.4958 122.67 24.4762 122.918 24.4018 123.342C24.3552 123.609 23.9612 123.528 23.7099 123.947C23.471 124.344 23.7037 124.616 23.4493 125.029C23.2445 125.357 23.0552 125.249 22.8442 125.546C22.6364 125.837 22.6612 126.305 22.7139 127.232C22.7481 127.818 22.7946 128.041 22.6271 128.227C22.413 128.466 22.0344 128.428 22.022 128.574C22.0096 128.692 22.2578 128.72 22.413 128.921C22.6457 129.222 22.4285 129.6 22.3695 130.307C22.3199 130.914 22.4037 131.615 22.5867 131.649C22.7698 131.683 22.8629 131.001 23.2786 130.914C23.6975 130.827 24.3242 131.373 24.318 131.866C24.3118 132.312 23.7967 132.489 23.8836 132.817C23.9488 133.068 24.3304 133.263 24.6189 133.208C24.9664 133.139 24.9634 132.758 25.3109 132.69C25.6522 132.622 25.8662 132.947 26.1331 132.82C26.3316 132.724 26.3441 132.485 26.4371 132.495C26.6078 132.513 26.524 133.294 26.8498 133.425C27.0732 133.514 27.3183 133.229 27.4982 133.359C27.6099 133.44 27.5541 133.573 27.6937 133.707C27.8426 133.849 27.9823 133.765 28.0846 133.858C28.3484 134.1 27.7589 135.002 27.9761 135.179C28.0877 135.272 28.2801 135.058 28.4756 135.157C28.7114 135.278 28.55 135.659 28.8231 135.957C29.0558 136.211 29.3412 136.118 29.4281 136.347C29.5056 136.549 29.3133 136.691 29.4064 136.886C29.4964 137.072 29.7073 137.017 29.7973 137.169C29.9555 137.435 29.4219 137.822 29.4064 138.315C29.394 138.845 29.9928 139.242 30.1851 139.397C30.6692 139.781 31.1066 140.618 31.1097 142.521C31.1687 142.518 31.2276 142.505 31.2897 142.468C31.5534 142.32 31.4976 142.053 31.7458 141.582C31.9599 141.176 32.4253 140.562 32.8503 140.609C33.1916 140.646 33.3188 141.089 33.4554 141.043C33.7191 140.953 33.1078 139.415 33.7377 138.858C33.9145 138.7 34.262 138.56 34.6033 138.576C34.7336 138.582 34.8484 138.61 35.0594 138.662C35.3945 138.746 35.562 138.786 35.6427 138.858C35.9561 139.124 35.7327 139.629 35.9902 139.766C36.1081 139.831 36.2509 139.769 36.468 139.679C36.9521 139.477 36.9582 139.239 37.2685 139.14C37.6501 139.016 37.7774 139.326 38.3296 139.292C38.7454 139.267 38.8012 139.081 39.2604 138.966C39.2915 138.96 40.0361 138.78 40.6256 139.053C41.3113 139.372 41.2275 140.045 41.817 140.761C42.4065 141.48 43.2257 141.697 43.9672 141.892C43.9672 141.892 45.2331 142.227 48.0379 141.446C48.1837 141.405 48.3264 141.359 48.4412 141.229C48.7391 140.897 48.4505 140.454 48.7298 140.131C48.9128 139.921 49.2665 139.843 49.4371 139.958C49.5675 140.045 49.5179 140.2 49.6668 140.289C49.8312 140.389 49.9522 140.246 50.1446 140.333C50.3493 140.429 50.3463 140.658 50.4766 140.665C50.6069 140.671 50.6255 140.448 50.8365 140.376C51.0071 140.32 51.0785 140.438 51.2553 140.404C51.5036 140.355 51.5097 140.091 51.7455 139.942C52.0217 139.772 52.4964 139.828 52.7415 140.088C53.1448 140.513 52.7384 141.278 52.698 141.356C52.6298 141.486 52.4002 141.917 51.9751 142.003C51.5656 142.087 51.3546 141.768 51.066 141.786C50.7589 141.805 50.3618 142.211 49.9584 143.823C50.1353 143.637 50.3152 143.507 50.5169 143.46C53.1138 142.856 52.1954 145.828 52.6236 146.259C53.4055 147.043 54.3394 146.346 54.8482 147.7C55.447 149.293 54.2959 150.015 54.2711 151.075C54.2525 151.89 53.058 150.585 52.8563 152.863C52.8377 153.059 54.3611 153.759 54.0694 154.766C53.2317 157.658 53.964 157.469 54.0353 159C54.5162 158.771 54.8358 158.51 55.053 158.284C55.2423 158.083 55.3415 157.921 55.6301 157.708C56.263 157.237 56.7439 157.302 56.8153 157.016C56.8867 156.713 56.3685 156.57 56.3127 155.963C56.2909 155.724 56.3561 155.591 56.2475 155.454C56.0862 155.25 55.7945 155.358 55.6859 155.172C55.5928 155.014 55.6766 154.726 55.8379 154.655C56.0768 154.546 56.4089 154.955 56.5299 154.859C56.6229 154.788 56.4244 154.559 56.4771 154.19C56.5205 153.889 56.6757 153.846 56.6943 153.551C56.7129 153.251 56.5516 153.198 56.5857 153.031C56.685 152.55 58.0812 152.715 58.3387 152.089C58.4597 151.797 58.2208 151.602 58.4039 151.342C58.5838 151.084 59.0368 150.96 59.3129 151.103C59.4495 151.174 59.4681 151.27 59.5829 151.277C59.8094 151.286 59.9055 150.911 60.07 150.929C60.2468 150.951 60.1941 151.397 60.4919 151.577C60.7339 151.723 60.9325 151.531 61.0877 151.664C61.339 151.884 60.9139 152.507 61.1839 152.789C61.3173 152.925 61.5872 152.953 61.7454 152.854C62.065 152.653 61.8602 151.999 62.1239 151.89C62.2729 151.828 62.3566 152.03 62.6328 152.008C62.9368 151.983 63.0517 151.72 63.2378 151.782C63.3588 151.822 63.3154 151.931 63.4984 152.064C63.6443 152.172 63.725 152.138 63.9204 152.259C64.0476 152.336 64.0848 152.395 64.1593 152.454C64.4633 152.699 65.056 152.727 65.2204 152.498C65.3352 152.34 65.1553 152.175 65.2731 151.816C65.298 151.738 65.3787 151.497 65.5338 151.469C65.6858 151.444 65.7665 151.652 65.9681 151.794C66.4304 152.12 67.3427 151.958 67.625 151.512C67.7522 151.314 67.7149 151.118 67.8949 151.013C68.0686 150.914 68.1834 151.044 68.3727 151.004C68.8164 150.905 68.6457 150.068 69.3035 149.349C69.4586 149.178 69.6324 149.045 69.8216 148.732C69.9675 148.493 70.0761 148.311 70.0389 148.106C69.9861 147.821 69.7099 147.824 69.5176 147.502C69.3562 147.232 69.4835 147.117 69.4277 146.442C69.3687 145.732 69.1918 145.462 69.3562 145.317C69.4958 145.19 69.6573 145.366 70.0482 145.258C70.4143 145.159 70.5322 144.932 70.7121 144.997C70.8642 145.053 70.8176 145.23 70.9851 145.372C71.2768 145.617 71.9097 145.499 72.009 145.242C72.068 145.09 71.8973 145 71.9377 144.78C71.9842 144.529 72.2386 144.52 72.4279 144.247C72.704 143.857 72.4186 143.544 72.6575 143.296C72.9181 143.029 73.3369 143.302 73.6255 142.992C73.7992 142.806 73.8117 142.53 73.8117 142.487C73.821 142.183 73.6472 142.081 73.7093 141.867C73.7589 141.703 73.88 141.706 74.0692 141.492C74.1623 141.39 74.4074 141.114 74.4012 140.77C74.3919 140.386 74.0661 139.995 73.7806 139.992C73.6317 139.989 73.5355 140.094 73.4766 140.051C73.3928 139.986 73.6969 139.698 73.6069 139.49C73.5418 139.338 73.2842 139.251 73.1167 139.316C72.9895 139.366 72.9771 139.481 72.8716 139.49C72.7319 139.502 72.6823 139.31 72.5551 139.304C72.3627 139.292 72.3348 139.707 72.0339 139.88C71.8694 139.976 71.7826 139.908 70.9666 139.822C70.3771 139.76 70.1971 139.772 70.073 139.893C69.924 140.035 69.9489 140.243 69.8558 140.252C69.7565 140.262 69.592 140.045 69.5951 139.818C69.6013 139.462 70.0295 139.385 70.0574 139.025C70.076 138.78 69.8992 138.501 69.6975 138.449C69.5114 138.402 69.4276 138.579 69.0615 138.607C68.9343 138.616 68.7109 138.631 68.6147 138.504C68.5247 138.383 68.6333 138.253 68.5434 138.129C68.441 137.99 68.2486 138.073 68.109 137.971C67.8639 137.788 68.0314 137.187 68.05 137.122C68.2765 136.332 69.1049 135.73 69.5238 135.839C69.5734 135.851 69.6758 135.888 69.7534 135.839C69.893 135.752 69.7999 135.504 69.9396 135.405C70.0544 135.324 70.1691 135.445 70.2994 135.362C70.436 135.272 70.4422 135.049 70.4453 134.971C70.4515 134.757 70.3584 134.739 70.3863 134.624C70.4484 134.37 70.9138 134.444 71.0938 134.103C71.1589 133.979 71.1434 133.883 71.252 133.8C71.3761 133.707 71.4909 133.756 71.5405 133.685C71.6181 133.573 71.3978 133.39 71.3389 133.124C71.2706 132.817 71.4164 132.439 71.6863 132.231C72.1083 131.903 72.7847 132.042 72.9987 132.361C73.1632 132.603 72.9864 132.842 73.1725 133.009C73.4052 133.223 73.8489 132.984 73.9823 133.183C74.0692 133.316 73.9203 133.487 73.9979 133.558C74.1499 133.7 74.8138 133.034 75.0962 133.211C75.2389 133.304 75.2606 133.604 75.183 133.803C75.0931 134.029 74.9038 134.051 74.8945 134.237C74.8883 134.382 75.0031 134.429 75.0403 134.639C75.0745 134.841 74.9659 134.903 75.0125 134.987C75.1273 135.188 75.7353 134.872 75.9929 135.132C76.1449 135.284 76.027 135.489 76.21 135.637C76.3683 135.768 76.5079 135.653 76.6879 135.768C76.9081 135.907 76.9857 136.257 76.933 136.518C76.8895 136.732 76.784 136.762 76.5141 137.138C76.2069 137.562 76.0239 137.813 76.0953 138.018C76.1884 138.281 76.6041 138.157 76.8306 138.464C77.147 138.889 76.7406 139.645 76.9019 139.719C76.9826 139.753 77.054 139.561 77.3053 139.49C77.6062 139.403 77.7552 139.611 78.0127 139.549C78.3199 139.474 78.3292 139.127 78.5743 138.957C78.7574 138.83 79.0893 138.799 79.7036 139.093C79.8805 136.307 80.1598 134.209 80.5073 133.161C81.3543 130.598 82.3254 127.48 81.8941 126.671C81.7235 126.355 81.165 125.664 81.0005 124.681C80.8144 123.572 81.3728 123.417 81.1464 122.317C81.0098 121.66 80.38 122.298 79.8774 121.164C78.9435 119.059 80.3211 119.679 79.4958 118.291C78.9218 117.324 79.7781 116.564 79.0676 116.031C78.143 115.34 77.0478 114.531 77.6807 111.993C78.0189 110.638 76.8212 113.121 75.8687 111.472C75.3351 110.549 75.6081 110.363 74.91 108.329C74.4384 106.956 74.0444 106.268 73.7899 105.667C72.068 101.61 75.2078 98.3776 73.309 95.8144C72.3503 94.5189 71.2489 94.9404 70.3243 93.2575C69.589 91.9248 70.0358 91.2182 69.0988 90.0621C68.2672 89.0394 67.2247 88.7418 67.2868 88.0383C67.3302 87.5393 67.8763 87.4339 67.9259 86.9721C68.0128 86.1601 66.4305 85.3574 65.6858 85.001C61.9595 83.222 60.5199 83.7737 56.4089 82.286C55.5742 81.9854 54.9754 81.7219 54.0632 81.7529C52.1582 81.8149 50.0763 83.1073 50.0639 84.3625C50.0546 85.3295 51.2864 85.4225 52.0899 86.9194C53.2876 89.1478 52.2172 92.0426 51.8759 92.0333C51.4663 92.0209 51.5935 87.7687 50.7031 87.6664C50.3494 87.6261 49.9987 88.2583 49.7971 88.6241C49.0028 90.0621 49.5768 90.964 48.9966 91.9806C48.3047 93.1924 46.4803 93.6635 46.1173 93.2575C45.6054 92.6841 48.0037 90.2977 47.2901 89.3152C46.8433 88.7015 45.6333 89.2532 44.9973 88.4629C44.4202 87.7439 44.9445 86.6932 44.6777 86.6002C44.3426 86.4824 43.0426 87.9887 43.2908 89.4237C43.4397 90.276 44.0354 90.5084 43.9299 91.1283C43.8089 91.8535 42.8037 92.6377 42.0094 92.5137C40.0175 92.2007 40.1354 86.2934 38.2769 86.0702C37.8953 86.0237 37.9077 86.2748 36.1981 87.2944C33.7284 88.7697 32.8938 88.7326 32.5184 88.6799C32.2391 88.6396 31.2556 88.5032 30.9174 87.8276C30.6474 87.2852 30.9639 86.7459 32.2515 84.0464C32.8069 82.881 33.0861 82.2922 33.2102 81.9699C33.7904 80.4543 33.7036 80.0266 34.2248 78.9883C34.7399 77.9625 35.0625 77.9067 35.6645 76.9645C36.0926 76.295 36.2788 75.7743 36.9428 73.236C38.2086 68.4011 38.1466 67.9238 37.9573 67.431C37.5571 66.402 36.8776 66.0642 36.89 64.9826C36.8993 64.2356 37.2251 63.8823 37.6377 62.906C38.2335 61.4896 37.9883 61.1797 38.4382 59.6579C39.338 56.602 40.7932 56.258 40.6256 54.3333C40.548 53.4531 40.2192 53.2393 40.306 52.3095C40.4208 51.0729 41.0724 50.7257 41.4788 49.6999C42.298 47.6388 40.5977 46.6873 41.1065 44.2141C41.4819 42.3886 42.4593 42.6551 42.9185 40.6995C43.4335 38.5083 42.2948 37.8047 42.8657 35.6941C42.9464 35.3997 42.6113 33.3169 44.1037 30.8592C45.5775 28.4355 46.0863 29.1856 46.7658 28.4572C47.4701 27.7041 47.4887 27.0718 48.3885 26.7495C53.4551 24.9333 53.6196 20.7369 55.447 21.4714C56.0831 21.7255 55.4098 22.9931 56.2692 23.114C57.0945 23.2287 57.9229 22.7855 58.2177 22.0758C58.6086 21.1398 56.9022 20.4579 57.2372 19.7389C57.7368 18.6572 57.5724 20.272 59.4309 19.6521C59.496 19.6304 59.5612 19.587 59.6356 19.5343C60.3772 18.8246 60.492 18.3566 60.4082 18.0436Z" fill="white" fill-opacity="0.1" stroke="white" stroke-opacity="0.5" stroke-miterlimit="10"/>
<ellipse opacity="0.3" cx="53.0711" cy="140.272" rx="25.5252" ry="25.5388" fill="#3DB36C"/>
<ellipse cx="53.0718" cy="140.272" rx="3.7437" ry="3.74569" fill="#C8FFDE"/>
</svg>
