<svg width="100" height="100" viewBox="0 0 100 100" fill="none" xmlns="http://www.w3.org/2000/svg">
<path d="M37.5 70.8335C37.5 75.4359 33.769 79.1668 29.1667 79.1668C24.5643 79.1668 20.8333 75.4359 20.8333 70.8335M37.5 70.8335C37.5 66.2311 33.769 62.5002 29.1667 62.5002C24.5643 62.5002 20.8333 66.2311 20.8333 70.8335M37.5 70.8335H62.5M20.8333 70.8335H12.5V25.0002C12.5 23.8951 12.939 22.8353 13.7204 22.0539C14.5018 21.2725 15.5616 20.8335 16.6667 20.8335H54.1667V70.8335M79.1667 70.8335C79.1667 75.4359 75.4357 79.1668 70.8333 79.1668C66.231 79.1668 62.5 75.4359 62.5 70.8335M79.1667 70.8335C79.1667 66.2311 75.4357 62.5002 70.8333 62.5002C66.231 62.5002 62.5 66.2311 62.5 70.8335M79.1667 70.8335H87.5V45.8335M87.5 45.8335H54.1667M87.5 45.8335L75 25.0002H54.1667" stroke="#B1BCB5" stroke-width="2" stroke-linecap="round" stroke-linejoin="round"/>
</svg>
