<svg width="100" height="100" viewBox="0 0 100 100" fill="none" xmlns="http://www.w3.org/2000/svg">
<path d="M37.5 37.5H37.5417M62.5 37.5H62.5417M87.5 50C87.5 70.7107 70.7107 87.5 50 87.5C29.2893 87.5 12.5 70.7107 12.5 50C12.5 29.2893 29.2893 12.5 50 12.5C70.7107 12.5 87.5 29.2893 87.5 50ZM33.3333 54.1667C33.3333 58.5869 35.0893 62.8262 38.2149 65.9518C41.3405 69.0774 45.5797 70.8333 50 70.8333C54.4203 70.8333 58.6595 69.0774 61.7851 65.9518C64.9107 62.8262 66.6667 58.5869 66.6667 54.1667H33.3333Z" stroke="#B1BCB5" stroke-width="2" stroke-linecap="round" stroke-linejoin="round"/>
</svg>
